%TF.GenerationSoftware,KiCad,Pcbnew,10.0.0*%
%TF.CreationDate,2026-04-24T16:04:11+10:00*%
%TF.ProjectId,SkeleKatze,536b656c-654b-4617-947a-652e6b696361,rev?*%
%TF.SameCoordinates,Original*%
%TF.FileFunction,Copper,L2,Bot*%
%TF.FilePolarity,Positive*%
%FSLAX46Y46*%
G04 Gerber Fmt 4.6, Leading zero omitted, Abs format (unit mm)*
G04 Created by KiCad (PCBNEW 10.0.0) date 2026-04-24 16:04:11*
%MOMM*%
%LPD*%
G01*
G04 APERTURE LIST*
G04 Aperture macros list*
%AMRoundRect*
0 Rectangle with rounded corners*
0 $1 Rounding radius*
0 $2 $3 $4 $5 $6 $7 $8 $9 X,Y pos of 4 corners*
0 Add a 4 corners polygon primitive as box body*
4,1,4,$2,$3,$4,$5,$6,$7,$8,$9,$2,$3,0*
0 Add four circle primitives for the rounded corners*
1,1,$1+$1,$2,$3*
1,1,$1+$1,$4,$5*
1,1,$1+$1,$6,$7*
1,1,$1+$1,$8,$9*
0 Add four rect primitives between the rounded corners*
20,1,$1+$1,$2,$3,$4,$5,0*
20,1,$1+$1,$4,$5,$6,$7,0*
20,1,$1+$1,$6,$7,$8,$9,0*
20,1,$1+$1,$8,$9,$2,$3,0*%
G04 Aperture macros list end*
%TA.AperFunction,SMDPad,CuDef*%
%ADD10RoundRect,0.375000X0.375000X-1.625000X0.375000X1.625000X-0.375000X1.625000X-0.375000X-1.625000X0*%
%TD*%
%TA.AperFunction,SMDPad,CuDef*%
%ADD11RoundRect,0.375000X-0.346889X-1.631232X1.026620X1.314268X0.346889X1.631232X-1.026620X-1.314268X0*%
%TD*%
%TA.AperFunction,SMDPad,CuDef*%
%ADD12R,3.175000X3.175000*%
%TD*%
%TA.AperFunction,SMDPad,CuDef*%
%ADD13C,6.350000*%
%TD*%
%TA.AperFunction,SMDPad,CuDef*%
%ADD14R,1.000000X0.800000*%
%TD*%
%TA.AperFunction,SMDPad,CuDef*%
%ADD15R,0.700000X1.500000*%
%TD*%
%TA.AperFunction,Conductor*%
%ADD16C,0.304800*%
%TD*%
%TA.AperFunction,Conductor*%
%ADD17C,0.200000*%
%TD*%
G04 APERTURE END LIST*
D10*
%TO.P,D1,1,K_1*%
%TO.N,GND*%
X102800000Y-44400000D03*
%TO.P,D1,2,A_2*%
%TO.N,Net-(D1-A)*%
X100259999Y-44400000D03*
%TD*%
D11*
%TO.P,D2,1,K_1*%
%TO.N,GND*%
X124751012Y-32336726D03*
%TO.P,D2,2,A_2*%
%TO.N,Net-(D1-A)*%
X122448989Y-31263275D03*
%TD*%
D12*
%TO.P,BT1,1,+_1*%
%TO.N,Net-(BT1-+)*%
X101800000Y-69600000D03*
X101799994Y-85347990D03*
D13*
%TO.P,BT1,2,-_2*%
%TO.N,GND*%
X101799997Y-77473995D03*
%TD*%
D14*
%TO.P,SW1,*%
%TO.N,*%
X95550000Y-89723558D03*
X95550000Y-87513559D03*
X88250001Y-87513560D03*
X88249999Y-89723560D03*
D15*
%TO.P,SW1,1,A_1*%
%TO.N,Net-(D1-A)*%
X94150000Y-86863560D03*
%TO.P,SW1,2,B_2*%
%TO.N,Net-(BT1-+)*%
X91149999Y-86863559D03*
%TO.P,SW1,3,C_3*%
%TO.N,unconnected-(SW1-C-Pad3)*%
X89650000Y-86863560D03*
%TD*%
%TO.N,GND*%
D16*
X102800000Y-46400000D02*
X102800000Y-44400000D01*
X102399997Y-77473995D02*
X105000000Y-74873992D01*
X122087738Y-35000000D02*
X124751012Y-32336726D01*
X105000000Y-68000000D02*
X94200000Y-57200000D01*
X105000000Y-74873992D02*
X105000000Y-68000000D01*
X96400000Y-47600000D02*
X101600000Y-47600000D01*
X102800000Y-38000000D02*
X105800000Y-35000000D01*
X102800000Y-44400000D02*
X102800000Y-38000000D01*
X105800000Y-35000000D02*
X122087738Y-35000000D01*
X94200000Y-49800000D02*
X96400000Y-47600000D01*
X101600000Y-47600000D02*
X102800000Y-46400000D01*
X94200000Y-57200000D02*
X94200000Y-49800000D01*
%TO.N,Net-(D1-A)*%
D17*
X93747600Y-49612610D02*
X98960210Y-44400000D01*
X100400000Y-66400000D02*
X100400000Y-64039790D01*
D16*
X100259999Y-39740001D02*
X105800000Y-34200000D01*
D17*
X94150000Y-72650000D02*
X100400000Y-66400000D01*
X100400000Y-64039790D02*
X93747600Y-57387390D01*
D16*
X100259999Y-44400000D02*
X100259999Y-39740001D01*
D17*
X93747600Y-57387390D02*
X93747600Y-49612610D01*
X94150000Y-86863560D02*
X94150000Y-72650000D01*
D16*
X105800000Y-34200000D02*
X119512264Y-34200000D01*
D17*
X98960210Y-44400000D02*
X100259999Y-44400000D01*
D16*
X119512264Y-34200000D02*
X122448989Y-31263275D01*
%TO.N,Net-(BT1-+)*%
X96200000Y-77200000D02*
X102400000Y-71000000D01*
X102399994Y-88400006D02*
X102399994Y-85347990D01*
X91149999Y-86863559D02*
X91149999Y-87918359D01*
X99600000Y-91200000D02*
X102399994Y-88400006D01*
X100347990Y-85347990D02*
X96200000Y-81200000D01*
X102399994Y-85347990D02*
X100347990Y-85347990D01*
X91149999Y-87918359D02*
X94431640Y-91200000D01*
X102400000Y-71000000D02*
X102400000Y-69600000D01*
X94431640Y-91200000D02*
X99600000Y-91200000D01*
X96200000Y-81200000D02*
X96200000Y-77200000D01*
%TD*%
M02*
