%TF.GenerationSoftware,KiCad,Pcbnew,10.0.0*%
%TF.CreationDate,2026-04-24T16:04:11+10:00*%
%TF.ProjectId,SkeleKatze,536b656c-654b-4617-947a-652e6b696361,rev?*%
%TF.SameCoordinates,Original*%
%TF.FileFunction,Copper,L1,Top*%
%TF.FilePolarity,Positive*%
%FSLAX46Y46*%
G04 Gerber Fmt 4.6, Leading zero omitted, Abs format (unit mm)*
G04 Created by KiCad (PCBNEW 10.0.0) date 2026-04-24 16:04:11*
%MOMM*%
%LPD*%
G01*
G04 APERTURE LIST*
%TA.AperFunction,EtchedComponent*%
%ADD10C,0.000000*%
%TD*%
G04 APERTURE END LIST*
D10*
%TA.AperFunction,EtchedComponent*%
%TO.C,Lg1*%
G36*
X90744830Y-46708576D02*
G01*
X90728031Y-46725375D01*
X90711232Y-46708576D01*
X90728031Y-46691777D01*
X90744830Y-46708576D01*
G37*
%TD.AperFunction*%
%TA.AperFunction,EtchedComponent*%
G36*
X107308586Y-91796936D02*
G01*
X107291787Y-91813735D01*
X107274988Y-91796936D01*
X107291787Y-91780137D01*
X107308586Y-91796936D01*
G37*
%TD.AperFunction*%
%TA.AperFunction,EtchedComponent*%
G36*
X109391655Y-56586354D02*
G01*
X109374856Y-56603153D01*
X109358057Y-56586354D01*
X109374856Y-56569555D01*
X109391655Y-56586354D01*
G37*
%TD.AperFunction*%
%TA.AperFunction,EtchedComponent*%
G36*
X109526046Y-44087941D02*
G01*
X109509248Y-44104740D01*
X109492449Y-44087941D01*
X109509248Y-44071142D01*
X109526046Y-44087941D01*
G37*
%TD.AperFunction*%
%TA.AperFunction,EtchedComponent*%
G36*
X111037951Y-60080534D02*
G01*
X111021152Y-60097333D01*
X111004353Y-60080534D01*
X111021152Y-60063735D01*
X111037951Y-60080534D01*
G37*
%TD.AperFunction*%
%TA.AperFunction,EtchedComponent*%
G36*
X117522343Y-66228947D02*
G01*
X117505544Y-66245746D01*
X117488745Y-66228947D01*
X117505544Y-66212148D01*
X117522343Y-66228947D01*
G37*
%TD.AperFunction*%
%TA.AperFunction,EtchedComponent*%
G36*
X117589539Y-66195349D02*
G01*
X117572740Y-66212148D01*
X117555941Y-66195349D01*
X117572740Y-66178550D01*
X117589539Y-66195349D01*
G37*
%TD.AperFunction*%
%TA.AperFunction,EtchedComponent*%
G36*
X117757528Y-66128153D02*
G01*
X117740729Y-66144952D01*
X117723930Y-66128153D01*
X117740729Y-66111354D01*
X117757528Y-66128153D01*
G37*
%TD.AperFunction*%
%TA.AperFunction,EtchedComponent*%
G36*
X119739803Y-91360164D02*
G01*
X119723004Y-91376963D01*
X119706205Y-91360164D01*
X119723004Y-91343365D01*
X119739803Y-91360164D01*
G37*
%TD.AperFunction*%
%TA.AperFunction,EtchedComponent*%
G36*
X121890068Y-26180269D02*
G01*
X121873269Y-26197068D01*
X121856470Y-26180269D01*
X121873269Y-26163471D01*
X121890068Y-26180269D01*
G37*
%TD.AperFunction*%
%TA.AperFunction,EtchedComponent*%
G36*
X123704353Y-44659105D02*
G01*
X123687554Y-44675904D01*
X123670755Y-44659105D01*
X123687554Y-44642307D01*
X123704353Y-44659105D01*
G37*
%TD.AperFunction*%
%TA.AperFunction,EtchedComponent*%
G36*
X126492978Y-24500375D02*
G01*
X126476179Y-24517174D01*
X126459380Y-24500375D01*
X126476179Y-24483576D01*
X126492978Y-24500375D01*
G37*
%TD.AperFunction*%
%TA.AperFunction,EtchedComponent*%
G36*
X126862554Y-45902227D02*
G01*
X126845755Y-45919026D01*
X126828957Y-45902227D01*
X126845755Y-45885428D01*
X126862554Y-45902227D01*
G37*
%TD.AperFunction*%
%TA.AperFunction,EtchedComponent*%
G36*
X109515400Y-45778335D02*
G01*
X109519405Y-45830844D01*
X109512747Y-45842731D01*
X109497477Y-45832711D01*
X109495101Y-45798634D01*
X109503306Y-45762784D01*
X109515400Y-45778335D01*
G37*
%TD.AperFunction*%
%TA.AperFunction,EtchedComponent*%
G36*
X128531249Y-35716469D02*
G01*
X128535270Y-35756342D01*
X128531249Y-35761266D01*
X128511275Y-35756654D01*
X128508851Y-35738867D01*
X128521144Y-35711212D01*
X128531249Y-35716469D01*
G37*
%TD.AperFunction*%
%TA.AperFunction,EtchedComponent*%
G36*
X109525070Y-45239038D02*
G01*
X109526046Y-45247068D01*
X109500479Y-45279690D01*
X109492449Y-45280666D01*
X109459827Y-45255099D01*
X109458851Y-45247068D01*
X109484418Y-45214447D01*
X109492449Y-45213471D01*
X109525070Y-45239038D01*
G37*
%TD.AperFunction*%
%TA.AperFunction,EtchedComponent*%
G36*
X103850399Y-51498774D02*
G01*
X103868707Y-51502334D01*
X103964151Y-51546261D01*
X104048900Y-51613131D01*
X104113561Y-51670612D01*
X104164888Y-51697577D01*
X104168437Y-51697862D01*
X104202753Y-51720460D01*
X104270384Y-51780010D01*
X104359005Y-51864150D01*
X104456290Y-51960514D01*
X104549913Y-52056740D01*
X104627549Y-52140462D01*
X104676871Y-52199317D01*
X104687951Y-52218987D01*
X104706063Y-52256345D01*
X104751348Y-52327691D01*
X104810229Y-52413586D01*
X104869129Y-52494590D01*
X104914471Y-52551261D01*
X104930163Y-52565807D01*
X104954417Y-52604460D01*
X104956734Y-52624970D01*
X104969757Y-52683206D01*
X105002588Y-52773916D01*
X105020215Y-52815358D01*
X105092064Y-52981624D01*
X105140277Y-53113138D01*
X105169146Y-53231744D01*
X105182961Y-53359287D01*
X105186014Y-53517612D01*
X105184208Y-53650124D01*
X105179174Y-53808079D01*
X105171193Y-53940001D01*
X105161358Y-54032248D01*
X105150756Y-54071179D01*
X105150571Y-54071303D01*
X105131934Y-54112986D01*
X105124724Y-54184948D01*
X105110743Y-54285591D01*
X105077067Y-54391745D01*
X105076542Y-54392952D01*
X105028432Y-54505714D01*
X104984867Y-54611302D01*
X104908229Y-54732241D01*
X104775086Y-54864109D01*
X104593782Y-55000242D01*
X104372665Y-55133976D01*
X104251179Y-55197170D01*
X104026563Y-55307202D01*
X103854556Y-55388854D01*
X103728338Y-55445114D01*
X103641092Y-55478968D01*
X103586000Y-55493404D01*
X103572724Y-55494423D01*
X103529179Y-55508113D01*
X103528824Y-55528021D01*
X103520944Y-55552643D01*
X103470662Y-55559708D01*
X103400288Y-55549768D01*
X103332131Y-55523375D01*
X103331733Y-55523145D01*
X103274497Y-55508413D01*
X103165992Y-55495712D01*
X103022145Y-55486456D01*
X102869848Y-55482169D01*
X102676985Y-55476947D01*
X102546157Y-55466500D01*
X102479354Y-55451031D01*
X102470576Y-55441226D01*
X102446156Y-55410428D01*
X103008057Y-55410428D01*
X103024856Y-55427227D01*
X103041655Y-55410428D01*
X103024856Y-55393629D01*
X103008057Y-55410428D01*
X102446156Y-55410428D01*
X102443922Y-55407611D01*
X102427458Y-55404829D01*
X102369094Y-55387238D01*
X102295216Y-55345599D01*
X102231045Y-55296608D01*
X102201802Y-55256963D01*
X102201708Y-55255374D01*
X102175866Y-55226654D01*
X102166857Y-55225640D01*
X102126258Y-55202666D01*
X102058296Y-55144540D01*
X101978953Y-55067452D01*
X101904214Y-54987593D01*
X101850062Y-54921154D01*
X101832131Y-54886578D01*
X101809559Y-54860495D01*
X102230743Y-54860495D01*
X102254583Y-54972034D01*
X102306616Y-55033315D01*
X102383949Y-55037871D01*
X102386496Y-55037105D01*
X102449100Y-55022667D01*
X102519791Y-55019707D01*
X102613939Y-55029583D01*
X102746912Y-55053655D01*
X102873666Y-55080183D01*
X103128191Y-55121962D01*
X103337400Y-55126332D01*
X103511931Y-55093096D01*
X103579221Y-55067078D01*
X103688832Y-55010714D01*
X103801547Y-54943121D01*
X103813806Y-54934982D01*
X103899602Y-54885109D01*
X103969625Y-54857813D01*
X103983178Y-54856063D01*
X104034958Y-54833020D01*
X104069498Y-54805666D01*
X104687951Y-54805666D01*
X104704750Y-54822465D01*
X104721549Y-54805666D01*
X104704750Y-54788867D01*
X104687951Y-54805666D01*
X104069498Y-54805666D01*
X104109226Y-54774203D01*
X104154074Y-54730071D01*
X104229868Y-54655980D01*
X104292307Y-54606151D01*
X104314541Y-54594926D01*
X104366579Y-54562820D01*
X104431918Y-54498977D01*
X104489524Y-54426996D01*
X104518365Y-54370475D01*
X104518900Y-54365656D01*
X104533654Y-54312379D01*
X104568120Y-54232368D01*
X104571697Y-54225115D01*
X104607617Y-54132971D01*
X104643190Y-54009008D01*
X104674248Y-53873225D01*
X104696625Y-53745621D01*
X104706154Y-53646196D01*
X104701811Y-53600598D01*
X104673204Y-53567952D01*
X104614549Y-53575762D01*
X104593697Y-53583244D01*
X104519944Y-53599591D01*
X104473050Y-53572311D01*
X104465390Y-53562516D01*
X104425657Y-53529323D01*
X104401520Y-53547120D01*
X104352825Y-53570596D01*
X104285541Y-53567737D01*
X104213316Y-53567018D01*
X104146505Y-53605546D01*
X104094762Y-53656746D01*
X104018707Y-53751053D01*
X103956541Y-53847520D01*
X103947602Y-53864926D01*
X103898423Y-53945823D01*
X103833227Y-54027594D01*
X103769145Y-54091026D01*
X103723305Y-54116905D01*
X103722927Y-54116910D01*
X103684322Y-54136921D01*
X103645596Y-54168049D01*
X103570774Y-54201748D01*
X103511392Y-54190446D01*
X103430149Y-54178993D01*
X103316546Y-54184602D01*
X103267407Y-54191928D01*
X103162945Y-54206831D01*
X103097111Y-54200158D01*
X103043467Y-54167131D01*
X103021676Y-54147520D01*
X102925036Y-54089567D01*
X102786137Y-54064953D01*
X102777506Y-54064472D01*
X102675498Y-54063385D01*
X102618533Y-54078752D01*
X102585024Y-54118329D01*
X102575953Y-54136880D01*
X102530901Y-54197528D01*
X102488010Y-54217703D01*
X102442839Y-54235622D01*
X102436893Y-54251301D01*
X102409680Y-54281109D01*
X102386496Y-54284899D01*
X102346405Y-54314813D01*
X102336099Y-54382893D01*
X102325302Y-54456755D01*
X102300660Y-54492700D01*
X102277682Y-54529742D01*
X102253989Y-54613925D01*
X102237991Y-54705168D01*
X102230743Y-54860495D01*
X101809559Y-54860495D01*
X101806473Y-54856929D01*
X101798533Y-54856063D01*
X101765909Y-54830709D01*
X101764935Y-54822757D01*
X101742879Y-54779722D01*
X101688141Y-54714524D01*
X101670667Y-54696765D01*
X101590435Y-54604147D01*
X101514091Y-54495259D01*
X101502746Y-54476284D01*
X101447543Y-54331875D01*
X101415702Y-54143823D01*
X101407047Y-53931423D01*
X101421403Y-53713969D01*
X101458592Y-53510758D01*
X101513011Y-53352558D01*
X101564266Y-53239744D01*
X101611266Y-53134172D01*
X101680228Y-52979152D01*
X101729554Y-52875846D01*
X101765536Y-52813973D01*
X101794465Y-52783255D01*
X101822635Y-52773414D01*
X101832365Y-52772994D01*
X101893861Y-52799187D01*
X101912549Y-52826185D01*
X101950274Y-52865002D01*
X101974640Y-52865483D01*
X102035335Y-52874169D01*
X102079367Y-52928103D01*
X102090925Y-53005343D01*
X102087752Y-53022451D01*
X102088907Y-53126740D01*
X102130126Y-53245341D01*
X102199438Y-53360167D01*
X102284876Y-53453129D01*
X102374472Y-53506140D01*
X102411770Y-53512148D01*
X102487068Y-53524458D01*
X102522568Y-53543321D01*
X102571520Y-53552064D01*
X102647289Y-53534032D01*
X102722185Y-53499927D01*
X102768514Y-53460454D01*
X102772872Y-53446574D01*
X102800907Y-53417681D01*
X102838085Y-53411354D01*
X102903161Y-53394814D01*
X102925478Y-53375466D01*
X102971048Y-53354531D01*
X103000370Y-53359805D01*
X103060453Y-53355631D01*
X103081649Y-53336897D01*
X103112851Y-53319151D01*
X103159229Y-53353503D01*
X103180091Y-53377230D01*
X103249965Y-53460699D01*
X103263510Y-53444952D01*
X104452766Y-53444952D01*
X104465059Y-53472607D01*
X104475165Y-53467351D01*
X104479186Y-53427478D01*
X104475165Y-53422553D01*
X104455191Y-53427165D01*
X104452766Y-53444952D01*
X103263510Y-53444952D01*
X103328987Y-53368831D01*
X103388078Y-53307853D01*
X103430745Y-53277222D01*
X103434819Y-53276397D01*
X103471368Y-53253943D01*
X103537369Y-53196653D01*
X103593526Y-53142006D01*
X103670561Y-53068493D01*
X103730284Y-53019885D01*
X103753115Y-53008180D01*
X103775854Y-52980076D01*
X103780808Y-52942967D01*
X103797440Y-52877828D01*
X103816886Y-52855457D01*
X103840272Y-52807104D01*
X103844593Y-52716900D01*
X103833381Y-52603909D01*
X103810168Y-52487193D01*
X103778487Y-52385816D01*
X103741871Y-52318842D01*
X103714444Y-52302624D01*
X103688340Y-52273939D01*
X103680015Y-52220612D01*
X103667627Y-52149472D01*
X103646417Y-52117836D01*
X103618192Y-52070447D01*
X103612819Y-52031858D01*
X103599918Y-51978325D01*
X103582863Y-51966645D01*
X103552777Y-51938301D01*
X103533147Y-51887913D01*
X103495521Y-51808958D01*
X103432282Y-51728084D01*
X103430927Y-51726720D01*
X103381776Y-51662248D01*
X103369389Y-51612306D01*
X103371450Y-51607675D01*
X103422951Y-51572529D01*
X103519091Y-51539300D01*
X103637376Y-51512755D01*
X103755311Y-51497657D01*
X103850399Y-51498774D01*
G37*
%TD.AperFunction*%
%TA.AperFunction,EtchedComponent*%
G36*
X117825799Y-49377273D02*
G01*
X117849743Y-49382304D01*
X117973096Y-49402968D01*
X118096606Y-49412373D01*
X118099923Y-49412404D01*
X118185807Y-49420266D01*
X118238332Y-49438614D01*
X118242303Y-49442930D01*
X118285909Y-49470606D01*
X118353479Y-49490582D01*
X118472361Y-49515913D01*
X118601190Y-49546911D01*
X118715904Y-49577451D01*
X118792440Y-49601406D01*
X118799062Y-49604020D01*
X118938657Y-49658005D01*
X119059193Y-49696777D01*
X119146650Y-49716418D01*
X119187005Y-49713005D01*
X119187309Y-49712560D01*
X119231856Y-49703724D01*
X119332195Y-49728487D01*
X119486340Y-49786142D01*
X119692304Y-49875978D01*
X119842607Y-49946311D01*
X119959460Y-49998447D01*
X120058496Y-50036093D01*
X120119249Y-50051516D01*
X120121150Y-50051566D01*
X120186385Y-50070686D01*
X120268044Y-50117337D01*
X120276598Y-50123504D01*
X120372881Y-50174319D01*
X120479261Y-50178090D01*
X120496707Y-50175512D01*
X120562795Y-50169010D01*
X120617258Y-50180644D01*
X120676985Y-50219382D01*
X120758865Y-50294191D01*
X120804161Y-50338760D01*
X120894467Y-50426015D01*
X120966692Y-50491488D01*
X121007677Y-50523356D01*
X121011064Y-50524671D01*
X121042026Y-50550050D01*
X121102439Y-50614211D01*
X121179597Y-50703611D01*
X121184512Y-50709519D01*
X121292820Y-50838895D01*
X121413195Y-50981093D01*
X121489593Y-51070424D01*
X121651224Y-51270558D01*
X121781258Y-51456898D01*
X121870973Y-51616631D01*
X121888090Y-51655865D01*
X121924153Y-51728611D01*
X121955451Y-51764314D01*
X121958908Y-51765058D01*
X121997384Y-51795814D01*
X122045934Y-51879895D01*
X122100107Y-52005016D01*
X122155451Y-52158897D01*
X122207514Y-52329254D01*
X122251843Y-52503805D01*
X122281623Y-52655402D01*
X122314713Y-52932894D01*
X122333028Y-53253184D01*
X122336775Y-53594453D01*
X122326163Y-53934880D01*
X122301401Y-54252648D01*
X122263785Y-54520084D01*
X122237657Y-54663186D01*
X122206266Y-54837281D01*
X122175954Y-55007175D01*
X122172966Y-55024053D01*
X122143617Y-55178081D01*
X122111664Y-55327280D01*
X122083156Y-55443725D01*
X122078342Y-55460825D01*
X122026905Y-55632545D01*
X121975235Y-55797079D01*
X121927579Y-55941708D01*
X121888187Y-56053715D01*
X121861308Y-56120382D01*
X121853838Y-56132783D01*
X121820936Y-56180480D01*
X121779242Y-56262577D01*
X121742051Y-56350022D01*
X121722655Y-56413766D01*
X121722078Y-56420727D01*
X121705364Y-56468101D01*
X121696880Y-56474361D01*
X121656060Y-56515189D01*
X121596215Y-56602709D01*
X121525986Y-56722374D01*
X121454014Y-56859640D01*
X121400819Y-56972730D01*
X121346406Y-57088304D01*
X121296366Y-57182484D01*
X121261415Y-57235117D01*
X121261084Y-57235463D01*
X121220530Y-57301176D01*
X121195985Y-57369854D01*
X121153661Y-57460529D01*
X121098897Y-57527095D01*
X121035376Y-57602632D01*
X121001204Y-57669922D01*
X120955838Y-57745514D01*
X120913454Y-57780297D01*
X120861106Y-57828506D01*
X120848533Y-57864256D01*
X120831717Y-57908227D01*
X120818081Y-57913471D01*
X120799859Y-57939878D01*
X120803438Y-57973928D01*
X120791835Y-58041138D01*
X120739085Y-58116719D01*
X120679131Y-58180056D01*
X120590661Y-58275596D01*
X120490090Y-58385576D01*
X120461183Y-58417439D01*
X120292823Y-58587373D01*
X120115622Y-58729728D01*
X119906112Y-58862430D01*
X119805817Y-58917999D01*
X119707902Y-58972568D01*
X119629347Y-59019763D01*
X119605412Y-59035881D01*
X119517713Y-59087998D01*
X119392164Y-59147758D01*
X119252385Y-59205475D01*
X119121993Y-59251465D01*
X119024609Y-59276043D01*
X119017449Y-59276966D01*
X118941139Y-59296802D01*
X118842584Y-59335580D01*
X118791119Y-59360632D01*
X118720886Y-59387218D01*
X118690325Y-59391764D01*
X118640684Y-59405659D01*
X118550071Y-59442226D01*
X118437457Y-59493766D01*
X118429486Y-59497617D01*
X118310943Y-59554362D01*
X118208692Y-59602041D01*
X118144558Y-59630477D01*
X118143904Y-59630744D01*
X118023872Y-59665457D01*
X117857237Y-59694870D01*
X117664542Y-59716288D01*
X117466327Y-59727019D01*
X117404179Y-59727756D01*
X117274577Y-59730246D01*
X117172222Y-59736861D01*
X117114570Y-59746324D01*
X117108727Y-59749397D01*
X117060409Y-59765163D01*
X116966504Y-59775540D01*
X116848422Y-59780305D01*
X116727572Y-59779237D01*
X116625365Y-59772114D01*
X116563209Y-59758717D01*
X116557264Y-59755097D01*
X116520853Y-59737590D01*
X116514406Y-59757240D01*
X116485681Y-59785579D01*
X116430412Y-59794952D01*
X116367271Y-59783451D01*
X116346417Y-59761354D01*
X116315846Y-59743417D01*
X116236131Y-59731270D01*
X116146812Y-59727756D01*
X116036752Y-59722487D01*
X115955879Y-59708831D01*
X115926367Y-59694035D01*
X115885318Y-59677359D01*
X116413613Y-59677359D01*
X116430412Y-59694158D01*
X116447210Y-59677359D01*
X116430412Y-59660560D01*
X116413613Y-59677359D01*
X115885318Y-59677359D01*
X115882002Y-59676012D01*
X115820604Y-59681628D01*
X115725886Y-59684795D01*
X115581875Y-59658184D01*
X115385883Y-59601059D01*
X115135222Y-59512688D01*
X114968904Y-59448858D01*
X114816880Y-59389680D01*
X114644147Y-59323199D01*
X114516109Y-59274433D01*
X114397486Y-59227711D01*
X114302488Y-59186897D01*
X114249808Y-59160068D01*
X114247326Y-59158260D01*
X114191852Y-59132105D01*
X114108298Y-59108403D01*
X114008475Y-59070694D01*
X113933314Y-59020528D01*
X113869779Y-58972495D01*
X113825739Y-58955005D01*
X113774750Y-58934836D01*
X113692391Y-58883195D01*
X113597399Y-58813382D01*
X113508510Y-58738695D01*
X113473489Y-58704993D01*
X113344647Y-58536938D01*
X113282002Y-58363976D01*
X113275267Y-58292883D01*
X113263942Y-58193270D01*
X113236977Y-58149876D01*
X113230213Y-58148664D01*
X113192750Y-58121688D01*
X113188216Y-58099568D01*
X113165847Y-58039748D01*
X113126987Y-57990375D01*
X113068009Y-57923272D01*
X113032000Y-57875954D01*
X118040399Y-57875954D01*
X118080461Y-57871021D01*
X118127105Y-57846275D01*
X118158590Y-57820182D01*
X118128328Y-57813305D01*
X118120688Y-57813191D01*
X118059939Y-57830312D01*
X118043110Y-57846275D01*
X118040399Y-57875954D01*
X113032000Y-57875954D01*
X112999491Y-57833234D01*
X112985109Y-57812677D01*
X112918359Y-57720635D01*
X112855582Y-57642165D01*
X112844751Y-57629953D01*
X112799640Y-57569483D01*
X112785041Y-57532328D01*
X112767196Y-57491126D01*
X112719773Y-57410357D01*
X112651937Y-57305357D01*
X112629931Y-57272824D01*
X112621567Y-57258312D01*
X112717845Y-57258312D01*
X112734644Y-57275111D01*
X112751443Y-57258312D01*
X112734644Y-57241513D01*
X112717845Y-57258312D01*
X112621567Y-57258312D01*
X112500115Y-57047591D01*
X112417546Y-56813618D01*
X112413937Y-56799284D01*
X112402297Y-56754344D01*
X114196152Y-56754344D01*
X114212951Y-56771142D01*
X114229750Y-56754344D01*
X114212951Y-56737545D01*
X114196152Y-56754344D01*
X112402297Y-56754344D01*
X112370770Y-56632626D01*
X112320398Y-56449778D01*
X112281849Y-56317571D01*
X112219491Y-56110225D01*
X112173219Y-55949914D01*
X112139348Y-55819452D01*
X112114196Y-55701655D01*
X112094077Y-55579335D01*
X112075309Y-55435307D01*
X112054980Y-55259238D01*
X112044746Y-55134190D01*
X113129828Y-55134190D01*
X113136010Y-55155517D01*
X113169243Y-55190000D01*
X113186017Y-55159362D01*
X113188216Y-55118127D01*
X113179984Y-55069383D01*
X113151606Y-55080827D01*
X113150826Y-55081601D01*
X113129828Y-55134190D01*
X112044746Y-55134190D01*
X112043131Y-55114454D01*
X112037406Y-54962997D01*
X112037489Y-54906460D01*
X112039853Y-54787373D01*
X112042861Y-54633435D01*
X112045881Y-54476977D01*
X112046021Y-54469687D01*
X112055177Y-54315869D01*
X112074405Y-54164773D01*
X112099662Y-54047633D01*
X112101374Y-54042069D01*
X112126929Y-53944066D01*
X112135906Y-53871975D01*
X112132390Y-53852185D01*
X112131222Y-53807613D01*
X112144054Y-53717170D01*
X112166944Y-53599744D01*
X112195955Y-53474221D01*
X112227145Y-53359486D01*
X112248888Y-53293762D01*
X112269205Y-53225125D01*
X112295686Y-53117256D01*
X112315937Y-53024978D01*
X112317949Y-53016148D01*
X113557792Y-53016148D01*
X113585472Y-53046877D01*
X113641787Y-53075375D01*
X113704084Y-53110308D01*
X113725782Y-53141289D01*
X113753742Y-53175247D01*
X113822669Y-53215385D01*
X113839247Y-53222676D01*
X113932443Y-53286156D01*
X114051370Y-53408633D01*
X114165928Y-53550706D01*
X114281205Y-53698146D01*
X114407467Y-53852883D01*
X114523804Y-53989505D01*
X114564831Y-54035541D01*
X114672170Y-54157071D01*
X114780828Y-54285984D01*
X114880879Y-54409815D01*
X114962395Y-54516100D01*
X115015448Y-54592375D01*
X115029741Y-54619267D01*
X115011634Y-54655616D01*
X114962546Y-54690581D01*
X114660396Y-54885324D01*
X114386982Y-55135975D01*
X114326874Y-55203451D01*
X114214023Y-55333516D01*
X114096474Y-55466245D01*
X113995235Y-55577979D01*
X113972323Y-55602654D01*
X113891017Y-55694112D01*
X113848566Y-55760670D01*
X113835205Y-55823806D01*
X113839815Y-55894099D01*
X113891487Y-56085763D01*
X114002997Y-56285649D01*
X114063893Y-56367968D01*
X114140326Y-56475117D01*
X114209814Y-56588128D01*
X114219902Y-56606784D01*
X114269101Y-56679196D01*
X114354289Y-56783407D01*
X114462926Y-56904740D01*
X114567337Y-57013392D01*
X114722325Y-57162262D01*
X114851285Y-57268858D01*
X114968868Y-57344394D01*
X115052898Y-57385071D01*
X115204357Y-57447820D01*
X115313816Y-57481915D01*
X115400711Y-57485924D01*
X115484476Y-57458415D01*
X115584547Y-57397954D01*
X115668399Y-57339704D01*
X115782894Y-57255752D01*
X115878924Y-57179342D01*
X115940620Y-57123311D01*
X115951047Y-57111057D01*
X116000196Y-57063545D01*
X116088046Y-56996267D01*
X116195226Y-56924020D01*
X116333183Y-56830628D01*
X116479667Y-56722147D01*
X116572108Y-56647767D01*
X116747402Y-56499034D01*
X116807293Y-56572582D01*
X116869846Y-56647511D01*
X116946021Y-56736413D01*
X116958397Y-56750634D01*
X117043979Y-56849028D01*
X117129843Y-56948236D01*
X117136477Y-56955931D01*
X117199367Y-57039331D01*
X117275539Y-57154829D01*
X117337511Y-57258440D01*
X117486100Y-57477362D01*
X117648036Y-57635201D01*
X117820375Y-57730580D01*
X118000174Y-57762123D01*
X118183227Y-57728682D01*
X120814935Y-57728682D01*
X120831734Y-57745481D01*
X120848533Y-57728682D01*
X120831734Y-57711883D01*
X120814935Y-57728682D01*
X118183227Y-57728682D01*
X118184486Y-57728452D01*
X118266291Y-57692605D01*
X118359867Y-57633991D01*
X118433014Y-57573963D01*
X118499298Y-57511347D01*
X118603876Y-57416696D01*
X118733755Y-57301388D01*
X118875942Y-57176802D01*
X119017444Y-57054316D01*
X119145267Y-56945310D01*
X119246417Y-56861162D01*
X119253842Y-56855137D01*
X119465081Y-56674952D01*
X119623345Y-56517448D01*
X119735457Y-56374657D01*
X119808238Y-56238607D01*
X119827752Y-56184654D01*
X119862518Y-56046259D01*
X119862398Y-55963010D01*
X119855829Y-55949444D01*
X119611314Y-55612016D01*
X121957263Y-55612016D01*
X121974062Y-55628814D01*
X121990861Y-55612016D01*
X121974062Y-55595217D01*
X121957263Y-55612016D01*
X119611314Y-55612016D01*
X119582341Y-55572034D01*
X119345096Y-55250517D01*
X119161020Y-55007254D01*
X120210173Y-55007254D01*
X120228315Y-55051965D01*
X120243771Y-55057650D01*
X120273579Y-55030438D01*
X120277369Y-55007254D01*
X120259227Y-54962543D01*
X120243771Y-54956857D01*
X120213964Y-54984070D01*
X120210173Y-55007254D01*
X119161020Y-55007254D01*
X119143745Y-54984424D01*
X119009049Y-54812113D01*
X118913015Y-54688668D01*
X118834916Y-54582716D01*
X118783143Y-54506027D01*
X118765979Y-54471248D01*
X118787045Y-54405646D01*
X118854260Y-54345609D01*
X118976762Y-54283577D01*
X119009114Y-54270098D01*
X119074680Y-54241832D01*
X119137565Y-54209699D01*
X119205337Y-54168036D01*
X119285566Y-54111182D01*
X119299849Y-54100111D01*
X122226046Y-54100111D01*
X122242845Y-54116910D01*
X122259644Y-54100111D01*
X122242845Y-54083312D01*
X122226046Y-54100111D01*
X119299849Y-54100111D01*
X119385819Y-54033476D01*
X119513667Y-53929257D01*
X119676677Y-53792864D01*
X119882420Y-53618635D01*
X119899515Y-53604114D01*
X120033075Y-53491716D01*
X120153202Y-53392590D01*
X120248143Y-53316297D01*
X120306148Y-53272396D01*
X120312109Y-53268453D01*
X120359502Y-53229458D01*
X120371539Y-53184145D01*
X120344993Y-53120118D01*
X120276637Y-53024982D01*
X120235372Y-52973609D01*
X120151458Y-52868144D01*
X120077011Y-52770079D01*
X120034650Y-52710209D01*
X119959361Y-52596323D01*
X119905614Y-52518751D01*
X119858721Y-52457214D01*
X119803996Y-52391433D01*
X119802533Y-52389715D01*
X119728980Y-52285970D01*
X119665493Y-52168913D01*
X119659301Y-52154674D01*
X119621658Y-52079352D01*
X119591237Y-52043812D01*
X119583460Y-52044593D01*
X119556778Y-52031339D01*
X119514488Y-51973141D01*
X119496035Y-51940558D01*
X119424406Y-51835116D01*
X119332824Y-51735445D01*
X119315257Y-51720037D01*
X119229977Y-51635878D01*
X119161505Y-51546422D01*
X119150276Y-51526849D01*
X119099071Y-51459324D01*
X119044281Y-51429651D01*
X119041784Y-51429585D01*
X118934888Y-51447874D01*
X118817890Y-51492597D01*
X118719531Y-51550952D01*
X118678214Y-51591522D01*
X118626058Y-51646486D01*
X118587170Y-51664801D01*
X118539296Y-51685865D01*
X118465808Y-51738288D01*
X118433332Y-51765594D01*
X118359240Y-51826088D01*
X118304974Y-51861776D01*
X118292805Y-51865851D01*
X118261710Y-51893279D01*
X118246809Y-51926395D01*
X118208980Y-51967925D01*
X118124105Y-52026609D01*
X118006776Y-52092840D01*
X117953426Y-52119582D01*
X117811337Y-52194835D01*
X117639194Y-52295739D01*
X117460882Y-52407877D01*
X117330094Y-52495812D01*
X117197691Y-52587684D01*
X117086783Y-52663703D01*
X117008083Y-52716595D01*
X116972304Y-52739085D01*
X116971373Y-52739396D01*
X116956747Y-52710704D01*
X116932006Y-52639176D01*
X116923709Y-52612209D01*
X116882289Y-52510152D01*
X116830686Y-52426627D01*
X116823420Y-52418277D01*
X116767971Y-52351519D01*
X116698930Y-52258687D01*
X116627746Y-52156571D01*
X116565867Y-52061960D01*
X116524743Y-51991644D01*
X116514406Y-51965139D01*
X116486743Y-51934106D01*
X116447210Y-51916248D01*
X116392685Y-51876795D01*
X116380015Y-51841849D01*
X116359818Y-51787416D01*
X116307992Y-51704913D01*
X116263617Y-51646729D01*
X116188585Y-51547711D01*
X116127075Y-51453657D01*
X116106072Y-51414372D01*
X116035005Y-51331569D01*
X115970485Y-51305176D01*
X115902650Y-51282613D01*
X115876046Y-51256890D01*
X115850182Y-51228509D01*
X115841078Y-51227492D01*
X115801624Y-51247423D01*
X115717489Y-51303280D01*
X115596578Y-51389162D01*
X115446798Y-51499166D01*
X115276056Y-51627388D01*
X115092258Y-51767927D01*
X114903312Y-51914879D01*
X114717124Y-52062342D01*
X114643138Y-52121807D01*
X114490572Y-52242588D01*
X114333473Y-52362862D01*
X114191049Y-52468149D01*
X114088772Y-52539804D01*
X113972971Y-52622832D01*
X113852086Y-52718901D01*
X113738130Y-52817233D01*
X113643116Y-52907053D01*
X113579059Y-52977581D01*
X113557792Y-53016148D01*
X112317949Y-53016148D01*
X112354699Y-52854825D01*
X112396700Y-52697274D01*
X112437416Y-52567337D01*
X112472325Y-52480025D01*
X112487517Y-52455494D01*
X112512622Y-52396488D01*
X112516258Y-52363100D01*
X112529803Y-52312235D01*
X112545656Y-52302624D01*
X112571841Y-52273547D01*
X112594925Y-52203153D01*
X112595779Y-52199003D01*
X112631277Y-52095653D01*
X112683973Y-52000628D01*
X112730201Y-51922296D01*
X112751311Y-51860056D01*
X112751443Y-51856796D01*
X112770242Y-51795285D01*
X112810240Y-51727591D01*
X112866819Y-51642721D01*
X112927198Y-51541460D01*
X112933631Y-51529873D01*
X112985316Y-51455369D01*
X113071512Y-51351111D01*
X113178077Y-51233687D01*
X113244411Y-51165316D01*
X113346368Y-51061525D01*
X113427733Y-50975819D01*
X113478536Y-50918876D01*
X113490597Y-50901613D01*
X113513104Y-50870870D01*
X113569815Y-50813033D01*
X113599790Y-50784960D01*
X113687716Y-50704026D01*
X113794893Y-50604728D01*
X113859380Y-50544694D01*
X113966768Y-50457080D01*
X114081125Y-50382722D01*
X114144962Y-50351373D01*
X114226227Y-50309616D01*
X114268413Y-50267927D01*
X114270374Y-50254857D01*
X114283486Y-50226176D01*
X114313096Y-50231456D01*
X114369031Y-50229721D01*
X114461937Y-50207248D01*
X114568096Y-50172143D01*
X114663791Y-50132515D01*
X114725304Y-50096470D01*
X114733402Y-50087786D01*
X114772506Y-50062933D01*
X114854216Y-50026926D01*
X114918507Y-50002732D01*
X114922586Y-50001169D01*
X119739803Y-50001169D01*
X119756602Y-50017968D01*
X119773401Y-50001169D01*
X119756602Y-49984370D01*
X119739803Y-50001169D01*
X114922586Y-50001169D01*
X115150121Y-49913980D01*
X115360929Y-49820717D01*
X115380022Y-49811437D01*
X115451036Y-49786696D01*
X115480815Y-49782576D01*
X115538659Y-49767783D01*
X115619068Y-49732406D01*
X115620639Y-49731589D01*
X115738055Y-49686588D01*
X115915375Y-49641316D01*
X116145333Y-49597319D01*
X116420662Y-49556147D01*
X116480808Y-49548353D01*
X116643935Y-49524891D01*
X116803454Y-49497167D01*
X116932745Y-49469960D01*
X116967978Y-49460873D01*
X117085543Y-49437319D01*
X117239117Y-49419073D01*
X117397537Y-49409733D01*
X117413686Y-49409407D01*
X117543346Y-49404463D01*
X117644947Y-49395122D01*
X117701611Y-49383130D01*
X117707488Y-49379030D01*
X117747221Y-49369205D01*
X117825799Y-49377273D01*
G37*
%TD.AperFunction*%
%TA.AperFunction,EtchedComponent*%
G36*
X96369396Y-22787110D02*
G01*
X96475307Y-22830649D01*
X96577366Y-22891399D01*
X96624116Y-22928917D01*
X96693351Y-22981447D01*
X96747682Y-23005157D01*
X96750108Y-23005269D01*
X96789382Y-23026346D01*
X96792449Y-23038867D01*
X96819661Y-23068675D01*
X96842845Y-23072465D01*
X96887556Y-23090607D01*
X96893242Y-23106063D01*
X96921165Y-23134012D01*
X96955750Y-23139661D01*
X97021122Y-23157820D01*
X97110185Y-23203350D01*
X97142692Y-23224105D01*
X97248346Y-23289184D01*
X97353531Y-23344167D01*
X97374166Y-23353292D01*
X97462272Y-23400548D01*
X97526352Y-23452491D01*
X97527316Y-23453636D01*
X97585169Y-23499163D01*
X97620418Y-23509238D01*
X97669887Y-23523129D01*
X97759546Y-23558839D01*
X97869917Y-23607419D01*
X97981517Y-23659922D01*
X98074868Y-23707400D01*
X98130488Y-23740906D01*
X98136364Y-23746222D01*
X98170004Y-23774485D01*
X98242958Y-23830564D01*
X98340114Y-23902867D01*
X98350407Y-23910418D01*
X98442100Y-23977818D01*
X98513693Y-24031993D01*
X98577348Y-24083419D01*
X98645229Y-24142575D01*
X98729498Y-24219937D01*
X98842318Y-24325983D01*
X98939566Y-24417950D01*
X99053470Y-24523444D01*
X99150731Y-24609295D01*
X99220552Y-24666246D01*
X99251373Y-24685164D01*
X99289242Y-24708392D01*
X99351391Y-24767198D01*
X99383993Y-24802756D01*
X99453479Y-24872984D01*
X99510187Y-24915028D01*
X99526517Y-24920349D01*
X99569144Y-24944011D01*
X99635752Y-25004644D01*
X99681867Y-25054740D01*
X99753513Y-25130558D01*
X99811402Y-25179292D01*
X99833055Y-25189132D01*
X99872993Y-25210495D01*
X99946908Y-25267051D01*
X100040261Y-25347503D01*
X100060043Y-25365521D01*
X100175760Y-25470106D01*
X100293650Y-25573785D01*
X100386864Y-25653000D01*
X100463816Y-25724851D01*
X100512680Y-25786821D01*
X100521814Y-25811408D01*
X100548235Y-25865154D01*
X100580610Y-25890550D01*
X100630391Y-25927554D01*
X100713046Y-25999160D01*
X100813922Y-26092467D01*
X100857029Y-26133886D01*
X100962787Y-26239842D01*
X101027762Y-26316235D01*
X101061535Y-26377985D01*
X101073685Y-26440013D01*
X101074652Y-26472821D01*
X101086434Y-26555022D01*
X101114364Y-26600126D01*
X101147312Y-26597565D01*
X101167624Y-26561093D01*
X101193333Y-26570237D01*
X101253853Y-26616897D01*
X101337570Y-26690006D01*
X101432875Y-26778495D01*
X101528156Y-26871296D01*
X101611802Y-26957343D01*
X101672202Y-27025566D01*
X101697745Y-27064899D01*
X101697937Y-27066587D01*
X101719473Y-27098620D01*
X101777172Y-27167595D01*
X101860939Y-27261712D01*
X101916323Y-27321913D01*
X102010434Y-27425323D01*
X102084154Y-27510636D01*
X102127384Y-27565934D01*
X102134512Y-27579419D01*
X102155500Y-27614665D01*
X102209867Y-27682341D01*
X102268005Y-27748093D01*
X102340265Y-27833299D01*
X102389108Y-27903038D01*
X102402397Y-27934577D01*
X102429623Y-27981194D01*
X102470491Y-28011354D01*
X102523956Y-28058509D01*
X102537687Y-28094131D01*
X102559760Y-28152749D01*
X102596483Y-28199879D01*
X102642509Y-28265964D01*
X102655324Y-28311472D01*
X102676735Y-28357551D01*
X102696674Y-28364132D01*
X102743937Y-28389249D01*
X102795470Y-28446211D01*
X102843399Y-28505803D01*
X102924747Y-28598217D01*
X103025941Y-28708247D01*
X103085522Y-28771162D01*
X103235930Y-28933192D01*
X103365094Y-29085404D01*
X103482767Y-29241674D01*
X103598701Y-29415880D01*
X103722645Y-29621896D01*
X103864353Y-29873599D01*
X103879081Y-29900369D01*
X104049806Y-30206581D01*
X104198789Y-30464272D01*
X104324017Y-30670092D01*
X104423476Y-30820691D01*
X104470602Y-30883973D01*
X104528416Y-30963692D01*
X104579861Y-31043563D01*
X104625578Y-31107522D01*
X104660445Y-31135877D01*
X104661597Y-31135957D01*
X104682792Y-31164249D01*
X104687951Y-31205395D01*
X104707617Y-31276576D01*
X104756194Y-31364039D01*
X104768979Y-31381784D01*
X104817851Y-31456942D01*
X104876603Y-31562067D01*
X104935789Y-31678132D01*
X104985962Y-31786111D01*
X105017678Y-31866975D01*
X105023930Y-31895336D01*
X105040600Y-31933246D01*
X105085037Y-32013047D01*
X105148882Y-32119972D01*
X105175121Y-32162443D01*
X105244503Y-32279625D01*
X105297112Y-32379644D01*
X105324353Y-32445739D01*
X105326311Y-32457261D01*
X105345364Y-32516099D01*
X105359909Y-32530269D01*
X105382630Y-32574946D01*
X105393376Y-32656364D01*
X105393507Y-32666644D01*
X105404827Y-32752829D01*
X105440747Y-32782155D01*
X105443904Y-32782254D01*
X105488595Y-32801664D01*
X105494300Y-32818251D01*
X105515913Y-32869369D01*
X105544697Y-32904646D01*
X105586257Y-32978856D01*
X105595094Y-33029918D01*
X105607354Y-33103885D01*
X105624562Y-33136711D01*
X105650856Y-33184826D01*
X105686774Y-33274159D01*
X105711126Y-33344623D01*
X105747467Y-33445122D01*
X105780225Y-33516461D01*
X105795874Y-33537707D01*
X105818880Y-33577733D01*
X105847492Y-33661438D01*
X105864153Y-33724142D01*
X105896005Y-33830533D01*
X105931890Y-33912886D01*
X105949556Y-33938265D01*
X105975834Y-33985474D01*
X106017374Y-34084268D01*
X106069805Y-34221967D01*
X106128757Y-34385890D01*
X106189860Y-34563358D01*
X106248744Y-34741692D01*
X106301038Y-34908212D01*
X106342373Y-35050238D01*
X106367504Y-35150904D01*
X106395261Y-35267556D01*
X106424709Y-35369767D01*
X106436425Y-35402889D01*
X106469835Y-35486883D01*
X107065600Y-35492307D01*
X107278600Y-35495423D01*
X107486393Y-35500569D01*
X107672137Y-35507178D01*
X107818996Y-35514684D01*
X107888150Y-35520018D01*
X108025749Y-35528681D01*
X108099870Y-35521196D01*
X108114935Y-35506195D01*
X108142108Y-35474173D01*
X108165332Y-35470084D01*
X108210006Y-35490532D01*
X108215729Y-35508052D01*
X108244105Y-35529885D01*
X108314971Y-35533794D01*
X108406934Y-35522693D01*
X108498601Y-35499494D01*
X108568578Y-35467111D01*
X108579533Y-35458509D01*
X108613099Y-35437342D01*
X108665887Y-35423294D01*
X108748927Y-35415526D01*
X108873248Y-35413202D01*
X109049880Y-35415485D01*
X109124136Y-35417170D01*
X109308696Y-35422651D01*
X109478705Y-35429532D01*
X109618205Y-35437039D01*
X109711239Y-35444399D01*
X109727634Y-35446452D01*
X109811258Y-35455806D01*
X109941261Y-35466833D01*
X110096906Y-35477875D01*
X110198004Y-35484047D01*
X110461560Y-35501466D01*
X110724440Y-35523198D01*
X110971804Y-35547711D01*
X111188812Y-35573470D01*
X111360625Y-35598943D01*
X111422603Y-35610600D01*
X111539863Y-35628662D01*
X111693899Y-35643843D01*
X111854292Y-35653244D01*
X111877898Y-35654001D01*
X112014994Y-35659799D01*
X112129620Y-35668265D01*
X112202504Y-35677855D01*
X112213877Y-35680914D01*
X112267565Y-35691096D01*
X112371175Y-35703120D01*
X112507536Y-35715168D01*
X112600253Y-35721804D01*
X112763619Y-35733094D01*
X112919871Y-35744973D01*
X113044918Y-35755569D01*
X113087422Y-35759715D01*
X113232728Y-35774698D01*
X113324348Y-35780841D01*
X113375467Y-35775932D01*
X113399266Y-35757758D01*
X113408929Y-35724108D01*
X113411874Y-35705269D01*
X113434786Y-35607140D01*
X113470668Y-35501720D01*
X113511239Y-35408832D01*
X113548216Y-35348300D01*
X113566276Y-35335693D01*
X113585544Y-35309001D01*
X113581655Y-35268497D01*
X113582871Y-35213651D01*
X113602935Y-35200002D01*
X113640213Y-35173170D01*
X113701670Y-35104240D01*
X113776364Y-35008397D01*
X113853351Y-34900831D01*
X113921690Y-34796727D01*
X113970436Y-34711273D01*
X113988183Y-34665346D01*
X114021618Y-34589634D01*
X114046979Y-34561267D01*
X114088172Y-34511495D01*
X114095359Y-34488455D01*
X114112920Y-34446003D01*
X114158470Y-34367605D01*
X114221305Y-34269142D01*
X114290722Y-34166490D01*
X114356019Y-34075531D01*
X114406492Y-34012143D01*
X114430130Y-33991777D01*
X114460228Y-33965136D01*
X114500185Y-33900901D01*
X114500966Y-33899383D01*
X114559630Y-33803857D01*
X114621075Y-33722994D01*
X114669425Y-33665873D01*
X114749859Y-33569477D01*
X114851844Y-33446482D01*
X114964845Y-33309564D01*
X114984059Y-33286222D01*
X115099832Y-33146141D01*
X115208370Y-33015945D01*
X115298431Y-32909042D01*
X115358775Y-32838842D01*
X115364261Y-32832650D01*
X115494495Y-32680060D01*
X115647692Y-32489466D01*
X115717443Y-32399696D01*
X115792118Y-32311281D01*
X115867305Y-32234358D01*
X115867647Y-32234048D01*
X115921774Y-32174202D01*
X115943808Y-32129435D01*
X115966413Y-32087417D01*
X116023887Y-32017942D01*
X116074457Y-31965319D01*
X116171643Y-31863012D01*
X116175756Y-31858312D01*
X116245623Y-31858312D01*
X116262422Y-31875111D01*
X116279221Y-31858312D01*
X116262422Y-31841513D01*
X116245623Y-31858312D01*
X116175756Y-31858312D01*
X116278094Y-31741372D01*
X116334276Y-31672685D01*
X116408724Y-31586098D01*
X116472104Y-31526012D01*
X116506007Y-31506881D01*
X116545090Y-31485013D01*
X116548004Y-31473067D01*
X116566353Y-31433170D01*
X116623386Y-31357469D01*
X116722080Y-31242337D01*
X116865414Y-31084150D01*
X116883983Y-31064021D01*
X116971885Y-30967660D01*
X117077259Y-30850468D01*
X117152766Y-30765526D01*
X117257678Y-30648283D01*
X117369603Y-30525553D01*
X117438348Y-30451598D01*
X117536230Y-30344432D01*
X117647212Y-30218280D01*
X117718659Y-30134452D01*
X117797122Y-30046349D01*
X117862044Y-29983644D01*
X117899078Y-29960031D01*
X117950947Y-29934387D01*
X118023486Y-29869076D01*
X118101944Y-29781531D01*
X118171566Y-29689184D01*
X118217599Y-29609466D01*
X118227898Y-29571516D01*
X118256469Y-29487835D01*
X118333311Y-29398885D01*
X118334873Y-29397526D01*
X118430718Y-29310855D01*
X118531663Y-29214383D01*
X118550459Y-29195680D01*
X118623134Y-29130019D01*
X118680451Y-29091090D01*
X118695468Y-29086486D01*
X118724581Y-29058239D01*
X118731867Y-29016145D01*
X118760672Y-28949071D01*
X118799062Y-28928232D01*
X118853451Y-28904810D01*
X118866258Y-28888468D01*
X118889252Y-28845398D01*
X118945536Y-28779524D01*
X119016066Y-28710191D01*
X119081799Y-28656742D01*
X119110271Y-28640623D01*
X119158420Y-28592358D01*
X119168639Y-28549975D01*
X119181536Y-28494794D01*
X119199845Y-28481724D01*
X119240374Y-28460363D01*
X119309517Y-28405802D01*
X119355735Y-28364132D01*
X119432349Y-28296816D01*
X119490850Y-28254265D01*
X119509318Y-28246539D01*
X119535531Y-28219538D01*
X119538216Y-28200007D01*
X119563696Y-28148109D01*
X119613811Y-28102641D01*
X119670936Y-28057463D01*
X119760946Y-27978808D01*
X119868643Y-27880138D01*
X119924591Y-27827299D01*
X120035320Y-27726042D01*
X120136687Y-27641197D01*
X120213525Y-27585120D01*
X120238623Y-27571482D01*
X120306171Y-27523091D01*
X120334383Y-27475497D01*
X120376571Y-27417227D01*
X120441052Y-27379530D01*
X120515805Y-27329476D01*
X120585142Y-27245841D01*
X120595912Y-27227351D01*
X120669778Y-27130748D01*
X120746849Y-27087608D01*
X120805946Y-27058151D01*
X120900108Y-26992820D01*
X121015496Y-26901827D01*
X121117790Y-26813849D01*
X121288907Y-26665076D01*
X121442159Y-26539974D01*
X121569767Y-26444393D01*
X121663954Y-26384182D01*
X121714525Y-26365058D01*
X121757847Y-26342514D01*
X121806073Y-26297862D01*
X121866832Y-26247361D01*
X121910892Y-26230666D01*
X121960072Y-26204129D01*
X121990861Y-26163471D01*
X122037089Y-26110050D01*
X122071457Y-26096275D01*
X122124737Y-26074450D01*
X122192735Y-26021583D01*
X122196267Y-26018185D01*
X122259043Y-25967865D01*
X122363316Y-25895449D01*
X122492301Y-25812287D01*
X122578824Y-25759411D01*
X122709042Y-25680111D01*
X122819950Y-25609819D01*
X122897186Y-25557793D01*
X122923401Y-25537321D01*
X122989343Y-25493575D01*
X123040483Y-25472147D01*
X123099451Y-25442685D01*
X123191109Y-25386040D01*
X123296514Y-25315252D01*
X123396723Y-25243363D01*
X123472792Y-25183412D01*
X123502766Y-25153910D01*
X123541009Y-25126224D01*
X123617443Y-25083809D01*
X123653957Y-25065533D01*
X123753875Y-25015728D01*
X123838202Y-24971573D01*
X123855544Y-24961940D01*
X123929316Y-24924235D01*
X124029429Y-24878017D01*
X124057131Y-24865947D01*
X124153185Y-24820544D01*
X124228054Y-24777965D01*
X124241919Y-24768038D01*
X124313429Y-24729163D01*
X124380173Y-24706974D01*
X124445871Y-24685153D01*
X124550831Y-24640697D01*
X124700579Y-24571070D01*
X124900644Y-24473735D01*
X125049068Y-24400014D01*
X125101839Y-24364768D01*
X125115464Y-24344345D01*
X125144957Y-24323795D01*
X125221557Y-24293207D01*
X125308652Y-24265272D01*
X125426089Y-24229761D01*
X125526079Y-24197586D01*
X125572055Y-24181322D01*
X125670268Y-24178222D01*
X125795363Y-24232500D01*
X125942921Y-24342078D01*
X125975535Y-24371175D01*
X126072883Y-24451886D01*
X126170254Y-24519679D01*
X126206531Y-24540201D01*
X126290895Y-24595253D01*
X126378559Y-24672018D01*
X126451665Y-24752432D01*
X126492349Y-24818431D01*
X126495548Y-24832507D01*
X126523172Y-24969953D01*
X126572305Y-25049583D01*
X126618936Y-25127761D01*
X126638393Y-25189428D01*
X126660755Y-25265551D01*
X126702429Y-25374188D01*
X126738996Y-25457915D01*
X126779384Y-25556410D01*
X126798921Y-25627408D01*
X126795140Y-25653203D01*
X126794105Y-25680674D01*
X126831056Y-25728798D01*
X126874314Y-25796227D01*
X126893717Y-25898002D01*
X126896152Y-25974568D01*
X126906369Y-26107496D01*
X126935713Y-26186239D01*
X126944389Y-26195276D01*
X126985327Y-26255277D01*
X127015465Y-26342181D01*
X127041538Y-26430159D01*
X127071780Y-26490622D01*
X127091120Y-26556059D01*
X127086167Y-26581940D01*
X127086291Y-26636190D01*
X127099207Y-26651547D01*
X127124853Y-26697465D01*
X127131337Y-26746697D01*
X127143392Y-26820807D01*
X127160470Y-26853907D01*
X127187552Y-26902827D01*
X127223410Y-26991007D01*
X127241776Y-27043511D01*
X127270482Y-27146695D01*
X127270315Y-27201734D01*
X127254642Y-27217639D01*
X127250573Y-27237584D01*
X127290550Y-27256960D01*
X127341631Y-27284665D01*
X127347973Y-27308632D01*
X127349820Y-27355286D01*
X127378230Y-27430177D01*
X127381949Y-27437535D01*
X127419383Y-27540921D01*
X127433718Y-27637309D01*
X127443295Y-27711634D01*
X127465679Y-27748171D01*
X127490561Y-27785774D01*
X127509764Y-27863335D01*
X127511583Y-27876963D01*
X127526320Y-27971628D01*
X127543178Y-28041893D01*
X127544267Y-28044952D01*
X127586483Y-28179753D01*
X127635474Y-28375715D01*
X127691573Y-28634341D01*
X127755112Y-28957134D01*
X127803976Y-29220878D01*
X127826245Y-29362570D01*
X127850787Y-29548992D01*
X127875127Y-29757843D01*
X127896789Y-29966825D01*
X127913298Y-30153639D01*
X127921470Y-30279211D01*
X127932813Y-30396869D01*
X127952443Y-30499520D01*
X127962411Y-30531195D01*
X127979546Y-30606486D01*
X127992850Y-30723841D01*
X127999493Y-30858134D01*
X127999540Y-30860881D01*
X128004401Y-30986147D01*
X128013479Y-31086172D01*
X128024893Y-31140882D01*
X128025970Y-31142897D01*
X128045444Y-31200411D01*
X128059760Y-31283581D01*
X128074487Y-31383754D01*
X128097253Y-31505150D01*
X128104500Y-31539132D01*
X128122243Y-31638314D01*
X128142676Y-31781528D01*
X128162685Y-31945858D01*
X128172997Y-32043100D01*
X128191733Y-32219982D01*
X128212672Y-32399766D01*
X128232492Y-32554567D01*
X128241002Y-32614264D01*
X128277353Y-32870780D01*
X128309247Y-33125227D01*
X128334644Y-33359496D01*
X128351506Y-33555479D01*
X128356345Y-33639000D01*
X128368512Y-33784748D01*
X128390007Y-33933957D01*
X128404346Y-34004095D01*
X128423822Y-34111863D01*
X128428641Y-34200019D01*
X128424628Y-34227682D01*
X128419034Y-34292584D01*
X128424548Y-34397233D01*
X128435056Y-34484147D01*
X128447112Y-34622513D01*
X128449375Y-34789116D01*
X128442430Y-34932518D01*
X128435207Y-35080642D01*
X128440480Y-35199443D01*
X128454269Y-35262504D01*
X128470611Y-35330712D01*
X128441905Y-35369136D01*
X128413406Y-35404708D01*
X128435290Y-35445616D01*
X128456187Y-35504107D01*
X128469182Y-35607323D01*
X128471789Y-35708560D01*
X128471828Y-35901133D01*
X128476866Y-36101293D01*
X128486026Y-36295690D01*
X128498433Y-36470974D01*
X128513208Y-36613794D01*
X128529476Y-36710801D01*
X128539615Y-36741510D01*
X128562271Y-36819024D01*
X128572436Y-36925512D01*
X128572256Y-36955368D01*
X128571659Y-37045874D01*
X128573496Y-37184348D01*
X128577408Y-37351622D01*
X128582769Y-37521011D01*
X128586458Y-37705331D01*
X128584999Y-37886513D01*
X128578855Y-38042466D01*
X128569762Y-38142572D01*
X128554402Y-38268998D01*
X128544669Y-38382582D01*
X128542747Y-38437524D01*
X128533694Y-38500871D01*
X128509569Y-38511137D01*
X128480210Y-38518338D01*
X128475253Y-38542308D01*
X128457711Y-38588277D01*
X128441655Y-38594687D01*
X128409033Y-38620255D01*
X128408057Y-38628285D01*
X128434592Y-38659496D01*
X128450128Y-38661883D01*
X128479392Y-38684199D01*
X128494519Y-38754510D01*
X128495710Y-38877864D01*
X128483166Y-39059307D01*
X128470857Y-39182243D01*
X128446312Y-39359071D01*
X128417896Y-39469269D01*
X128389600Y-39511492D01*
X128346750Y-39553275D01*
X128340861Y-39572678D01*
X128361543Y-39591187D01*
X128374459Y-39585825D01*
X128402622Y-39586054D01*
X128403052Y-39640747D01*
X128375673Y-39753032D01*
X128369973Y-39772339D01*
X128331546Y-39861144D01*
X128289502Y-39882978D01*
X128285978Y-39881835D01*
X128245586Y-39884711D01*
X128240068Y-39899146D01*
X128267733Y-39936760D01*
X128303334Y-39954155D01*
X128343938Y-39981075D01*
X128358887Y-40039533D01*
X128357142Y-40116009D01*
X128342751Y-40261134D01*
X128318971Y-40426065D01*
X128288773Y-40596602D01*
X128255126Y-40758544D01*
X128221002Y-40897691D01*
X128189370Y-40999842D01*
X128163201Y-41050797D01*
X128161282Y-41052342D01*
X128143749Y-41097842D01*
X128149402Y-41126059D01*
X128152760Y-41185319D01*
X128140821Y-41284838D01*
X128122959Y-41373034D01*
X128077245Y-41575502D01*
X128048509Y-41731207D01*
X128034160Y-41857671D01*
X128031608Y-41972413D01*
X128032030Y-41988074D01*
X128027748Y-42089581D01*
X128012031Y-42203497D01*
X127989116Y-42310320D01*
X127963241Y-42390550D01*
X127938646Y-42424687D01*
X127937098Y-42424846D01*
X127927665Y-42395576D01*
X127929599Y-42323515D01*
X127931310Y-42307254D01*
X127931602Y-42223334D01*
X127909789Y-42189785D01*
X127907765Y-42189661D01*
X127891445Y-42198318D01*
X127879351Y-42230799D01*
X127870382Y-42296867D01*
X127863439Y-42406288D01*
X127857422Y-42568826D01*
X127854775Y-42660031D01*
X127847235Y-42748859D01*
X127833198Y-42808136D01*
X127831582Y-42811222D01*
X127813680Y-42859263D01*
X127786333Y-42952098D01*
X127757103Y-43063206D01*
X127716950Y-43211022D01*
X127665499Y-43383149D01*
X127617350Y-43531913D01*
X127564081Y-43717983D01*
X127549370Y-43850351D01*
X127553390Y-43884691D01*
X127564948Y-43950834D01*
X127555904Y-43959143D01*
X127527327Y-43924925D01*
X127496881Y-43892489D01*
X127474885Y-43901727D01*
X127451069Y-43962180D01*
X127436937Y-44008920D01*
X127398416Y-44120682D01*
X127343589Y-44257659D01*
X127299690Y-44356724D01*
X127207472Y-44555775D01*
X127141336Y-44702930D01*
X127097778Y-44806622D01*
X127073291Y-44875287D01*
X127064367Y-44917357D01*
X127064142Y-44923245D01*
X127044320Y-44974565D01*
X127029639Y-44984187D01*
X127002524Y-45020631D01*
X126969617Y-45102066D01*
X126948524Y-45172386D01*
X126928633Y-45247317D01*
X126918222Y-45303799D01*
X126920728Y-45356480D01*
X126939583Y-45420008D01*
X126978222Y-45509030D01*
X127040079Y-45638192D01*
X127074342Y-45709039D01*
X127119394Y-45793045D01*
X127155622Y-45844371D01*
X127166679Y-45851830D01*
X127186933Y-45881446D01*
X127222516Y-45961172D01*
X127267640Y-46077329D01*
X127298205Y-46162611D01*
X127349176Y-46301873D01*
X127397186Y-46420343D01*
X127435192Y-46501206D01*
X127449475Y-46523788D01*
X127487010Y-46587418D01*
X127526331Y-46682510D01*
X127535036Y-46708576D01*
X127568272Y-46811277D01*
X127597227Y-46896444D01*
X127602172Y-46910164D01*
X127642232Y-47030040D01*
X127681164Y-47164770D01*
X127713251Y-47292363D01*
X127732779Y-47390827D01*
X127736099Y-47425484D01*
X127747593Y-47482996D01*
X127765504Y-47498127D01*
X127787558Y-47528157D01*
X127815544Y-47606324D01*
X127839630Y-47699714D01*
X127866124Y-47805161D01*
X127890383Y-47878125D01*
X127905200Y-47901301D01*
X127915666Y-47930026D01*
X127911686Y-47999160D01*
X127911597Y-47999770D01*
X127913332Y-48090971D01*
X127934403Y-48207922D01*
X127949101Y-48260154D01*
X127979990Y-48381947D01*
X128007540Y-48534095D01*
X128022985Y-48657254D01*
X128042390Y-48810184D01*
X128070321Y-48966597D01*
X128094491Y-49068876D01*
X128126828Y-49207189D01*
X128150906Y-49351551D01*
X128156606Y-49404854D01*
X128171415Y-49532365D01*
X128195365Y-49681578D01*
X128210768Y-49760594D01*
X128233573Y-49904006D01*
X128230557Y-50020007D01*
X128212633Y-50105455D01*
X128188703Y-50228639D01*
X128176080Y-50364214D01*
X128175013Y-50492116D01*
X128185749Y-50592278D01*
X128205988Y-50642407D01*
X128224335Y-50690192D01*
X128242113Y-50785647D01*
X128255818Y-50909311D01*
X128257109Y-50926309D01*
X128268822Y-51068402D01*
X128282272Y-51200521D01*
X128294561Y-51294218D01*
X128294639Y-51294687D01*
X128300635Y-51366982D01*
X128305165Y-51495063D01*
X128308268Y-51667537D01*
X128309982Y-51873012D01*
X128310345Y-52100094D01*
X128309396Y-52337391D01*
X128307174Y-52573511D01*
X128303716Y-52797059D01*
X128299060Y-52996644D01*
X128293247Y-53160872D01*
X128288026Y-53255771D01*
X128275631Y-53383466D01*
X128259480Y-53482260D01*
X128242515Y-53535530D01*
X128237712Y-53540146D01*
X128210967Y-53573949D01*
X128209886Y-53622002D01*
X128235288Y-53646539D01*
X128235409Y-53646539D01*
X128250345Y-53673805D01*
X128247225Y-53737676D01*
X128229984Y-53811263D01*
X128203134Y-53866955D01*
X128190237Y-53917098D01*
X128184304Y-54012490D01*
X128186122Y-54118939D01*
X128186943Y-54237745D01*
X128178237Y-54332101D01*
X128164036Y-54377293D01*
X128151978Y-54412985D01*
X128177157Y-54419805D01*
X128205793Y-54425967D01*
X128176250Y-54450089D01*
X128147594Y-54491968D01*
X128143863Y-54574788D01*
X128150409Y-54634363D01*
X128157410Y-54732730D01*
X128146939Y-54784317D01*
X128138631Y-54788867D01*
X128115652Y-54818107D01*
X128105688Y-54888734D01*
X128105676Y-54891504D01*
X128091452Y-54986158D01*
X128055793Y-55100502D01*
X128039595Y-55139198D01*
X127998566Y-55250182D01*
X127993355Y-55339539D01*
X128005244Y-55394890D01*
X128022453Y-55490488D01*
X128014262Y-55589352D01*
X127977045Y-55709808D01*
X127914179Y-55855181D01*
X127873229Y-55956053D01*
X127852272Y-56034097D01*
X127853433Y-56065168D01*
X127849142Y-56096336D01*
X127835234Y-56099185D01*
X127810664Y-56126446D01*
X127816143Y-56179400D01*
X127821815Y-56262518D01*
X127811405Y-56372100D01*
X127805051Y-56406185D01*
X127780465Y-56513240D01*
X127746516Y-56650457D01*
X127708055Y-56799445D01*
X127669935Y-56941808D01*
X127637007Y-57059153D01*
X127614123Y-57133086D01*
X127611306Y-57140719D01*
X127588666Y-57206202D01*
X127583552Y-57224714D01*
X127569485Y-57272454D01*
X127540903Y-57363015D01*
X127509505Y-57459899D01*
X127460627Y-57612525D01*
X127408815Y-57779433D01*
X127383573Y-57863074D01*
X127348294Y-57974498D01*
X127317009Y-58060772D01*
X127299339Y-58098259D01*
X127274365Y-58153374D01*
X127251107Y-58231485D01*
X127221686Y-58325684D01*
X127177353Y-58439412D01*
X127162480Y-58473226D01*
X127123640Y-58565414D01*
X127100536Y-58633634D01*
X127097740Y-58649759D01*
X127082461Y-58699640D01*
X127044818Y-58778302D01*
X127036002Y-58794393D01*
X126998979Y-58877098D01*
X126987011Y-58939399D01*
X126988405Y-58946605D01*
X126980286Y-58984585D01*
X126966148Y-58988603D01*
X126932436Y-59015118D01*
X126929750Y-59031098D01*
X126914784Y-59085681D01*
X126877416Y-59170182D01*
X126862554Y-59198965D01*
X126809170Y-59325541D01*
X126798333Y-59421553D01*
X126829817Y-59476304D01*
X126829757Y-59509892D01*
X126785188Y-59569861D01*
X126758996Y-59595947D01*
X126689098Y-59674921D01*
X126668959Y-59741954D01*
X126673385Y-59772659D01*
X126671320Y-59843795D01*
X126620964Y-59918705D01*
X126594210Y-59945722D01*
X126535687Y-60009922D01*
X126509066Y-60055757D01*
X126509712Y-60063630D01*
X126515306Y-60129023D01*
X126485191Y-60233598D01*
X126425819Y-60364217D01*
X126343639Y-60507738D01*
X126245104Y-60651022D01*
X126183320Y-60728462D01*
X126125308Y-60805990D01*
X126092525Y-60867385D01*
X126089803Y-60880585D01*
X126066815Y-60934141D01*
X126031007Y-60974753D01*
X125934505Y-61072204D01*
X125861049Y-61167952D01*
X125823416Y-61244550D01*
X125821020Y-61261478D01*
X125798436Y-61319543D01*
X125742704Y-61392719D01*
X125728626Y-61407197D01*
X125652248Y-61489670D01*
X125589995Y-61568886D01*
X125585835Y-61575099D01*
X125527156Y-61659628D01*
X125467429Y-61739904D01*
X125411927Y-61823293D01*
X125349177Y-61934125D01*
X125322281Y-61987214D01*
X125273814Y-62076824D01*
X125232607Y-62134725D01*
X125215477Y-62146804D01*
X125183274Y-62174214D01*
X125141042Y-62242050D01*
X125131421Y-62261426D01*
X125076915Y-62351834D01*
X124996260Y-62459139D01*
X124941936Y-62521809D01*
X124858381Y-62618797D01*
X124788447Y-62711810D01*
X124759415Y-62758589D01*
X124700244Y-62852013D01*
X124636543Y-62932021D01*
X124558343Y-63021856D01*
X124493904Y-63101159D01*
X124439434Y-63166832D01*
X124355194Y-63263287D01*
X124257262Y-63372184D01*
X124233542Y-63398097D01*
X124145688Y-63496321D01*
X124078729Y-63576165D01*
X124043323Y-63624717D01*
X124040354Y-63632096D01*
X124019121Y-63667571D01*
X123964151Y-63735009D01*
X123905551Y-63800085D01*
X123747630Y-63973838D01*
X123637107Y-64107089D01*
X123571083Y-64203893D01*
X123546656Y-64268302D01*
X123551647Y-64294615D01*
X123538751Y-64330831D01*
X123485377Y-64389046D01*
X123449614Y-64419659D01*
X123352853Y-64498411D01*
X123261938Y-64574840D01*
X123243241Y-64591050D01*
X123178534Y-64642252D01*
X123135698Y-64666371D01*
X123133373Y-64666645D01*
X123100608Y-64689063D01*
X123033823Y-64748792D01*
X122945408Y-64834549D01*
X122911700Y-64868569D01*
X122812746Y-64964421D01*
X122724505Y-65041016D01*
X122662285Y-65085325D01*
X122651161Y-65090319D01*
X122543598Y-65143111D01*
X122412058Y-65236020D01*
X122274036Y-65356290D01*
X122238720Y-65390999D01*
X122135353Y-65491232D01*
X122023722Y-65592992D01*
X121916256Y-65685731D01*
X121825385Y-65758900D01*
X121763538Y-65801951D01*
X121746195Y-65808973D01*
X121704502Y-65829728D01*
X121647142Y-65876169D01*
X121582053Y-65925023D01*
X121534873Y-65943365D01*
X121495573Y-65971580D01*
X121476071Y-66014719D01*
X121447966Y-66065411D01*
X121389176Y-66068618D01*
X121373644Y-66065050D01*
X121305218Y-66061539D01*
X121270903Y-66104234D01*
X121268528Y-66111288D01*
X121230748Y-66165814D01*
X121197992Y-66178550D01*
X121143928Y-66205685D01*
X121129540Y-66228754D01*
X121099194Y-66263728D01*
X121082907Y-66262043D01*
X121040508Y-66268954D01*
X121004832Y-66295834D01*
X120939618Y-66337797D01*
X120901330Y-66346539D01*
X120855234Y-66371068D01*
X120848533Y-66394267D01*
X120819439Y-66434119D01*
X120749303Y-66463783D01*
X120747740Y-66464132D01*
X120677072Y-66493429D01*
X120646958Y-66533254D01*
X120646946Y-66533997D01*
X120619912Y-66575970D01*
X120595495Y-66581724D01*
X120539434Y-66608906D01*
X120524704Y-66632121D01*
X120479612Y-66675224D01*
X120416074Y-66676304D01*
X120367713Y-66635811D01*
X120365196Y-66629992D01*
X120330884Y-66595941D01*
X120308914Y-66599792D01*
X120286226Y-66645910D01*
X120290167Y-66667407D01*
X120285886Y-66698559D01*
X120260353Y-66694585D01*
X120207446Y-66704247D01*
X120138677Y-66751494D01*
X120127331Y-66762306D01*
X120059177Y-66814761D01*
X120002982Y-66832368D01*
X119996471Y-66830857D01*
X119948111Y-66842511D01*
X119876256Y-66891663D01*
X119837223Y-66927195D01*
X119734150Y-67008471D01*
X119607183Y-67081143D01*
X119555015Y-67103525D01*
X119457715Y-67142283D01*
X119389275Y-67174081D01*
X119370226Y-67186512D01*
X119331782Y-67212043D01*
X119255084Y-67252168D01*
X119219868Y-67268999D01*
X119125667Y-67318406D01*
X119053411Y-67365860D01*
X119039939Y-67377582D01*
X118972009Y-67407232D01*
X118929914Y-67403749D01*
X118876470Y-67404134D01*
X118866258Y-67430888D01*
X118836525Y-67468175D01*
X118761508Y-67506665D01*
X118662481Y-67538324D01*
X118560718Y-67555118D01*
X118534781Y-67556063D01*
X118477786Y-67569337D01*
X118463083Y-67589661D01*
X118434944Y-67616959D01*
X118395888Y-67623259D01*
X118341292Y-67637329D01*
X118328692Y-67656857D01*
X118300552Y-67684154D01*
X118261496Y-67690455D01*
X118206866Y-67702174D01*
X118194300Y-67718392D01*
X118164972Y-67742903D01*
X118091046Y-67771988D01*
X118051509Y-67783328D01*
X117907128Y-67825053D01*
X117763017Y-67873908D01*
X117636739Y-67923198D01*
X117545856Y-67966231D01*
X117513270Y-67988469D01*
X117450128Y-68019977D01*
X117404030Y-68026433D01*
X117329443Y-68040863D01*
X117230764Y-68076844D01*
X117200957Y-68090541D01*
X117115359Y-68126480D01*
X117055738Y-68141154D01*
X117044511Y-68139415D01*
X117000837Y-68139637D01*
X116915698Y-68156744D01*
X116851130Y-68174290D01*
X116757026Y-68198968D01*
X116695774Y-68208758D01*
X116682396Y-68205297D01*
X116661793Y-68206377D01*
X116637307Y-68223615D01*
X116589816Y-68246436D01*
X116573262Y-68242079D01*
X116531849Y-68238091D01*
X116452446Y-68251710D01*
X116427394Y-68258164D01*
X116315969Y-68275906D01*
X116260712Y-68260199D01*
X116210060Y-68250599D01*
X116181688Y-68274489D01*
X116122608Y-68313474D01*
X116034392Y-68342044D01*
X116031877Y-68342526D01*
X115933425Y-68371899D01*
X115856685Y-68411533D01*
X115826752Y-68438915D01*
X115823405Y-68468021D01*
X115853370Y-68511106D01*
X115923372Y-68580425D01*
X115976291Y-68629492D01*
X116068490Y-68711443D01*
X116142380Y-68771660D01*
X116183797Y-68798698D01*
X116186278Y-68799185D01*
X116210578Y-68825898D01*
X116212540Y-68841182D01*
X116242581Y-68925903D01*
X116328567Y-68975228D01*
X116374206Y-68984088D01*
X116437540Y-69000421D01*
X116502267Y-69038047D01*
X116576448Y-69104712D01*
X116668148Y-69208164D01*
X116785427Y-69356147D01*
X116850385Y-69441571D01*
X116950690Y-69570391D01*
X117053413Y-69695462D01*
X117140175Y-69794574D01*
X117159076Y-69814619D01*
X117234333Y-69900599D01*
X117289038Y-69978124D01*
X117304143Y-70009295D01*
X117349622Y-70077439D01*
X117398626Y-70115085D01*
X117478630Y-70167802D01*
X117586338Y-70251314D01*
X117701904Y-70348933D01*
X117805483Y-70443973D01*
X117871003Y-70512277D01*
X117936788Y-70583189D01*
X118027526Y-70673674D01*
X118085107Y-70728313D01*
X118162752Y-70807724D01*
X118214613Y-70874928D01*
X118227898Y-70906439D01*
X118242173Y-70964215D01*
X118277257Y-71046667D01*
X118321543Y-71131375D01*
X118363421Y-71195917D01*
X118389327Y-71218232D01*
X118422842Y-71243936D01*
X118469046Y-71306241D01*
X118471769Y-71310627D01*
X118524927Y-71384544D01*
X118605634Y-71483166D01*
X118680600Y-71567734D01*
X118757841Y-71655219D01*
X118812579Y-71724500D01*
X118832660Y-71759791D01*
X118853607Y-71798671D01*
X118906806Y-71866471D01*
X118941853Y-71906112D01*
X119005916Y-71980678D01*
X119045226Y-72035611D01*
X119051099Y-72050034D01*
X119068999Y-72091164D01*
X119113295Y-72161767D01*
X119126694Y-72180959D01*
X119176729Y-72269717D01*
X119201622Y-72350256D01*
X119202237Y-72360493D01*
X119229901Y-72429893D01*
X119269433Y-72451619D01*
X119326005Y-72496663D01*
X119336628Y-72547183D01*
X119344074Y-72620640D01*
X119363419Y-72732687D01*
X119385596Y-72837245D01*
X119414744Y-73013822D01*
X119409829Y-73154393D01*
X119404252Y-73182765D01*
X119388514Y-73269622D01*
X119386085Y-73324211D01*
X119388590Y-73330865D01*
X119384956Y-73365717D01*
X119374316Y-73382205D01*
X119341287Y-73450785D01*
X119322036Y-73540429D01*
X119319031Y-73625753D01*
X119334741Y-73681373D01*
X119344487Y-73688895D01*
X119359588Y-73707534D01*
X119370671Y-73755130D01*
X119378102Y-73839035D01*
X119382246Y-73966603D01*
X119383470Y-74145187D01*
X119382137Y-74382140D01*
X119381609Y-74436010D01*
X119378957Y-74659719D01*
X119375851Y-74868580D01*
X119372521Y-75050432D01*
X119369195Y-75193111D01*
X119366106Y-75284457D01*
X119365248Y-75300205D01*
X119365397Y-75389881D01*
X119386513Y-75432998D01*
X119422126Y-75446661D01*
X119478219Y-75472537D01*
X119568750Y-75530365D01*
X119676615Y-75608982D01*
X119706205Y-75632097D01*
X119829225Y-75728840D01*
X119951136Y-75823355D01*
X120047717Y-75896881D01*
X120056440Y-75903392D01*
X120157325Y-75984116D01*
X120272947Y-76084661D01*
X120338856Y-76145754D01*
X120441530Y-76238857D01*
X120545128Y-76324551D01*
X120601553Y-76366363D01*
X120672538Y-76422762D01*
X120711419Y-76469339D01*
X120713912Y-76478415D01*
X120736476Y-76522286D01*
X120792544Y-76588353D01*
X120814935Y-76610693D01*
X120877956Y-76677637D01*
X120913101Y-76727719D01*
X120915729Y-76736971D01*
X120937074Y-76782567D01*
X120966075Y-76817029D01*
X121012582Y-76888195D01*
X121038171Y-76957420D01*
X121074652Y-77053793D01*
X121119451Y-77132764D01*
X121151957Y-77212246D01*
X121176684Y-77331782D01*
X121190076Y-77464365D01*
X121188578Y-77582987D01*
X121183398Y-77618629D01*
X121180299Y-77674785D01*
X121180745Y-77678059D01*
X121222604Y-77982686D01*
X121248569Y-78275617D01*
X121258480Y-78545647D01*
X121252174Y-78781573D01*
X121229491Y-78972189D01*
X121200931Y-79080587D01*
X121159888Y-79207439D01*
X121126723Y-79337217D01*
X121120588Y-79368199D01*
X121082759Y-79486115D01*
X121020420Y-79603081D01*
X121005949Y-79623355D01*
X120950371Y-79706954D01*
X120918606Y-79775533D01*
X120915729Y-79791871D01*
X120888130Y-79841256D01*
X120829840Y-79881236D01*
X120773640Y-79918047D01*
X120761671Y-79949042D01*
X120764593Y-79997677D01*
X120748468Y-80079139D01*
X120744817Y-80091690D01*
X120715965Y-80194174D01*
X120694515Y-80282651D01*
X120694262Y-80283880D01*
X120673288Y-80359679D01*
X120637165Y-80467815D01*
X120612233Y-80535864D01*
X120575077Y-80643869D01*
X120551111Y-80733203D01*
X120546169Y-80768431D01*
X120534140Y-80818344D01*
X120520757Y-80827227D01*
X120494057Y-80855196D01*
X120453493Y-80925236D01*
X120408922Y-81016547D01*
X120370199Y-81108331D01*
X120347180Y-81179788D01*
X120344565Y-81199061D01*
X120330592Y-81249512D01*
X120294321Y-81336840D01*
X120244225Y-81444088D01*
X120188777Y-81554304D01*
X120136447Y-81650531D01*
X120095710Y-81715814D01*
X120077069Y-81734370D01*
X120048258Y-81761485D01*
X120005139Y-81829464D01*
X119988678Y-81860362D01*
X119936131Y-81949847D01*
X119885157Y-82015713D01*
X119874195Y-82025709D01*
X119852543Y-82055610D01*
X119838202Y-82112414D01*
X119830092Y-82206904D01*
X119827132Y-82349863D01*
X119827602Y-82490895D01*
X119830966Y-82675674D01*
X119839109Y-82831265D01*
X119854618Y-82976233D01*
X119880081Y-83129144D01*
X119918085Y-83308564D01*
X119971217Y-83533058D01*
X119975014Y-83548656D01*
X120025975Y-83796875D01*
X120069365Y-84085020D01*
X120104463Y-84399509D01*
X120130544Y-84726759D01*
X120146888Y-85053187D01*
X120152772Y-85365210D01*
X120147472Y-85649244D01*
X120130268Y-85891707D01*
X120107779Y-86044952D01*
X120088857Y-86194933D01*
X120078908Y-86403742D01*
X120077917Y-86663619D01*
X120085873Y-86966801D01*
X120102761Y-87305524D01*
X120110048Y-87420126D01*
X120138761Y-87753080D01*
X120176975Y-88024839D01*
X120226011Y-88240905D01*
X120287190Y-88406779D01*
X120361832Y-88527962D01*
X120381514Y-88550597D01*
X120420042Y-88603931D01*
X120423814Y-88632281D01*
X120418988Y-88681719D01*
X120468520Y-88760763D01*
X120568659Y-88865276D01*
X120715656Y-88991121D01*
X120826397Y-89076345D01*
X120918551Y-89142988D01*
X120996977Y-89191447D01*
X121076904Y-89226802D01*
X121173555Y-89254132D01*
X121302159Y-89278515D01*
X121477940Y-89305030D01*
X121537290Y-89313472D01*
X121707991Y-89341352D01*
X121866196Y-89373844D01*
X121993175Y-89406704D01*
X122065118Y-89433008D01*
X122156713Y-89472809D01*
X122229814Y-89494271D01*
X122242561Y-89495481D01*
X122299829Y-89522684D01*
X122314690Y-89545878D01*
X122360754Y-89589426D01*
X122392942Y-89596275D01*
X122455998Y-89614357D01*
X122543500Y-89659689D01*
X122575628Y-89680269D01*
X122660706Y-89731764D01*
X122727514Y-89761421D01*
X122742913Y-89764264D01*
X122787061Y-89791751D01*
X122826196Y-89851554D01*
X122873758Y-89914938D01*
X122916511Y-89919448D01*
X122974691Y-89927732D01*
X123023991Y-89966550D01*
X123077233Y-90016740D01*
X123110623Y-90033047D01*
X123158723Y-90054514D01*
X123238790Y-90110371D01*
X123334971Y-90187802D01*
X123431410Y-90273991D01*
X123512254Y-90356120D01*
X123517248Y-90361761D01*
X123593090Y-90434831D01*
X123656304Y-90458816D01*
X123693637Y-90454496D01*
X123753017Y-90451567D01*
X123771549Y-90469180D01*
X123798853Y-90499309D01*
X123823412Y-90503418D01*
X123881192Y-90524937D01*
X123955048Y-90577709D01*
X123965860Y-90587412D01*
X124016707Y-90641016D01*
X124030478Y-90669828D01*
X124026382Y-90671407D01*
X124023468Y-90691988D01*
X124057561Y-90739078D01*
X124133023Y-90788011D01*
X124182479Y-90786538D01*
X124225258Y-90778082D01*
X124221521Y-90804400D01*
X124202041Y-90837485D01*
X124175245Y-90895731D01*
X124193592Y-90930133D01*
X124205717Y-90938380D01*
X124238914Y-90984180D01*
X124284704Y-91081049D01*
X124337983Y-91215228D01*
X124393653Y-91372961D01*
X124446610Y-91540491D01*
X124491755Y-91704062D01*
X124496073Y-91721420D01*
X124524242Y-91889745D01*
X124517007Y-92043018D01*
X124470079Y-92196318D01*
X124379168Y-92364729D01*
X124266828Y-92527341D01*
X124176988Y-92646252D01*
X124098603Y-92744896D01*
X124042087Y-92810442D01*
X124021636Y-92829455D01*
X123980899Y-92867908D01*
X123915848Y-92942949D01*
X123853780Y-93021258D01*
X123751645Y-93135271D01*
X123659389Y-93200041D01*
X123632757Y-93209014D01*
X123571373Y-93236139D01*
X123514344Y-93296831D01*
X123449894Y-93404533D01*
X123432876Y-93437185D01*
X123369748Y-93560048D01*
X123311022Y-93673761D01*
X123273638Y-93745613D01*
X123225038Y-93815843D01*
X123142468Y-93913627D01*
X123041382Y-94020992D01*
X123010212Y-94051938D01*
X122799642Y-94257470D01*
X122533550Y-94263150D01*
X122391428Y-94269617D01*
X122262709Y-94281424D01*
X122172681Y-94296168D01*
X122165287Y-94298133D01*
X122090352Y-94314431D01*
X122049385Y-94313615D01*
X122048786Y-94313106D01*
X122007776Y-94315439D01*
X121933009Y-94354137D01*
X121839910Y-94419778D01*
X121754354Y-94493011D01*
X121670875Y-94558542D01*
X121594969Y-94597513D01*
X121570544Y-94602204D01*
X121499299Y-94624008D01*
X121421089Y-94676400D01*
X121419354Y-94677955D01*
X121376597Y-94714407D01*
X121333983Y-94740516D01*
X121278593Y-94759198D01*
X121197504Y-94773370D01*
X121077798Y-94785949D01*
X120906552Y-94799851D01*
X120865332Y-94803020D01*
X120710546Y-94817983D01*
X120571272Y-94836975D01*
X120467679Y-94856989D01*
X120432872Y-94867482D01*
X120343986Y-94887745D01*
X120298481Y-94875316D01*
X120248720Y-94860404D01*
X120150801Y-94848568D01*
X120023756Y-94841916D01*
X119991787Y-94841334D01*
X119837606Y-94834447D01*
X119685802Y-94819272D01*
X119567817Y-94799007D01*
X119562421Y-94797679D01*
X119464650Y-94767883D01*
X119418922Y-94736419D01*
X119410674Y-94692739D01*
X119411231Y-94688147D01*
X119401325Y-94633285D01*
X119361827Y-94623825D01*
X119312339Y-94606208D01*
X119303031Y-94581827D01*
X119283638Y-94539567D01*
X119269433Y-94535164D01*
X119236805Y-94560117D01*
X119235835Y-94567922D01*
X119207870Y-94584991D01*
X119137126Y-94580864D01*
X119043329Y-94559008D01*
X118946205Y-94522893D01*
X118926723Y-94513566D01*
X118830485Y-94479438D01*
X118752317Y-94467968D01*
X118681047Y-94456562D01*
X118649094Y-94436347D01*
X118609643Y-94404025D01*
X118530756Y-94356729D01*
X118477031Y-94328554D01*
X118380840Y-94285427D01*
X118325835Y-94275951D01*
X118297447Y-94296171D01*
X118272711Y-94310252D01*
X118250684Y-94261178D01*
X118248501Y-94252774D01*
X118211725Y-94184022D01*
X118144933Y-94165587D01*
X118071217Y-94149039D01*
X118036380Y-94121450D01*
X117993787Y-94087517D01*
X117906516Y-94039143D01*
X117792540Y-93986179D01*
X117779346Y-93980581D01*
X117648742Y-93918495D01*
X117529257Y-93849429D01*
X117448213Y-93789533D01*
X117372680Y-93729672D01*
X117309380Y-93697165D01*
X117297175Y-93695217D01*
X117227431Y-93685723D01*
X117131166Y-93661717D01*
X117029069Y-93629910D01*
X116941829Y-93597014D01*
X116890136Y-93569740D01*
X116883983Y-93561181D01*
X116857817Y-93527910D01*
X116791944Y-93477661D01*
X116757991Y-93455908D01*
X116668670Y-93393900D01*
X116600354Y-93333403D01*
X116588096Y-93318776D01*
X116524812Y-93269636D01*
X116478903Y-93258444D01*
X116425364Y-93243204D01*
X116413613Y-93222952D01*
X116405053Y-93208047D01*
X116581602Y-93208047D01*
X116598401Y-93224846D01*
X116615200Y-93208047D01*
X116598401Y-93191248D01*
X116581602Y-93208047D01*
X116405053Y-93208047D01*
X116390916Y-93183430D01*
X116331344Y-93113583D01*
X116259157Y-93040058D01*
X116380015Y-93040058D01*
X116396814Y-93056857D01*
X116413613Y-93040058D01*
X116396814Y-93023259D01*
X116380015Y-93040058D01*
X116259157Y-93040058D01*
X116247674Y-93028362D01*
X116245623Y-93026393D01*
X116153454Y-92927576D01*
X116094079Y-92842449D01*
X116077634Y-92793965D01*
X116048746Y-92731136D01*
X115977804Y-92670596D01*
X115888388Y-92629028D01*
X115831849Y-92620084D01*
X115773561Y-92600536D01*
X115699626Y-92553467D01*
X115698889Y-92552889D01*
X115611134Y-92504487D01*
X115528352Y-92485693D01*
X115439143Y-92461193D01*
X115392697Y-92396212D01*
X115389392Y-92370236D01*
X115359968Y-92342067D01*
X115288129Y-92313083D01*
X115271285Y-92308411D01*
X115183455Y-92281733D01*
X115124027Y-92256606D01*
X115120094Y-92254065D01*
X115071997Y-92241388D01*
X114976294Y-92230191D01*
X114852570Y-92222680D01*
X114836710Y-92222130D01*
X114697671Y-92211777D01*
X114571479Y-92192208D01*
X114485045Y-92167619D01*
X114483932Y-92167117D01*
X114384491Y-92128574D01*
X114263436Y-92090437D01*
X114229750Y-92081363D01*
X114126852Y-92048715D01*
X114046798Y-92012351D01*
X114028163Y-91999646D01*
X113963525Y-91961185D01*
X113869605Y-91922144D01*
X113852242Y-91916325D01*
X113767577Y-91883930D01*
X113714810Y-91854054D01*
X113709619Y-91848362D01*
X113671851Y-91816704D01*
X113601136Y-91774090D01*
X113520027Y-91732180D01*
X113451073Y-91702637D01*
X113416933Y-91697010D01*
X113386228Y-91685232D01*
X113323525Y-91640358D01*
X113309652Y-91628947D01*
X113490597Y-91628947D01*
X113507396Y-91645746D01*
X113524195Y-91628947D01*
X113507396Y-91612148D01*
X113490597Y-91628947D01*
X113309652Y-91628947D01*
X113287615Y-91610821D01*
X113213556Y-91551224D01*
X113161112Y-91515744D01*
X113149832Y-91511433D01*
X113119585Y-91486777D01*
X113063045Y-91422874D01*
X113006447Y-91351638D01*
X112920992Y-91250658D01*
X112832445Y-91162985D01*
X112784700Y-91124978D01*
X112852237Y-91124978D01*
X112869036Y-91141777D01*
X112885835Y-91124978D01*
X112869036Y-91108180D01*
X112852237Y-91124978D01*
X112784700Y-91124978D01*
X112784543Y-91124853D01*
X112717884Y-91071765D01*
X112684617Y-91028789D01*
X112683789Y-91024185D01*
X112660905Y-90984782D01*
X112602022Y-90915978D01*
X112532654Y-90845260D01*
X112449168Y-90766583D01*
X112394921Y-90727741D01*
X112350838Y-90721866D01*
X112297846Y-90742089D01*
X112276063Y-90752865D01*
X112198073Y-90788389D01*
X112147140Y-90805518D01*
X112143895Y-90805799D01*
X112104961Y-90823173D01*
X112026767Y-90868939D01*
X111925521Y-90933558D01*
X111915505Y-90940190D01*
X111808973Y-91006614D01*
X111719478Y-91054651D01*
X111665395Y-91074501D01*
X111663545Y-91074582D01*
X111599976Y-91096776D01*
X111564527Y-91123969D01*
X111495211Y-91169262D01*
X111387761Y-91216394D01*
X111270127Y-91255038D01*
X111170260Y-91274870D01*
X111153864Y-91275680D01*
X111077706Y-91294278D01*
X111045599Y-91315558D01*
X110981652Y-91350649D01*
X110929686Y-91362405D01*
X110851233Y-91378764D01*
X110745762Y-91410906D01*
X110706770Y-91424885D01*
X110591020Y-91463461D01*
X110481166Y-91492451D01*
X110454786Y-91497598D01*
X110368786Y-91506668D01*
X110235699Y-91514319D01*
X110068519Y-91520425D01*
X109880242Y-91524860D01*
X109683863Y-91527500D01*
X109492377Y-91528217D01*
X109318778Y-91526888D01*
X109176064Y-91523385D01*
X109077228Y-91517584D01*
X109038701Y-91511287D01*
X108950510Y-91500462D01*
X108838354Y-91515730D01*
X108833359Y-91517011D01*
X108714930Y-91544951D01*
X108600868Y-91567291D01*
X108591615Y-91568797D01*
X108513366Y-91592084D01*
X108496891Y-91629059D01*
X108498209Y-91632978D01*
X108498771Y-91658053D01*
X108459716Y-91641990D01*
X108433104Y-91625194D01*
X108371926Y-91595491D01*
X108350121Y-91608284D01*
X108318633Y-91631263D01*
X108231668Y-91643970D01*
X108168927Y-91645746D01*
X108048920Y-91653579D01*
X107981570Y-91675692D01*
X107971682Y-91687743D01*
X107947747Y-91705321D01*
X107886639Y-91715377D01*
X107779767Y-91718354D01*
X107618541Y-91714693D01*
X107522916Y-91710866D01*
X107355059Y-91705715D01*
X107208435Y-91705247D01*
X107097767Y-91709229D01*
X107037782Y-91717427D01*
X107034829Y-91718615D01*
X107001877Y-91746254D01*
X106995367Y-91797517D01*
X107011557Y-91888679D01*
X107038247Y-91984301D01*
X107066644Y-92051934D01*
X107075328Y-92064039D01*
X107102108Y-92122131D01*
X107106999Y-92162448D01*
X107118310Y-92240396D01*
X107145567Y-92335590D01*
X107146083Y-92337023D01*
X107166845Y-92421917D01*
X107154798Y-92500862D01*
X107124481Y-92572992D01*
X107089228Y-92664902D01*
X107094407Y-92709276D01*
X107102196Y-92713677D01*
X107134274Y-92753475D01*
X107140597Y-92790874D01*
X107154841Y-92843936D01*
X107173332Y-92855269D01*
X107210612Y-92881870D01*
X107255031Y-92946021D01*
X107255922Y-92947664D01*
X107310912Y-93032283D01*
X107386235Y-93128841D01*
X107407975Y-93153804D01*
X107469335Y-93226964D01*
X107505795Y-93279838D01*
X107510173Y-93291689D01*
X107530964Y-93329977D01*
X107582186Y-93393284D01*
X107594168Y-93406460D01*
X107650060Y-93479183D01*
X107677568Y-93539331D01*
X107678163Y-93545757D01*
X107692255Y-93589443D01*
X107703361Y-93594483D01*
X107738248Y-93622940D01*
X107791268Y-93698418D01*
X107853935Y-93806241D01*
X107917759Y-93931733D01*
X107974253Y-94060217D01*
X107977577Y-94068596D01*
X108014392Y-94174498D01*
X108035116Y-94275000D01*
X108042579Y-94393370D01*
X108039606Y-94552873D01*
X108038820Y-94572564D01*
X108029461Y-94733464D01*
X108014079Y-94847865D01*
X107988102Y-94936448D01*
X107946961Y-95019894D01*
X107935710Y-95039132D01*
X107865365Y-95163253D01*
X107796290Y-95294459D01*
X107775857Y-95335933D01*
X107697250Y-95473504D01*
X107616608Y-95567949D01*
X107542848Y-95609271D01*
X107531086Y-95610296D01*
X107472205Y-95633999D01*
X107442978Y-95660693D01*
X107377824Y-95700873D01*
X107321271Y-95711090D01*
X107260123Y-95722900D01*
X107241390Y-95744047D01*
X107212649Y-95774747D01*
X107148996Y-95799077D01*
X107066106Y-95826311D01*
X107016643Y-95852536D01*
X106955529Y-95872957D01*
X106882251Y-95875191D01*
X106788220Y-95883500D01*
X106681239Y-95915304D01*
X106666725Y-95921570D01*
X106531269Y-95961660D01*
X106355521Y-95983383D01*
X106164278Y-95985065D01*
X105993187Y-95966992D01*
X105891135Y-95954123D01*
X105826845Y-95964499D01*
X105773334Y-96003372D01*
X105765175Y-96011379D01*
X105705386Y-96056297D01*
X105662140Y-96063774D01*
X105662051Y-96063720D01*
X105614112Y-96064945D01*
X105536933Y-96093095D01*
X105522629Y-96100190D01*
X105427973Y-96134073D01*
X105308833Y-96144186D01*
X105202463Y-96139030D01*
X105093258Y-96133328D01*
X105016651Y-96135181D01*
X104990238Y-96143331D01*
X104959560Y-96155512D01*
X104879171Y-96162363D01*
X104766349Y-96163871D01*
X104638368Y-96160025D01*
X104512504Y-96150812D01*
X104452333Y-96143717D01*
X104356215Y-96134041D01*
X104289588Y-96134061D01*
X104276377Y-96137300D01*
X104228554Y-96135793D01*
X104213028Y-96128249D01*
X104167303Y-96119517D01*
X104067399Y-96111469D01*
X103926332Y-96104818D01*
X103757117Y-96100278D01*
X103683861Y-96099207D01*
X103503919Y-96094909D01*
X103343904Y-96086818D01*
X103217826Y-96075959D01*
X103139696Y-96063355D01*
X103125650Y-96058405D01*
X102984802Y-95985947D01*
X102878834Y-95936578D01*
X102784205Y-95900184D01*
X102683399Y-95868427D01*
X102583498Y-95843260D01*
X102511963Y-95833234D01*
X102490399Y-95836772D01*
X102456897Y-95841790D01*
X102376878Y-95832285D01*
X102245155Y-95807331D01*
X102056543Y-95766004D01*
X101932925Y-95737424D01*
X101819608Y-95703243D01*
X101720406Y-95660910D01*
X101697740Y-95647880D01*
X101600270Y-95591777D01*
X101524247Y-95554460D01*
X101437384Y-95504725D01*
X101347496Y-95435862D01*
X101336720Y-95425508D01*
X101428957Y-95425508D01*
X101445755Y-95442307D01*
X101462554Y-95425508D01*
X105628692Y-95425508D01*
X105645491Y-95442307D01*
X105662290Y-95425508D01*
X105645491Y-95408709D01*
X105628692Y-95425508D01*
X101462554Y-95425508D01*
X101445755Y-95408709D01*
X101428957Y-95425508D01*
X101336720Y-95425508D01*
X101272633Y-95363933D01*
X101230843Y-95305001D01*
X101227369Y-95290269D01*
X101202575Y-95244059D01*
X101142725Y-95188108D01*
X101140721Y-95186629D01*
X101079713Y-95123127D01*
X107745359Y-95123127D01*
X107762158Y-95139926D01*
X107778957Y-95123127D01*
X107762158Y-95106328D01*
X107745359Y-95123127D01*
X101079713Y-95123127D01*
X101056602Y-95099071D01*
X101024756Y-95048763D01*
X101501568Y-95048763D01*
X101509743Y-95067539D01*
X101543572Y-95103607D01*
X101563021Y-95096208D01*
X101563348Y-95091512D01*
X101539484Y-95063094D01*
X101524559Y-95052723D01*
X101501568Y-95048763D01*
X101024756Y-95048763D01*
X100978018Y-94974929D01*
X100941141Y-94887941D01*
X107543771Y-94887941D01*
X107560570Y-94904740D01*
X107577369Y-94887941D01*
X107560570Y-94871142D01*
X107543771Y-94887941D01*
X100941141Y-94887941D01*
X100922408Y-94843751D01*
X100920855Y-94837545D01*
X101294565Y-94837545D01*
X101306858Y-94865199D01*
X101316964Y-94859943D01*
X101320985Y-94820070D01*
X101316964Y-94815146D01*
X101296990Y-94819758D01*
X101294565Y-94837545D01*
X100920855Y-94837545D01*
X100910677Y-94796867D01*
X100904207Y-94730552D01*
X100898684Y-94616317D01*
X100894908Y-94473441D01*
X100893887Y-94392373D01*
X100890056Y-94229613D01*
X100879649Y-94127130D01*
X100859831Y-94078107D01*
X100827766Y-94075727D01*
X100780621Y-94113177D01*
X100778597Y-94115190D01*
X100723216Y-94156413D01*
X100695003Y-94165587D01*
X100654445Y-94191813D01*
X100649578Y-94202266D01*
X100613439Y-94222468D01*
X100527185Y-94244670D01*
X100405448Y-94267124D01*
X100262857Y-94288076D01*
X100114043Y-94305777D01*
X99973637Y-94318475D01*
X99856267Y-94324421D01*
X99776565Y-94321861D01*
X99749062Y-94310038D01*
X99719754Y-94268303D01*
X99648910Y-94237416D01*
X99562150Y-94225921D01*
X99514054Y-94231651D01*
X99445995Y-94269605D01*
X99418213Y-94314955D01*
X99372524Y-94417684D01*
X99278350Y-94485770D01*
X99129999Y-94522695D01*
X99068785Y-94528593D01*
X98952721Y-94540566D01*
X98862549Y-94557063D01*
X98822889Y-94571735D01*
X98768560Y-94582851D01*
X98682945Y-94571809D01*
X98671699Y-94568918D01*
X98565804Y-94547131D01*
X98436211Y-94529582D01*
X98388348Y-94525310D01*
X98268859Y-94509081D01*
X98162725Y-94482285D01*
X98130021Y-94469296D01*
X98058683Y-94443405D01*
X98009548Y-94458439D01*
X97982898Y-94482243D01*
X97913489Y-94520042D01*
X97871648Y-94515512D01*
X97811829Y-94502056D01*
X97707494Y-94489431D01*
X97581999Y-94480416D01*
X97364052Y-94467880D01*
X97197920Y-94453465D01*
X97068220Y-94435181D01*
X96988963Y-94417571D01*
X99110703Y-94417571D01*
X99127501Y-94434370D01*
X99144300Y-94417571D01*
X99127501Y-94400772D01*
X99110703Y-94417571D01*
X96988963Y-94417571D01*
X96959573Y-94411041D01*
X96893242Y-94391360D01*
X96771845Y-94356263D01*
X96625564Y-94319584D01*
X96612916Y-94316777D01*
X98976311Y-94316777D01*
X98993110Y-94333576D01*
X99009909Y-94316777D01*
X98993110Y-94299978D01*
X98976311Y-94316777D01*
X96612916Y-94316777D01*
X96540464Y-94300697D01*
X96426180Y-94273102D01*
X96336221Y-94244341D01*
X96297316Y-94225291D01*
X96235369Y-94207164D01*
X96171324Y-94212872D01*
X96107530Y-94217758D01*
X96086893Y-94200067D01*
X96057201Y-94177910D01*
X95983582Y-94165596D01*
X95960901Y-94164814D01*
X95815425Y-94160849D01*
X95727658Y-94151595D01*
X95688232Y-94135698D01*
X95683718Y-94124789D01*
X95655519Y-94103324D01*
X95616523Y-94098391D01*
X95561890Y-94086906D01*
X95549327Y-94071016D01*
X95521938Y-94040481D01*
X95453886Y-93998641D01*
X95431130Y-93987277D01*
X95421418Y-93980799D01*
X100521814Y-93980799D01*
X100538613Y-93997598D01*
X100555412Y-93980799D01*
X100538613Y-93964000D01*
X100521814Y-93980799D01*
X95421418Y-93980799D01*
X95342714Y-93928300D01*
X95279972Y-93857121D01*
X95274547Y-93846663D01*
X95231574Y-93784555D01*
X95191156Y-93762412D01*
X95153250Y-93734784D01*
X95146152Y-93702692D01*
X95127708Y-93627678D01*
X95100869Y-93576700D01*
X95061876Y-93505538D01*
X95015903Y-93402654D01*
X94997044Y-93354853D01*
X94969226Y-93274220D01*
X94956311Y-93205903D01*
X94958211Y-93128848D01*
X94974840Y-93022004D01*
X94995222Y-92918081D01*
X95037148Y-92740206D01*
X95088947Y-92594664D01*
X95161784Y-92458099D01*
X95266824Y-92307158D01*
X95320867Y-92236873D01*
X95393354Y-92135816D01*
X95448270Y-92043781D01*
X95469648Y-91993288D01*
X95494641Y-91932923D01*
X95516793Y-91914529D01*
X95551831Y-91897730D01*
X96120491Y-91897730D01*
X96137290Y-91914529D01*
X96154089Y-91897730D01*
X96137290Y-91880931D01*
X96120491Y-91897730D01*
X95551831Y-91897730D01*
X95559077Y-91894256D01*
X95624935Y-91845634D01*
X95692682Y-91786955D01*
X95695530Y-91783959D01*
X101032689Y-91783959D01*
X101085698Y-91924839D01*
X101129134Y-92025149D01*
X101173425Y-92105043D01*
X101185488Y-92121469D01*
X101222219Y-92186137D01*
X101265163Y-92292514D01*
X101309328Y-92423413D01*
X101349720Y-92561647D01*
X101381343Y-92690030D01*
X101399205Y-92791375D01*
X101398312Y-92848496D01*
X101397338Y-92850539D01*
X101389619Y-92909066D01*
X101405938Y-92982624D01*
X101436737Y-93041065D01*
X101462740Y-93056857D01*
X101500051Y-93034584D01*
X101529233Y-93006460D01*
X101932925Y-93006460D01*
X101949724Y-93023259D01*
X101966523Y-93006460D01*
X101949724Y-92989661D01*
X101932925Y-93006460D01*
X101529233Y-93006460D01*
X101545773Y-92990519D01*
X101615667Y-92931637D01*
X101668573Y-92904260D01*
X101720823Y-92862523D01*
X101731544Y-92827807D01*
X101746751Y-92757583D01*
X101778775Y-92681144D01*
X101821833Y-92578855D01*
X101846122Y-92496355D01*
X101857504Y-92412180D01*
X101866978Y-92284232D01*
X101874219Y-92128502D01*
X101878905Y-91960980D01*
X101880713Y-91797658D01*
X101879319Y-91654526D01*
X101874400Y-91547575D01*
X101866364Y-91494555D01*
X101847280Y-91458849D01*
X101826476Y-91471349D01*
X101793922Y-91539206D01*
X101789661Y-91549250D01*
X101749312Y-91633287D01*
X101703970Y-91684624D01*
X101636161Y-91712435D01*
X101528407Y-91725892D01*
X101444207Y-91730573D01*
X101313269Y-91739402D01*
X101195047Y-91751936D01*
X101131440Y-91762270D01*
X101032689Y-91783959D01*
X95695530Y-91783959D01*
X95740632Y-91736509D01*
X95750914Y-91717054D01*
X95724262Y-91689247D01*
X95654431Y-91639065D01*
X95557726Y-91578098D01*
X95455820Y-91514520D01*
X95377750Y-91460854D01*
X95341675Y-91430003D01*
X95307318Y-91428752D01*
X95256969Y-91473721D01*
X95178026Y-91528166D01*
X95086573Y-91521838D01*
X94992512Y-91457309D01*
X94938382Y-91390905D01*
X94876496Y-91308278D01*
X94836359Y-91280624D01*
X94808309Y-91303512D01*
X94798024Y-91326566D01*
X94751768Y-91363103D01*
X94647048Y-91376789D01*
X94629239Y-91376963D01*
X94536520Y-91384416D01*
X94477073Y-91403215D01*
X94467629Y-91413458D01*
X94428263Y-91435799D01*
X94331229Y-91457931D01*
X94186048Y-91478735D01*
X94002241Y-91497094D01*
X93789329Y-91511889D01*
X93556834Y-91522003D01*
X93538531Y-91522552D01*
X93387610Y-91528220D01*
X93261271Y-91535377D01*
X93174860Y-91543008D01*
X93145106Y-91548607D01*
X93102109Y-91553405D01*
X93003558Y-91556696D01*
X92861075Y-91558581D01*
X92686280Y-91559158D01*
X92490797Y-91558525D01*
X92286248Y-91556782D01*
X92084253Y-91554029D01*
X91896436Y-91550362D01*
X91734418Y-91545883D01*
X91609821Y-91540689D01*
X91534380Y-91534894D01*
X91438221Y-91522833D01*
X91300526Y-91505938D01*
X91146488Y-91487292D01*
X91099365Y-91481640D01*
X90936436Y-91458054D01*
X90831863Y-91432359D01*
X90776808Y-91402122D01*
X90770380Y-91393762D01*
X94138216Y-91393762D01*
X94155015Y-91410560D01*
X94171814Y-91393762D01*
X94155015Y-91376963D01*
X94138216Y-91393762D01*
X90770380Y-91393762D01*
X90767861Y-91390485D01*
X90737168Y-91355430D01*
X90709867Y-91379171D01*
X90678289Y-91406195D01*
X90631781Y-91380729D01*
X90630218Y-91379436D01*
X90574130Y-91353777D01*
X90471109Y-91322997D01*
X90340749Y-91291439D01*
X90202643Y-91263443D01*
X90076385Y-91243349D01*
X89981569Y-91235498D01*
X89980478Y-91235496D01*
X89921438Y-91225281D01*
X89904882Y-91208455D01*
X89875485Y-91185451D01*
X89797635Y-91148965D01*
X89779062Y-91141777D01*
X108851387Y-91141777D01*
X109020727Y-91141777D01*
X109116998Y-91147775D01*
X109178343Y-91163123D01*
X109190068Y-91175375D01*
X109216109Y-91203323D01*
X109274043Y-91206129D01*
X109333584Y-91184133D01*
X109346356Y-91173637D01*
X109399326Y-91156267D01*
X109500050Y-91168792D01*
X109540971Y-91178408D01*
X109662004Y-91193913D01*
X109834211Y-91195825D01*
X110043313Y-91185745D01*
X110275029Y-91165273D01*
X110515078Y-91136010D01*
X110749179Y-91099555D01*
X110963052Y-91057509D01*
X111142416Y-91011473D01*
X111201119Y-90992364D01*
X111294618Y-90965141D01*
X111362060Y-90956011D01*
X111377449Y-90959164D01*
X111424064Y-90955690D01*
X111482141Y-90925338D01*
X111557753Y-90885551D01*
X111610303Y-90872994D01*
X111668032Y-90859021D01*
X111762371Y-90822853D01*
X111846412Y-90784830D01*
X111958258Y-90736845D01*
X112056713Y-90704812D01*
X112105750Y-90696636D01*
X112186163Y-90667128D01*
X112234418Y-90582439D01*
X112247475Y-90474011D01*
X112256382Y-90390517D01*
X112291931Y-90354814D01*
X112367369Y-90359802D01*
X112428861Y-90376764D01*
X112558705Y-90448797D01*
X112694318Y-90585307D01*
X112804019Y-90711575D01*
X112919644Y-90833317D01*
X113030234Y-90940198D01*
X113124831Y-91021886D01*
X113192474Y-91068048D01*
X113213192Y-91074582D01*
X113262828Y-91101636D01*
X113276860Y-91124978D01*
X113319162Y-91169631D01*
X113343001Y-91175375D01*
X113385248Y-91200906D01*
X113389803Y-91220095D01*
X113416885Y-91265608D01*
X113482018Y-91312343D01*
X113482197Y-91312435D01*
X113552620Y-91351636D01*
X113591390Y-91378528D01*
X113652705Y-91430049D01*
X113738099Y-91485170D01*
X113821462Y-91528561D01*
X113874814Y-91544952D01*
X113933309Y-91571477D01*
X113948551Y-91594654D01*
X113988334Y-91636660D01*
X114068647Y-91688665D01*
X114123885Y-91716813D01*
X114245209Y-91772140D01*
X114340977Y-91812124D01*
X114435458Y-91845568D01*
X114552921Y-91881276D01*
X114666523Y-91913662D01*
X114811089Y-91958739D01*
X114950374Y-92009324D01*
X115054824Y-92054660D01*
X115056886Y-92055711D01*
X115150561Y-92094520D01*
X115225863Y-92109824D01*
X115245980Y-92107230D01*
X115310877Y-92109797D01*
X115333327Y-92124402D01*
X115386780Y-92147289D01*
X115480125Y-92163234D01*
X115530683Y-92166689D01*
X115641852Y-92177458D01*
X115733758Y-92197973D01*
X115758528Y-92208039D01*
X115826892Y-92242508D01*
X115928252Y-92291587D01*
X115993639Y-92322552D01*
X116099326Y-92382011D01*
X116211683Y-92460688D01*
X116316125Y-92546260D01*
X116398066Y-92626404D01*
X116442919Y-92688795D01*
X116447210Y-92705774D01*
X116471234Y-92746996D01*
X116533604Y-92816408D01*
X116619768Y-92900762D01*
X116715173Y-92986813D01*
X116805266Y-93061313D01*
X116875496Y-93111015D01*
X116906709Y-93124053D01*
X116947475Y-93144264D01*
X116951179Y-93157650D01*
X116977879Y-93188553D01*
X116995048Y-93191248D01*
X117047406Y-93210320D01*
X117125734Y-93258083D01*
X117154638Y-93279048D01*
X117254071Y-93345030D01*
X117379004Y-93415700D01*
X117446748Y-93449501D01*
X117541731Y-93498364D01*
X117605767Y-93539645D01*
X117623136Y-93559646D01*
X117651385Y-93588055D01*
X117699400Y-93606279D01*
X117781766Y-93643873D01*
X117847727Y-93692558D01*
X117932557Y-93751118D01*
X118005310Y-93781159D01*
X118093316Y-93819731D01*
X118171766Y-93874912D01*
X118265946Y-93946233D01*
X118374810Y-94010325D01*
X118478812Y-94057609D01*
X118558408Y-94078507D01*
X118582541Y-94076228D01*
X118622681Y-94083734D01*
X118631073Y-94124581D01*
X118656715Y-94182575D01*
X118723467Y-94208329D01*
X118867426Y-94246980D01*
X119005793Y-94304893D01*
X119109311Y-94369608D01*
X119116178Y-94375574D01*
X119186603Y-94426699D01*
X119232477Y-94424689D01*
X119251431Y-94402718D01*
X119290859Y-94392964D01*
X119390696Y-94386397D01*
X119544224Y-94383152D01*
X119744725Y-94383365D01*
X119985481Y-94387174D01*
X120000967Y-94387517D01*
X120305266Y-94394144D01*
X120549579Y-94398624D01*
X120741095Y-94400618D01*
X120886998Y-94399790D01*
X120994477Y-94395803D01*
X121070717Y-94388319D01*
X121122905Y-94377001D01*
X121158227Y-94361511D01*
X121183870Y-94341512D01*
X121193626Y-94331534D01*
X121254717Y-94282220D01*
X121297823Y-94266381D01*
X121344502Y-94244967D01*
X121420306Y-94189566D01*
X121486893Y-94131989D01*
X121571150Y-94059604D01*
X121639142Y-94010814D01*
X121669370Y-93997598D01*
X121719504Y-93982689D01*
X121802400Y-93945144D01*
X121840168Y-93925578D01*
X121951652Y-93879478D01*
X122077293Y-93860547D01*
X122183566Y-93860142D01*
X122309858Y-93859654D01*
X122391661Y-93845063D01*
X122451060Y-93811374D01*
X122469148Y-93795553D01*
X122555819Y-93729299D01*
X122652021Y-93673511D01*
X122732791Y-93617612D01*
X122824761Y-93529101D01*
X122878026Y-93465741D01*
X122947120Y-93374900D01*
X123001299Y-93303841D01*
X123023216Y-93275243D01*
X123055726Y-93228945D01*
X123109426Y-93148670D01*
X123142065Y-93098854D01*
X123205553Y-93016548D01*
X123264508Y-92964947D01*
X123289020Y-92956063D01*
X123344559Y-92929620D01*
X123425484Y-92858435D01*
X123521528Y-92754720D01*
X123622421Y-92630691D01*
X123717898Y-92498560D01*
X123797689Y-92370543D01*
X123825657Y-92317703D01*
X123876538Y-92224849D01*
X123925467Y-92151044D01*
X123931333Y-92143797D01*
X123971175Y-92058620D01*
X123994134Y-91932068D01*
X123999011Y-91788105D01*
X123984606Y-91650698D01*
X123960252Y-91565938D01*
X123925152Y-91462769D01*
X123906744Y-91371271D01*
X123905941Y-91355583D01*
X123884720Y-91294236D01*
X123818893Y-91202059D01*
X123705209Y-91074859D01*
X123622755Y-90990110D01*
X123509136Y-90879047D01*
X123409917Y-90788206D01*
X123335866Y-90727042D01*
X123297994Y-90705005D01*
X123251865Y-90689165D01*
X123184031Y-90636588D01*
X123084861Y-90539683D01*
X123074154Y-90528616D01*
X123014711Y-90482681D01*
X122977332Y-90469820D01*
X122931385Y-90446522D01*
X122925991Y-90436189D01*
X122888536Y-90413062D01*
X122808947Y-90396708D01*
X122780401Y-90394192D01*
X122672864Y-90373484D01*
X122614888Y-90324278D01*
X122611826Y-90318629D01*
X122553842Y-90251137D01*
X122502633Y-90218268D01*
X122444818Y-90177222D01*
X122427634Y-90142673D01*
X122405232Y-90103355D01*
X122391794Y-90100243D01*
X122343610Y-90081752D01*
X122269002Y-90035895D01*
X122249003Y-90021634D01*
X122142971Y-89951099D01*
X122030006Y-89887455D01*
X121927066Y-89838944D01*
X121851107Y-89813810D01*
X121823043Y-89814555D01*
X121769190Y-89818262D01*
X121666319Y-89801460D01*
X121527903Y-89768344D01*
X121367413Y-89723110D01*
X121198321Y-89669955D01*
X121034099Y-89613075D01*
X120888219Y-89556665D01*
X120774152Y-89504922D01*
X120714142Y-89469171D01*
X120639679Y-89409292D01*
X120592212Y-89363924D01*
X120585350Y-89354082D01*
X120546714Y-89328679D01*
X120534528Y-89327492D01*
X120488142Y-89302922D01*
X120432065Y-89243812D01*
X120431828Y-89243497D01*
X120373387Y-89184081D01*
X120321878Y-89159502D01*
X120292467Y-89146574D01*
X120308105Y-89097729D01*
X120310967Y-89092307D01*
X120327866Y-89039502D01*
X120315295Y-89025111D01*
X120296378Y-88998634D01*
X120299957Y-88962793D01*
X120289819Y-88904755D01*
X120222600Y-88845677D01*
X120203160Y-88833749D01*
X120098330Y-88738712D01*
X120043949Y-88627283D01*
X120010981Y-88542568D01*
X119981981Y-88492937D01*
X119973527Y-88487545D01*
X119948218Y-88459250D01*
X119932161Y-88411949D01*
X119862195Y-88069830D01*
X119819587Y-87783468D01*
X119803557Y-87547604D01*
X119803546Y-87546804D01*
X119797578Y-87419072D01*
X119785030Y-87315583D01*
X119768470Y-87256560D01*
X119766274Y-87253349D01*
X119754522Y-87206715D01*
X119745084Y-87109005D01*
X119738189Y-86976307D01*
X119734068Y-86824706D01*
X119732949Y-86670292D01*
X119735063Y-86529150D01*
X119740639Y-86417369D01*
X119749906Y-86351036D01*
X119753276Y-86342661D01*
X119759878Y-86301976D01*
X119767920Y-86206727D01*
X119776819Y-86069518D01*
X119785991Y-85902952D01*
X119794854Y-85719629D01*
X119802825Y-85532153D01*
X119809321Y-85353126D01*
X119813759Y-85195151D01*
X119815556Y-85070829D01*
X119814917Y-85010164D01*
X119812709Y-84937309D01*
X119809102Y-84814757D01*
X119804607Y-84659981D01*
X119800014Y-84500278D01*
X119793300Y-84320080D01*
X119783952Y-84194326D01*
X119769988Y-84110268D01*
X119749429Y-84055158D01*
X119725705Y-84022011D01*
X119689735Y-83968367D01*
X119675713Y-83898892D01*
X119679977Y-83791095D01*
X119683008Y-83759972D01*
X119689481Y-83624864D01*
X119674002Y-83541461D01*
X119658130Y-83515885D01*
X119630391Y-83459266D01*
X119596480Y-83354609D01*
X119560861Y-83220225D01*
X119527998Y-83074423D01*
X119502357Y-82935514D01*
X119488403Y-82821808D01*
X119488215Y-82819034D01*
X119468762Y-82724103D01*
X119434076Y-82654049D01*
X119407109Y-82582882D01*
X119394695Y-82464732D01*
X119396715Y-82318188D01*
X119413047Y-82161842D01*
X119438074Y-82035206D01*
X119462851Y-81931642D01*
X119480402Y-81849020D01*
X119483749Y-81829453D01*
X119512090Y-81772761D01*
X119573389Y-81698471D01*
X119598980Y-81673182D01*
X119665122Y-81600999D01*
X119702845Y-81539682D01*
X119706205Y-81524510D01*
X119729374Y-81467768D01*
X119777034Y-81411998D01*
X119840704Y-81338314D01*
X119902932Y-81242579D01*
X119909504Y-81230402D01*
X119990505Y-81072258D01*
X120063629Y-80922870D01*
X120122958Y-80794982D01*
X120162576Y-80701338D01*
X120176576Y-80655181D01*
X120191253Y-80601591D01*
X120223964Y-80530030D01*
X120360747Y-80219861D01*
X120412033Y-80055453D01*
X120446914Y-79947946D01*
X120486424Y-79858809D01*
X120499049Y-79837991D01*
X120536998Y-79753609D01*
X120546152Y-79696970D01*
X120561011Y-79588663D01*
X120564011Y-79584105D01*
X120865332Y-79584105D01*
X120867996Y-79615065D01*
X120880148Y-79617703D01*
X120914362Y-79593314D01*
X120915729Y-79584105D01*
X120904266Y-79551381D01*
X120900913Y-79550508D01*
X120872228Y-79574051D01*
X120865332Y-79584105D01*
X120564011Y-79584105D01*
X120601722Y-79526813D01*
X120633742Y-79516910D01*
X120665910Y-79491665D01*
X120679649Y-79410961D01*
X120680544Y-79369638D01*
X120686978Y-79271973D01*
X120711133Y-79222288D01*
X120745518Y-79205375D01*
X120800503Y-79160113D01*
X120832653Y-79058665D01*
X120865577Y-78944982D01*
X120915975Y-78842420D01*
X120920892Y-78835178D01*
X120954020Y-78778212D01*
X120971664Y-78713059D01*
X120976298Y-78620831D01*
X120970399Y-78482637D01*
X120969327Y-78465601D01*
X120941020Y-78128060D01*
X120901655Y-77815295D01*
X120853229Y-77539913D01*
X120797736Y-77314517D01*
X120776765Y-77249053D01*
X120742499Y-77140055D01*
X120714175Y-77036609D01*
X120673369Y-76932039D01*
X120614062Y-76845946D01*
X120551300Y-76798378D01*
X120532546Y-76794556D01*
X120491075Y-76769131D01*
X120432226Y-76706744D01*
X120412693Y-76681648D01*
X120268999Y-76535020D01*
X120099902Y-76442013D01*
X120005048Y-76417531D01*
X119895703Y-76380125D01*
X119795245Y-76315802D01*
X119790155Y-76311213D01*
X119709763Y-76252104D01*
X119634818Y-76220432D01*
X119625704Y-76219200D01*
X119545596Y-76213274D01*
X119510133Y-76210559D01*
X119455244Y-76182773D01*
X119422434Y-76148481D01*
X119359731Y-76100231D01*
X119316126Y-76089719D01*
X119242853Y-76074030D01*
X119154042Y-76036456D01*
X119151840Y-76035279D01*
X119046645Y-75987190D01*
X118950253Y-75953759D01*
X118853087Y-75926609D01*
X118780278Y-75905164D01*
X118719157Y-75905646D01*
X118675698Y-75961615D01*
X118673772Y-75965775D01*
X118610297Y-76042586D01*
X118523450Y-76076093D01*
X118436193Y-76061504D01*
X118390821Y-76024816D01*
X118355058Y-75947256D01*
X118324883Y-75820577D01*
X118301748Y-75662726D01*
X118287107Y-75491653D01*
X118282415Y-75325305D01*
X118289124Y-75181633D01*
X118308689Y-75078583D01*
X118313232Y-75066778D01*
X118375095Y-74917348D01*
X118408039Y-74822549D01*
X118413927Y-74796407D01*
X118445997Y-74696015D01*
X118503497Y-74587011D01*
X118554997Y-74519705D01*
X118597887Y-74454309D01*
X118646479Y-74348629D01*
X118691258Y-74227830D01*
X118722704Y-74117077D01*
X118731867Y-74052057D01*
X118746379Y-73993736D01*
X118782668Y-73905886D01*
X118797832Y-73874876D01*
X118845813Y-73754980D01*
X118897057Y-73581219D01*
X118948165Y-73366595D01*
X118995739Y-73124110D01*
X118999118Y-73104890D01*
X119007185Y-72952213D01*
X118982103Y-72766407D01*
X118922349Y-72540489D01*
X118826399Y-72267476D01*
X118803820Y-72209370D01*
X118753782Y-72100051D01*
X118693508Y-71992835D01*
X118635093Y-71907280D01*
X118590632Y-71862939D01*
X118589076Y-71862192D01*
X118564060Y-71823832D01*
X118563877Y-71820028D01*
X118541463Y-71782676D01*
X118482573Y-71713924D01*
X118441800Y-71671804D01*
X118563877Y-71671804D01*
X118580676Y-71688603D01*
X118597475Y-71671804D01*
X118580676Y-71655005D01*
X118563877Y-71671804D01*
X118441800Y-71671804D01*
X118399734Y-71628348D01*
X118395888Y-71624574D01*
X118311755Y-71534921D01*
X118251491Y-71456827D01*
X118227908Y-71406937D01*
X118227898Y-71406353D01*
X118203009Y-71359693D01*
X118178684Y-71352624D01*
X118126992Y-71325743D01*
X118089723Y-71277029D01*
X118039840Y-71204983D01*
X117965716Y-71120655D01*
X117945750Y-71100720D01*
X117884199Y-71037812D01*
X117851586Y-70997652D01*
X117849922Y-70991527D01*
X117849559Y-70949243D01*
X117807806Y-70881291D01*
X117738040Y-70800937D01*
X117653638Y-70721442D01*
X117567980Y-70656073D01*
X117494442Y-70618093D01*
X117468624Y-70613471D01*
X117403564Y-70595341D01*
X117387951Y-70563074D01*
X117364726Y-70518452D01*
X117344669Y-70512677D01*
X117304033Y-70488771D01*
X117239079Y-70428857D01*
X117165861Y-70350639D01*
X117100435Y-70271822D01*
X117058857Y-70210112D01*
X117051972Y-70189916D01*
X117031569Y-70148297D01*
X117002459Y-70112321D01*
X116954102Y-70060462D01*
X116877555Y-69978489D01*
X116800871Y-69896432D01*
X116723318Y-69809178D01*
X116668528Y-69739334D01*
X116648798Y-69703244D01*
X116621622Y-69675981D01*
X116599583Y-69672730D01*
X116547597Y-69645936D01*
X116510282Y-69597828D01*
X116456534Y-69515379D01*
X116400578Y-69455503D01*
X116366059Y-69437545D01*
X116334690Y-69415586D01*
X116269944Y-69357855D01*
X116265471Y-69353550D01*
X116380015Y-69353550D01*
X116396814Y-69370349D01*
X116413613Y-69353550D01*
X116396814Y-69336751D01*
X116380015Y-69353550D01*
X116265471Y-69353550D01*
X116185483Y-69276565D01*
X116180483Y-69271600D01*
X116086006Y-69182024D01*
X116000850Y-69108841D01*
X115945252Y-69069043D01*
X115883709Y-69008752D01*
X115856002Y-68949405D01*
X115829814Y-68886960D01*
X115804488Y-68866381D01*
X115769571Y-68839213D01*
X115735542Y-68782386D01*
X115692579Y-68720394D01*
X115652267Y-68698391D01*
X115612436Y-68671382D01*
X115607263Y-68647994D01*
X115602027Y-68616007D01*
X115575384Y-68598115D01*
X115510933Y-68588563D01*
X115422475Y-68583126D01*
X115320687Y-68564886D01*
X115246086Y-68536182D01*
X115204406Y-68504929D01*
X115181511Y-68457304D01*
X115172030Y-68374942D01*
X115170491Y-68277686D01*
X115170491Y-68060933D01*
X115296483Y-68007699D01*
X115393842Y-67973316D01*
X115526886Y-67935229D01*
X115679918Y-67896868D01*
X115837242Y-67861666D01*
X115983162Y-67833054D01*
X116101981Y-67814464D01*
X116178003Y-67809328D01*
X116192755Y-67811748D01*
X116237569Y-67814790D01*
X116245623Y-67801989D01*
X116275063Y-67779695D01*
X116346747Y-67765755D01*
X116354816Y-67765173D01*
X116449962Y-67755321D01*
X116577736Y-67737151D01*
X116715514Y-67714475D01*
X116840672Y-67691107D01*
X116930589Y-67670861D01*
X116951179Y-67664648D01*
X117017249Y-67641515D01*
X117035173Y-67635397D01*
X117081741Y-67622666D01*
X117175764Y-67598841D01*
X117299339Y-67568434D01*
X117337554Y-67559172D01*
X117607869Y-67491890D01*
X117821361Y-67433710D01*
X117987275Y-67381464D01*
X118114854Y-67331980D01*
X118213341Y-67282090D01*
X118284453Y-67234444D01*
X118366982Y-67181765D01*
X118436544Y-67154108D01*
X118447868Y-67152889D01*
X118512420Y-67137586D01*
X118602372Y-67099587D01*
X118626498Y-67087154D01*
X118721755Y-67038422D01*
X118849066Y-66976499D01*
X118967052Y-66921192D01*
X119105014Y-66855681D01*
X119243563Y-66786394D01*
X119336628Y-66737072D01*
X119443144Y-66681141D01*
X119582626Y-66612102D01*
X119726587Y-66544023D01*
X119739803Y-66537960D01*
X120037523Y-66400128D01*
X120277631Y-66285048D01*
X120464813Y-66190290D01*
X120603757Y-66113422D01*
X120699148Y-66052015D01*
X120740321Y-66018960D01*
X120802769Y-65982555D01*
X120831334Y-65976963D01*
X120880228Y-65959815D01*
X120887731Y-65949545D01*
X120921068Y-65923892D01*
X121001297Y-65877684D01*
X121114398Y-65818731D01*
X121184512Y-65784198D01*
X121473463Y-65615447D01*
X121694494Y-65433639D01*
X121826396Y-65309419D01*
X121918724Y-65224843D01*
X121980064Y-65172698D01*
X122019008Y-65145773D01*
X122044143Y-65136854D01*
X122048240Y-65136597D01*
X122085909Y-65115409D01*
X122154802Y-65061276D01*
X122212632Y-65010605D01*
X122345269Y-64893056D01*
X122460639Y-64797132D01*
X122548833Y-64730676D01*
X122599938Y-64701531D01*
X122604023Y-64700854D01*
X122626876Y-64673156D01*
X122629221Y-64653441D01*
X122656322Y-64601574D01*
X122679618Y-64587299D01*
X122724312Y-64542398D01*
X122730015Y-64516509D01*
X122750203Y-64471164D01*
X122768184Y-64465058D01*
X122805270Y-64441906D01*
X122876920Y-64379076D01*
X122972380Y-64286507D01*
X123067837Y-64188031D01*
X123188149Y-64056443D01*
X123263087Y-63963645D01*
X123297121Y-63903361D01*
X123294729Y-63869324D01*
X123286101Y-63823102D01*
X123324984Y-63751769D01*
X123356253Y-63712004D01*
X123423492Y-63641111D01*
X123479545Y-63598852D01*
X123494367Y-63593939D01*
X123533454Y-63565096D01*
X123536419Y-63549516D01*
X123559326Y-63504620D01*
X123618158Y-63434035D01*
X123670811Y-63381119D01*
X123745334Y-63305385D01*
X123794113Y-63245047D01*
X123805147Y-63221529D01*
X123832366Y-63192081D01*
X123855544Y-63188338D01*
X123900128Y-63163290D01*
X123905941Y-63141536D01*
X123932929Y-63089091D01*
X123953798Y-63076369D01*
X123998298Y-63035934D01*
X124048055Y-62959020D01*
X124058421Y-62938381D01*
X124118657Y-62848139D01*
X124192564Y-62782477D01*
X124203751Y-62776448D01*
X124272214Y-62721194D01*
X124303014Y-62659152D01*
X124338285Y-62579025D01*
X124375160Y-62541127D01*
X124427662Y-62485772D01*
X124487925Y-62396742D01*
X124510646Y-62356043D01*
X124561661Y-62272281D01*
X124607164Y-62220805D01*
X124623288Y-62213133D01*
X124658959Y-62184591D01*
X124704954Y-62113327D01*
X124726242Y-62070342D01*
X124794124Y-61952819D01*
X124881618Y-61839645D01*
X124902631Y-61817607D01*
X124969140Y-61746048D01*
X125009291Y-61691696D01*
X125014671Y-61677390D01*
X125033641Y-61636571D01*
X125082664Y-61561667D01*
X125132263Y-61493928D01*
X125197102Y-61397643D01*
X125239812Y-61312478D01*
X125249856Y-61271914D01*
X125271837Y-61207433D01*
X125300253Y-61184615D01*
X125344736Y-61150655D01*
X125350650Y-61133492D01*
X125366572Y-61093043D01*
X125409703Y-61007969D01*
X125473092Y-60891506D01*
X125513850Y-60819687D01*
X125585835Y-60819687D01*
X125602634Y-60836486D01*
X125619433Y-60819687D01*
X125602634Y-60802889D01*
X125585835Y-60819687D01*
X125513850Y-60819687D01*
X125535438Y-60781648D01*
X125610556Y-60647394D01*
X125670978Y-60531515D01*
X125709662Y-60448024D01*
X125720226Y-60413853D01*
X125743979Y-60370147D01*
X125762224Y-60364811D01*
X125797783Y-60335767D01*
X125845906Y-60262093D01*
X125882843Y-60188422D01*
X125970467Y-59996557D01*
X126036103Y-59860910D01*
X126082967Y-59775410D01*
X126114274Y-59733984D01*
X126126775Y-59727756D01*
X126151167Y-59698445D01*
X126180323Y-59624557D01*
X126191769Y-59584965D01*
X126225479Y-59479456D01*
X126278936Y-59336550D01*
X126342712Y-59179384D01*
X126407381Y-59031093D01*
X126463517Y-58914815D01*
X126468964Y-58904608D01*
X126486322Y-58871010D01*
X126896152Y-58871010D01*
X126912951Y-58887809D01*
X126929750Y-58871010D01*
X126912951Y-58854211D01*
X126896152Y-58871010D01*
X126486322Y-58871010D01*
X126539532Y-58768014D01*
X126587678Y-58654866D01*
X126626964Y-58531862D01*
X126639972Y-58484635D01*
X126696696Y-58291241D01*
X126757931Y-58112024D01*
X126818310Y-57960754D01*
X126872464Y-57851204D01*
X126904552Y-57805926D01*
X126951136Y-57727103D01*
X126963348Y-57666500D01*
X126973446Y-57574342D01*
X126993139Y-57490111D01*
X127017620Y-57406165D01*
X127051386Y-57285623D01*
X127081779Y-57174317D01*
X127100466Y-57107121D01*
X127534512Y-57107121D01*
X127546805Y-57134776D01*
X127556911Y-57129520D01*
X127560932Y-57089647D01*
X127556911Y-57084723D01*
X127536937Y-57089335D01*
X127534512Y-57107121D01*
X127100466Y-57107121D01*
X127119919Y-57037171D01*
X127168870Y-56867178D01*
X127219572Y-56695683D01*
X127232277Y-56653550D01*
X127308340Y-56401261D01*
X127366861Y-56203536D01*
X127410427Y-56050831D01*
X127441631Y-55933602D01*
X127463062Y-55842305D01*
X127477310Y-55767394D01*
X127483039Y-55729608D01*
X127498397Y-55626425D01*
X127517904Y-55511511D01*
X127544446Y-55369023D01*
X127580909Y-55183114D01*
X127599285Y-55091214D01*
X127630997Y-54928524D01*
X127654397Y-54793036D01*
X127672670Y-54661624D01*
X127689002Y-54511166D01*
X127706576Y-54318538D01*
X127708038Y-54301698D01*
X127723384Y-54124599D01*
X127733716Y-54002986D01*
X127739669Y-53925387D01*
X127741877Y-53880330D01*
X127740976Y-53856343D01*
X127737599Y-53841954D01*
X127734065Y-53831328D01*
X127731801Y-53753948D01*
X127752731Y-53646447D01*
X127788807Y-53538192D01*
X127831983Y-53458552D01*
X127838201Y-53451288D01*
X127874070Y-53399114D01*
X127869850Y-53371826D01*
X127854277Y-53333184D01*
X127868100Y-53244774D01*
X127868469Y-53243365D01*
X127897373Y-53087567D01*
X127919191Y-52871848D01*
X127933880Y-52603115D01*
X127941397Y-52288272D01*
X127941699Y-51934224D01*
X127934744Y-51547876D01*
X127920489Y-51136135D01*
X127898892Y-50705904D01*
X127885479Y-50488338D01*
X127875025Y-50357385D01*
X127862871Y-50247437D01*
X127851485Y-50180450D01*
X127850488Y-50176972D01*
X127841394Y-50138471D01*
X127832178Y-50077534D01*
X127822214Y-49987000D01*
X127810875Y-49859709D01*
X127797537Y-49688501D01*
X127781573Y-49466215D01*
X127762358Y-49185690D01*
X127757322Y-49110825D01*
X127743449Y-48949255D01*
X127724514Y-48786402D01*
X127704309Y-48654293D01*
X127701669Y-48640455D01*
X127679489Y-48522862D01*
X127904089Y-48522862D01*
X127920888Y-48539661D01*
X127937687Y-48522862D01*
X127920888Y-48506063D01*
X127904089Y-48522862D01*
X127679489Y-48522862D01*
X127678172Y-48515877D01*
X127649602Y-48356424D01*
X127621579Y-48193558D01*
X127617654Y-48170084D01*
X127597541Y-48050909D01*
X127579272Y-47948643D01*
X127559748Y-47848305D01*
X127535867Y-47734914D01*
X127504530Y-47593489D01*
X127462637Y-47409049D01*
X127436883Y-47296539D01*
X127391800Y-47102821D01*
X127354764Y-46955137D01*
X127319574Y-46833853D01*
X127280032Y-46719336D01*
X127229937Y-46591951D01*
X127166360Y-46439793D01*
X127107741Y-46295034D01*
X127060670Y-46167141D01*
X127060126Y-46165411D01*
X127142537Y-46165411D01*
X127147149Y-46185384D01*
X127164935Y-46187809D01*
X127192590Y-46175516D01*
X127187334Y-46165411D01*
X127147461Y-46161390D01*
X127142537Y-46165411D01*
X127060126Y-46165411D01*
X127030844Y-46072314D01*
X127023216Y-46032609D01*
X126996615Y-45954883D01*
X126964489Y-45919849D01*
X126921393Y-45850790D01*
X126922129Y-45798284D01*
X126915398Y-45723558D01*
X126885312Y-45698277D01*
X126848669Y-45659870D01*
X126849808Y-45634999D01*
X126838170Y-45588463D01*
X126811772Y-45570749D01*
X126773238Y-45528179D01*
X126778507Y-45482419D01*
X126782045Y-45428762D01*
X126765207Y-45415058D01*
X126719575Y-45384939D01*
X126678070Y-45307929D01*
X126650981Y-45204052D01*
X126648962Y-45188830D01*
X126626213Y-45089302D01*
X126599075Y-45021794D01*
X126566334Y-44923701D01*
X126568334Y-44827095D01*
X126996946Y-44827095D01*
X127013745Y-44843894D01*
X127030544Y-44827095D01*
X127013745Y-44810296D01*
X126996946Y-44827095D01*
X126568334Y-44827095D01*
X126568742Y-44807386D01*
X126608193Y-44661283D01*
X126686582Y-44473823D01*
X126689964Y-44466563D01*
X126751102Y-44332300D01*
X126802984Y-44212192D01*
X126837351Y-44125597D01*
X126844326Y-44104740D01*
X126869274Y-44034397D01*
X126913171Y-43923273D01*
X126967436Y-43791883D01*
X127023489Y-43660744D01*
X127072747Y-43550371D01*
X127099511Y-43494648D01*
X127133041Y-43416042D01*
X127176764Y-43295531D01*
X127225484Y-43149789D01*
X127274006Y-42995493D01*
X127317133Y-42849316D01*
X127349668Y-42727933D01*
X127366417Y-42648020D01*
X127367591Y-42634331D01*
X127386547Y-42539317D01*
X127417988Y-42477221D01*
X127457712Y-42394552D01*
X127467316Y-42338270D01*
X127482815Y-42255394D01*
X127517506Y-42168303D01*
X127553627Y-42078082D01*
X127567903Y-42003193D01*
X127586730Y-41926527D01*
X127608427Y-41894000D01*
X127632921Y-41860000D01*
X127628267Y-41853682D01*
X127625282Y-41824641D01*
X127639088Y-41749736D01*
X127657816Y-41677293D01*
X127716651Y-41460015D01*
X127761069Y-41275483D01*
X127785910Y-41148127D01*
X127796807Y-41083995D01*
X127810341Y-41022195D01*
X127831612Y-40942558D01*
X127865725Y-40824915D01*
X127879417Y-40778550D01*
X128003153Y-40318744D01*
X128093814Y-39889742D01*
X128149967Y-39499655D01*
X128170179Y-39156596D01*
X128170203Y-39132254D01*
X128170499Y-38956521D01*
X128172364Y-38750707D01*
X128175554Y-38524577D01*
X128179828Y-38287895D01*
X128184941Y-38050426D01*
X128190649Y-37821936D01*
X128196711Y-37612189D01*
X128202882Y-37430951D01*
X128208919Y-37287985D01*
X128214579Y-37193058D01*
X128219437Y-37156177D01*
X128222393Y-37111667D01*
X128213254Y-37025316D01*
X128203942Y-36969447D01*
X128193449Y-36881195D01*
X128441655Y-36881195D01*
X128455725Y-36935791D01*
X128475253Y-36948391D01*
X128502551Y-36920251D01*
X128508851Y-36881195D01*
X128494781Y-36826600D01*
X128475253Y-36814000D01*
X128447955Y-36842139D01*
X128441655Y-36881195D01*
X128193449Y-36881195D01*
X128191413Y-36864071D01*
X128194114Y-36781295D01*
X128201344Y-36757156D01*
X128212374Y-36696912D01*
X128212360Y-36696407D01*
X128441655Y-36696407D01*
X128458454Y-36713206D01*
X128475253Y-36696407D01*
X128458454Y-36679608D01*
X128441655Y-36696407D01*
X128212360Y-36696407D01*
X128209671Y-36598359D01*
X128202023Y-36536019D01*
X128192137Y-36393333D01*
X128198809Y-36222735D01*
X128209740Y-36127296D01*
X128230218Y-35953952D01*
X128245309Y-35758715D01*
X128254574Y-35558209D01*
X128257574Y-35369063D01*
X128253870Y-35207902D01*
X128243023Y-35091353D01*
X128237776Y-35065415D01*
X128220602Y-34971150D01*
X128204575Y-34838441D01*
X128193160Y-34695999D01*
X128193151Y-34695839D01*
X128178031Y-34453827D01*
X128162267Y-34237508D01*
X128146705Y-34056406D01*
X128132191Y-33920046D01*
X128119569Y-33837951D01*
X128115750Y-33823788D01*
X128108057Y-33801138D01*
X128101483Y-33774453D01*
X128098214Y-33754609D01*
X128172872Y-33754609D01*
X128197261Y-33788823D01*
X128206470Y-33790190D01*
X128239194Y-33778727D01*
X128240068Y-33775374D01*
X128216524Y-33746689D01*
X128206470Y-33739793D01*
X128175510Y-33742457D01*
X128172872Y-33754609D01*
X128098214Y-33754609D01*
X128094662Y-33733041D01*
X128086229Y-33666213D01*
X128074820Y-33563275D01*
X128065114Y-33471010D01*
X128105676Y-33471010D01*
X128122475Y-33487809D01*
X128139274Y-33471010D01*
X128122475Y-33454211D01*
X128105676Y-33471010D01*
X128065114Y-33471010D01*
X128061579Y-33437412D01*
X128172872Y-33437412D01*
X128189671Y-33454211D01*
X128206470Y-33437412D01*
X128189671Y-33420613D01*
X128172872Y-33437412D01*
X128061579Y-33437412D01*
X128059068Y-33413539D01*
X128040660Y-33235825D01*
X128023398Y-33081118D01*
X128006247Y-32948367D01*
X127991419Y-32853605D01*
X127982690Y-32815851D01*
X127969808Y-32756409D01*
X127956934Y-32654816D01*
X127949138Y-32563867D01*
X127935118Y-32423436D01*
X127912130Y-32255644D01*
X127887576Y-32110296D01*
X127865842Y-31980782D01*
X127840366Y-31805771D01*
X127838432Y-31791116D01*
X127904089Y-31791116D01*
X127920888Y-31807915D01*
X127937687Y-31791116D01*
X127920888Y-31774317D01*
X127904089Y-31791116D01*
X127838432Y-31791116D01*
X127814082Y-31606627D01*
X127810025Y-31572730D01*
X128004882Y-31572730D01*
X128017175Y-31600385D01*
X128027281Y-31595128D01*
X128031302Y-31555256D01*
X128027281Y-31550331D01*
X128007307Y-31554943D01*
X128004882Y-31572730D01*
X127810025Y-31572730D01*
X127789918Y-31404717D01*
X127788048Y-31387941D01*
X127836893Y-31387941D01*
X127853692Y-31404740D01*
X127870491Y-31387941D01*
X127971285Y-31387941D01*
X127988083Y-31404740D01*
X128004882Y-31387941D01*
X127988083Y-31371142D01*
X127971285Y-31387941D01*
X127870491Y-31387941D01*
X127853692Y-31371142D01*
X127836893Y-31387941D01*
X127788048Y-31387941D01*
X127786176Y-31371142D01*
X127765529Y-31185003D01*
X127754340Y-31085560D01*
X127803295Y-31085560D01*
X127820094Y-31102359D01*
X127836893Y-31085560D01*
X127820094Y-31068762D01*
X127803295Y-31085560D01*
X127754340Y-31085560D01*
X127746003Y-31011472D01*
X127729465Y-30866975D01*
X127717782Y-30767936D01*
X127715508Y-30749582D01*
X127704895Y-30665587D01*
X127920888Y-30665587D01*
X127923552Y-30696547D01*
X127935704Y-30699185D01*
X127969917Y-30674796D01*
X127971285Y-30665587D01*
X127959821Y-30632863D01*
X127956468Y-30631989D01*
X127927784Y-30655532D01*
X127920888Y-30665587D01*
X127704895Y-30665587D01*
X127702261Y-30644739D01*
X127685839Y-30514396D01*
X127836893Y-30514396D01*
X127853692Y-30531195D01*
X127870491Y-30514396D01*
X127853692Y-30497598D01*
X127836893Y-30514396D01*
X127685839Y-30514396D01*
X127684730Y-30505594D01*
X127668940Y-30380005D01*
X127659953Y-30312809D01*
X127836893Y-30312809D01*
X127853692Y-30329608D01*
X127870491Y-30312809D01*
X127853692Y-30296010D01*
X127836893Y-30312809D01*
X127659953Y-30312809D01*
X127604587Y-29898826D01*
X127601091Y-29876037D01*
X127803295Y-29876037D01*
X127820094Y-29892836D01*
X127836893Y-29876037D01*
X127820094Y-29859238D01*
X127803295Y-29876037D01*
X127601091Y-29876037D01*
X127595079Y-29836839D01*
X127646505Y-29836839D01*
X127651117Y-29856813D01*
X127668904Y-29859238D01*
X127696558Y-29846945D01*
X127691302Y-29836839D01*
X127651429Y-29832818D01*
X127646505Y-29836839D01*
X127595079Y-29836839D01*
X127539996Y-29477720D01*
X127475596Y-29119362D01*
X127433401Y-28918497D01*
X127407930Y-28794801D01*
X127381033Y-28648174D01*
X127368532Y-28573140D01*
X127339962Y-28428540D01*
X127299633Y-28265634D01*
X127271824Y-28169965D01*
X127237752Y-28061751D01*
X127265729Y-28061751D01*
X127282528Y-28078550D01*
X127299327Y-28061751D01*
X127282528Y-28044952D01*
X127265729Y-28061751D01*
X127237752Y-28061751D01*
X127234871Y-28052601D01*
X127227187Y-28028153D01*
X127332925Y-28028153D01*
X127349724Y-28044952D01*
X127366523Y-28028153D01*
X127349724Y-28011354D01*
X127332925Y-28028153D01*
X127227187Y-28028153D01*
X127184771Y-27893196D01*
X127128462Y-27713836D01*
X127079519Y-27557783D01*
X127029370Y-27401424D01*
X126984348Y-27267694D01*
X126949159Y-27170125D01*
X126928507Y-27122250D01*
X126927653Y-27121010D01*
X126905613Y-27068401D01*
X126882545Y-26979466D01*
X126877291Y-26953021D01*
X126850354Y-26848431D01*
X126815816Y-26762780D01*
X126809185Y-26751433D01*
X126760093Y-26649516D01*
X126706945Y-26494679D01*
X126654141Y-26300664D01*
X126626412Y-26180269D01*
X126591238Y-26044207D01*
X126547948Y-25912180D01*
X126521090Y-25846379D01*
X126505647Y-25810693D01*
X126593771Y-25810693D01*
X126610570Y-25827492D01*
X126627369Y-25810693D01*
X126610570Y-25793894D01*
X126593771Y-25810693D01*
X126505647Y-25810693D01*
X126483074Y-25758530D01*
X126461346Y-25696030D01*
X126459380Y-25684390D01*
X126438671Y-25637009D01*
X126417382Y-25610455D01*
X126316994Y-25492213D01*
X126288033Y-25441116D01*
X126358586Y-25441116D01*
X126375385Y-25457915D01*
X126392184Y-25441116D01*
X126375385Y-25424317D01*
X126358586Y-25441116D01*
X126288033Y-25441116D01*
X126253914Y-25380917D01*
X126237816Y-25334723D01*
X126336188Y-25334723D01*
X126340800Y-25354697D01*
X126358586Y-25357121D01*
X126386241Y-25344828D01*
X126383897Y-25340322D01*
X126560173Y-25340322D01*
X126576972Y-25357121D01*
X126593771Y-25340322D01*
X126576972Y-25323523D01*
X126560173Y-25340322D01*
X126383897Y-25340322D01*
X126380985Y-25334723D01*
X126341112Y-25330702D01*
X126336188Y-25334723D01*
X126237816Y-25334723D01*
X126219915Y-25283358D01*
X126183720Y-25182466D01*
X126143374Y-25104321D01*
X126131064Y-25088338D01*
X126085860Y-25028025D01*
X126029461Y-24937663D01*
X126010643Y-24904376D01*
X125952688Y-24816047D01*
X125886687Y-24769860D01*
X125788383Y-24745372D01*
X125668001Y-24717326D01*
X125555994Y-24679614D01*
X125534397Y-24670122D01*
X125453169Y-24646825D01*
X125355520Y-24638598D01*
X125263540Y-24644477D01*
X125199321Y-24663497D01*
X125182660Y-24685484D01*
X125155319Y-24714615D01*
X125071069Y-24751208D01*
X124926569Y-24796495D01*
X124762687Y-24840495D01*
X124636445Y-24878414D01*
X124530108Y-24920308D01*
X124466379Y-24957211D01*
X124465798Y-24957742D01*
X124389391Y-25003944D01*
X124291111Y-25035946D01*
X124289409Y-25036270D01*
X124208466Y-25064284D01*
X124174827Y-25103790D01*
X124174724Y-25106094D01*
X124146577Y-25145782D01*
X124075324Y-25198192D01*
X123980746Y-25252367D01*
X123882622Y-25297353D01*
X123800735Y-25322196D01*
X123781065Y-25324104D01*
X123717383Y-25347602D01*
X123646395Y-25403554D01*
X123644343Y-25405696D01*
X123557999Y-25471004D01*
X123468155Y-25508534D01*
X123388761Y-25536937D01*
X123343376Y-25571543D01*
X123291581Y-25623770D01*
X123200202Y-25690899D01*
X123090633Y-25759594D01*
X122984265Y-25816520D01*
X122902489Y-25848340D01*
X122897683Y-25849395D01*
X122812429Y-25891685D01*
X122761291Y-25949422D01*
X122700612Y-26018333D01*
X122639857Y-26050427D01*
X122579920Y-26076370D01*
X122562025Y-26099917D01*
X122536309Y-26128981D01*
X122528103Y-26129873D01*
X122487700Y-26148735D01*
X122407786Y-26199281D01*
X122302280Y-26272448D01*
X122244642Y-26314415D01*
X122123389Y-26401466D01*
X122012764Y-26476282D01*
X121930504Y-26527037D01*
X121908988Y-26538194D01*
X121846041Y-26581246D01*
X121822872Y-26622435D01*
X121794911Y-26659154D01*
X121756858Y-26667439D01*
X121689379Y-26694528D01*
X121655069Y-26734287D01*
X121601049Y-26794925D01*
X121518080Y-26852000D01*
X121511095Y-26855616D01*
X121399646Y-26923852D01*
X121282916Y-27022836D01*
X121191803Y-27114570D01*
X121121298Y-27171133D01*
X121028706Y-27225725D01*
X121022727Y-27228633D01*
X120952917Y-27273927D01*
X120851174Y-27354757D01*
X120732568Y-27458637D01*
X120639871Y-27545854D01*
X120526932Y-27651715D01*
X120427891Y-27737329D01*
X120354398Y-27793067D01*
X120320487Y-27809767D01*
X120256665Y-27833693D01*
X120198690Y-27887357D01*
X120176576Y-27938709D01*
X120154342Y-27975243D01*
X120094457Y-28047106D01*
X120007146Y-28142480D01*
X119941390Y-28210606D01*
X119841863Y-28314834D01*
X119763198Y-28403131D01*
X119715620Y-28463678D01*
X119706205Y-28482438D01*
X119678059Y-28509158D01*
X119639009Y-28515322D01*
X119584411Y-28529233D01*
X119571814Y-28548536D01*
X119548090Y-28605319D01*
X119493850Y-28668615D01*
X119434490Y-28711472D01*
X119413156Y-28716910D01*
X119373552Y-28743147D01*
X119370226Y-28759561D01*
X119347937Y-28805851D01*
X119287033Y-28889097D01*
X119196463Y-28998787D01*
X119085174Y-29124412D01*
X118962115Y-29255460D01*
X118863215Y-29355167D01*
X118763671Y-29458285D01*
X118646663Y-29587464D01*
X118536331Y-29715999D01*
X118529017Y-29724846D01*
X118442438Y-29827904D01*
X118369719Y-29910812D01*
X118323099Y-29959738D01*
X118315685Y-29965962D01*
X118280077Y-30009613D01*
X118236295Y-30087021D01*
X118229875Y-30100354D01*
X118174082Y-30185010D01*
X118108171Y-30242125D01*
X118101871Y-30245181D01*
X118043408Y-30294711D01*
X118026311Y-30343156D01*
X118025005Y-30373530D01*
X118015949Y-30402485D01*
X117991437Y-30439969D01*
X117943764Y-30495928D01*
X117865224Y-30580309D01*
X117748110Y-30703059D01*
X117744861Y-30706455D01*
X117649660Y-30815418D01*
X117569728Y-30923898D01*
X117520920Y-31010158D01*
X117518176Y-31017236D01*
X117481885Y-31094347D01*
X117446447Y-31134838D01*
X117439998Y-31136592D01*
X117405367Y-31163749D01*
X117351723Y-31233481D01*
X117303957Y-31308704D01*
X117238574Y-31412214D01*
X117176696Y-31497592D01*
X117144367Y-31533923D01*
X117098108Y-31590710D01*
X117085570Y-31625386D01*
X117062763Y-31673735D01*
X117015006Y-31726969D01*
X116966124Y-31767130D01*
X116952359Y-31761052D01*
X116956209Y-31734379D01*
X116949982Y-31680889D01*
X116934380Y-31667327D01*
X116909691Y-31689408D01*
X116891978Y-31757438D01*
X116890079Y-31774317D01*
X116855859Y-31888836D01*
X116803062Y-31959105D01*
X116738163Y-32040776D01*
X116703931Y-32118695D01*
X116671860Y-32185627D01*
X116631359Y-32211090D01*
X116587144Y-32234287D01*
X116581602Y-32253831D01*
X116561813Y-32304427D01*
X116512046Y-32381137D01*
X116487181Y-32413421D01*
X116405772Y-32522045D01*
X116327715Y-32638018D01*
X116316823Y-32655660D01*
X116244169Y-32753746D01*
X116160989Y-32837007D01*
X116144413Y-32849746D01*
X116074985Y-32916795D01*
X115996013Y-33018534D01*
X115942729Y-33102331D01*
X115883901Y-33197862D01*
X115834991Y-33264349D01*
X115809054Y-33286222D01*
X115782902Y-33315193D01*
X115758859Y-33385243D01*
X115758103Y-33388614D01*
X115721435Y-33493358D01*
X115662826Y-33600114D01*
X115595011Y-33690692D01*
X115530723Y-33746903D01*
X115500502Y-33756592D01*
X115449217Y-33770804D01*
X115439274Y-33787798D01*
X115417913Y-33828327D01*
X115363351Y-33897470D01*
X115321681Y-33943688D01*
X115254270Y-34021066D01*
X115211729Y-34081243D01*
X115204089Y-34100820D01*
X115184128Y-34145482D01*
X115134690Y-34215250D01*
X115120094Y-34233090D01*
X115065554Y-34308502D01*
X115037224Y-34368363D01*
X115036099Y-34376867D01*
X115010441Y-34425261D01*
X114952317Y-34475718D01*
X114893911Y-34522043D01*
X114872301Y-34555178D01*
X114870297Y-34643449D01*
X114837535Y-34692587D01*
X114817713Y-34697333D01*
X114774517Y-34724650D01*
X114767316Y-34753484D01*
X114745841Y-34823939D01*
X114719289Y-34862704D01*
X114673367Y-34926301D01*
X114608662Y-35031750D01*
X114535743Y-35160460D01*
X114465177Y-35293836D01*
X114412238Y-35402889D01*
X114327208Y-35583938D01*
X114242359Y-35755264D01*
X114167776Y-35896834D01*
X114132188Y-35959098D01*
X114081632Y-36054816D01*
X114045710Y-36142661D01*
X114045332Y-36143886D01*
X113987366Y-36258288D01*
X113905291Y-36326631D01*
X113812599Y-36342989D01*
X113722782Y-36301432D01*
X113711231Y-36290681D01*
X113686260Y-36270830D01*
X113649605Y-36255002D01*
X113591762Y-36241888D01*
X113503225Y-36230179D01*
X113374487Y-36218566D01*
X113196044Y-36205743D01*
X113003427Y-36193244D01*
X112882594Y-36183834D01*
X112781136Y-36172879D01*
X112734644Y-36165443D01*
X112666765Y-36154232D01*
X112548532Y-36138570D01*
X112396477Y-36120465D01*
X112227132Y-36101924D01*
X112129882Y-36091997D01*
X112072406Y-36087649D01*
X111962585Y-36080455D01*
X111815164Y-36071346D01*
X111644888Y-36061250D01*
X111609115Y-36059179D01*
X111420886Y-36045667D01*
X111272203Y-36029594D01*
X111172352Y-36012203D01*
X111130860Y-35995137D01*
X111109445Y-35977825D01*
X111105661Y-36000063D01*
X111074017Y-36030506D01*
X110983865Y-36039384D01*
X110979155Y-36039267D01*
X110871620Y-36038539D01*
X110726466Y-36040802D01*
X110556822Y-36045484D01*
X110375820Y-36052014D01*
X110196591Y-36059821D01*
X110032266Y-36068334D01*
X109895975Y-36076983D01*
X109800849Y-36085196D01*
X109760209Y-36092277D01*
X109738189Y-36136488D01*
X109727763Y-36217641D01*
X109727634Y-36228020D01*
X109719061Y-36304953D01*
X109698026Y-36342813D01*
X109694036Y-36343629D01*
X109676695Y-36374635D01*
X109664749Y-36457431D01*
X109660438Y-36573215D01*
X109657670Y-36691368D01*
X109650411Y-36781062D01*
X109640227Y-36823009D01*
X109640143Y-36823095D01*
X109633853Y-36861653D01*
X109628788Y-36956341D01*
X109625237Y-37096100D01*
X109623491Y-37269870D01*
X109623727Y-37450256D01*
X109623398Y-37688036D01*
X109619131Y-37869642D01*
X109611087Y-37991867D01*
X109599423Y-38051505D01*
X109593625Y-38057121D01*
X109563480Y-38084328D01*
X109559644Y-38107518D01*
X109573309Y-38152301D01*
X109584843Y-38157935D01*
X109594322Y-38189959D01*
X109600443Y-38279856D01*
X109603255Y-38418387D01*
X109602805Y-38596317D01*
X109599143Y-38804408D01*
X109592315Y-39033423D01*
X109582371Y-39274125D01*
X109578614Y-39350640D01*
X109572852Y-39486779D01*
X109566521Y-39676300D01*
X109559994Y-39905399D01*
X109553641Y-40160269D01*
X109547835Y-40427103D01*
X109543761Y-40644158D01*
X109536568Y-41032744D01*
X109528831Y-41401408D01*
X109520723Y-41744590D01*
X109512418Y-42056725D01*
X109504091Y-42332251D01*
X109495915Y-42565605D01*
X109488064Y-42751226D01*
X109480713Y-42883548D01*
X109474034Y-42957011D01*
X109471017Y-42969907D01*
X109472660Y-43015954D01*
X109489713Y-43058094D01*
X109508083Y-43117853D01*
X109501745Y-43143504D01*
X109491493Y-43185659D01*
X109485022Y-43276148D01*
X109483611Y-43396159D01*
X109483775Y-43407697D01*
X109480743Y-43536340D01*
X109468816Y-43638884D01*
X109450378Y-43694971D01*
X109450120Y-43695287D01*
X109429992Y-43752685D01*
X109450495Y-43801465D01*
X109473474Y-43857604D01*
X109470013Y-43880792D01*
X109453762Y-43928280D01*
X109446466Y-44011800D01*
X109447793Y-44105445D01*
X109457415Y-44183309D01*
X109474316Y-44219236D01*
X109477051Y-44232008D01*
X109446729Y-44236479D01*
X109407590Y-44242639D01*
X109418227Y-44265010D01*
X109457698Y-44298639D01*
X109510382Y-44363041D01*
X109509558Y-44444159D01*
X109508233Y-44449597D01*
X109482823Y-44509259D01*
X109455267Y-44522499D01*
X109428517Y-44524528D01*
X109433800Y-44580491D01*
X109470555Y-44685558D01*
X109475650Y-44697886D01*
X109507852Y-44777905D01*
X109525120Y-44826558D01*
X109526046Y-44831198D01*
X109498608Y-44842491D01*
X109475650Y-44843894D01*
X109437292Y-44871122D01*
X109425767Y-44953087D01*
X109432249Y-45021080D01*
X109450674Y-45023202D01*
X109454690Y-45017466D01*
X109482101Y-44993587D01*
X109505382Y-45030724D01*
X109502315Y-45102516D01*
X109476460Y-45145380D01*
X109436718Y-45211663D01*
X109426903Y-45275191D01*
X109449115Y-45312005D01*
X109461651Y-45314264D01*
X109485905Y-45338193D01*
X109482989Y-45356262D01*
X109484405Y-45419291D01*
X109498171Y-45457055D01*
X109509310Y-45503851D01*
X109470112Y-45515851D01*
X109432144Y-45524797D01*
X109452131Y-45556169D01*
X109482253Y-45609730D01*
X109492060Y-45671984D01*
X109478779Y-45713357D01*
X109467250Y-45717451D01*
X109458864Y-45749206D01*
X109451660Y-45837081D01*
X109446141Y-45970001D01*
X109442812Y-46136894D01*
X109442052Y-46271822D01*
X109443625Y-46456311D01*
X109447978Y-46614795D01*
X109454562Y-46736202D01*
X109462830Y-46809459D01*
X109469514Y-46826174D01*
X109482422Y-46852738D01*
X109474331Y-46897519D01*
X109453377Y-46971915D01*
X109445924Y-47006712D01*
X109425711Y-47072489D01*
X109422978Y-47078153D01*
X109416308Y-47124603D01*
X109412608Y-47221506D01*
X109412315Y-47352167D01*
X109413729Y-47430931D01*
X109417892Y-47599157D01*
X109420496Y-47716643D01*
X109421558Y-47799827D01*
X109421099Y-47865147D01*
X109419138Y-47929040D01*
X109415693Y-48007945D01*
X109414432Y-48035693D01*
X109405522Y-48145906D01*
X109391623Y-48230524D01*
X109381513Y-48260157D01*
X109379842Y-48308706D01*
X109392738Y-48321944D01*
X109409613Y-48358451D01*
X109390955Y-48389314D01*
X109370855Y-48446671D01*
X109392780Y-48508165D01*
X109413880Y-48603201D01*
X109398335Y-48656009D01*
X109384347Y-48707063D01*
X109378162Y-48788209D01*
X109379858Y-48909032D01*
X109389518Y-49079118D01*
X109403434Y-49262016D01*
X109421096Y-49339662D01*
X109435859Y-49371209D01*
X109437767Y-49406470D01*
X109406323Y-49413206D01*
X109369381Y-49426564D01*
X109380688Y-49455203D01*
X109389789Y-49476366D01*
X109396351Y-49516161D01*
X109400379Y-49581384D01*
X109401876Y-49678833D01*
X109400845Y-49815307D01*
X109397289Y-49997602D01*
X109391213Y-50232516D01*
X109382619Y-50526846D01*
X109381241Y-50572333D01*
X109380388Y-50711761D01*
X109385920Y-50827562D01*
X109396720Y-50901876D01*
X109402765Y-50916711D01*
X109414735Y-50952929D01*
X109404168Y-50958709D01*
X109391007Y-50989906D01*
X109379266Y-51073892D01*
X109370561Y-51196264D01*
X109367372Y-51286288D01*
X109363438Y-51461901D01*
X109360996Y-51584614D01*
X109359908Y-51668704D01*
X109360036Y-51728448D01*
X109361242Y-51778122D01*
X109362345Y-51807055D01*
X109363417Y-51880658D01*
X109363251Y-52009248D01*
X109361928Y-52180632D01*
X109359527Y-52382613D01*
X109357748Y-52504211D01*
X109347761Y-52635134D01*
X109320511Y-52718753D01*
X109316191Y-52726047D01*
X109315654Y-52779013D01*
X109339556Y-52826746D01*
X109367286Y-52893763D01*
X109350898Y-52932811D01*
X109332549Y-52991315D01*
X109330947Y-53083579D01*
X109333680Y-53109295D01*
X109339002Y-53192844D01*
X109330565Y-53239700D01*
X109324833Y-53243365D01*
X109313586Y-53272272D01*
X109318788Y-53344188D01*
X109323300Y-53369357D01*
X109333177Y-53448134D01*
X109338999Y-53552709D01*
X109340688Y-53662931D01*
X109338166Y-53758648D01*
X109331354Y-53819708D01*
X109325089Y-53831328D01*
X109322351Y-53863298D01*
X109319274Y-53952705D01*
X109316073Y-54089791D01*
X109312964Y-54264798D01*
X109310164Y-54467969D01*
X109309282Y-54545283D01*
X109307381Y-54788828D01*
X109307890Y-54972616D01*
X109311198Y-55104055D01*
X109317690Y-55190552D01*
X109327755Y-55239515D01*
X109341781Y-55258352D01*
X109346616Y-55259238D01*
X109387783Y-55278617D01*
X109391655Y-55291781D01*
X109367550Y-55311488D01*
X109347425Y-55307352D01*
X109330056Y-55313245D01*
X109317533Y-55351682D01*
X109309113Y-55430732D01*
X109304052Y-55558463D01*
X109301609Y-55742944D01*
X109301282Y-55808700D01*
X109299597Y-55989554D01*
X109296212Y-56146760D01*
X109291542Y-56268001D01*
X109286003Y-56340958D01*
X109282824Y-56355894D01*
X109269171Y-56420211D01*
X109267989Y-56523997D01*
X109277141Y-56641351D01*
X109294492Y-56746377D01*
X109317904Y-56813176D01*
X109320880Y-56817226D01*
X109350134Y-56857634D01*
X109332599Y-56859736D01*
X109318116Y-56854500D01*
X109288818Y-56854936D01*
X109277169Y-56894986D01*
X109279739Y-56987566D01*
X109280375Y-56996522D01*
X109287558Y-57098425D01*
X109292395Y-57172817D01*
X109293368Y-57191116D01*
X109292953Y-57232846D01*
X109291097Y-57332091D01*
X109288008Y-57479190D01*
X109283893Y-57664483D01*
X109278961Y-57878310D01*
X109275220Y-58036169D01*
X109269427Y-58288619D01*
X109263626Y-58563622D01*
X109257734Y-58866225D01*
X109251667Y-59201472D01*
X109245342Y-59574409D01*
X109238675Y-59990080D01*
X109231583Y-60453531D01*
X109223982Y-60969808D01*
X109215789Y-61543955D01*
X109208319Y-62079608D01*
X109204604Y-62342817D01*
X109201064Y-62583205D01*
X109197826Y-62792884D01*
X109195017Y-62963965D01*
X109192766Y-63088557D01*
X109191200Y-63158773D01*
X109190627Y-63171539D01*
X109189210Y-63203092D01*
X109188136Y-63289575D01*
X109187394Y-63418722D01*
X109186972Y-63578267D01*
X109186861Y-63755946D01*
X109187049Y-63939493D01*
X109187525Y-64116642D01*
X109188279Y-64275129D01*
X109189299Y-64402687D01*
X109190575Y-64487052D01*
X109191815Y-64515455D01*
X109191271Y-64579826D01*
X109190699Y-64582650D01*
X109188201Y-64624283D01*
X109185047Y-64723581D01*
X109181455Y-64871019D01*
X109177641Y-65057073D01*
X109173819Y-65272216D01*
X109171045Y-65449185D01*
X109166932Y-65679806D01*
X109161878Y-65888335D01*
X109156220Y-66065302D01*
X109150297Y-66201236D01*
X109144448Y-66286667D01*
X109140247Y-66312009D01*
X109145014Y-66354032D01*
X109154638Y-66362206D01*
X109170415Y-66408450D01*
X109157331Y-66461867D01*
X109139260Y-66526519D01*
X109140776Y-66554832D01*
X109146122Y-66563731D01*
X109150351Y-66582667D01*
X109153473Y-66617717D01*
X109155497Y-66674960D01*
X109156435Y-66760477D01*
X109156295Y-66880344D01*
X109155089Y-67040642D01*
X109152827Y-67247449D01*
X109149518Y-67506845D01*
X109145173Y-67824908D01*
X109143138Y-67970556D01*
X109137333Y-68326458D01*
X109130735Y-68618264D01*
X109123203Y-68849073D01*
X109114598Y-69021981D01*
X109104781Y-69140086D01*
X109093613Y-69206484D01*
X109086852Y-69222077D01*
X109065488Y-69275212D01*
X109091399Y-69322513D01*
X109117947Y-69370782D01*
X109093565Y-69401295D01*
X109067314Y-69454656D01*
X109074006Y-69515677D01*
X109082246Y-69578745D01*
X109090547Y-69695315D01*
X109098193Y-69851696D01*
X109104467Y-70034199D01*
X109107280Y-70150850D01*
X109111240Y-70337120D01*
X109115079Y-70500360D01*
X109118483Y-70628489D01*
X109121140Y-70709425D01*
X109122325Y-70731063D01*
X109123160Y-70795238D01*
X109117911Y-70898263D01*
X109108445Y-71019374D01*
X109096629Y-71137806D01*
X109084333Y-71232793D01*
X109073423Y-71283573D01*
X109072455Y-71285461D01*
X109066303Y-71330570D01*
X109065190Y-71427730D01*
X109068982Y-71561995D01*
X109076127Y-71696741D01*
X109082796Y-71804768D01*
X109088102Y-71903391D01*
X109092026Y-72000250D01*
X109094548Y-72102988D01*
X109095648Y-72219245D01*
X109095307Y-72356663D01*
X109093504Y-72522883D01*
X109090219Y-72725546D01*
X109085434Y-72972293D01*
X109079127Y-73270766D01*
X109071279Y-73628606D01*
X109071087Y-73637280D01*
X109062772Y-73966634D01*
X109053772Y-74231134D01*
X109043951Y-74433120D01*
X109033174Y-74574932D01*
X109021303Y-74658910D01*
X109010053Y-74686699D01*
X108989965Y-74708145D01*
X109011156Y-74711898D01*
X109032615Y-74736838D01*
X109039772Y-74815271D01*
X109034555Y-74936918D01*
X109023992Y-75055040D01*
X109011975Y-75145970D01*
X109001497Y-75188902D01*
X109001107Y-75238532D01*
X109009892Y-75257442D01*
X109025166Y-75317011D01*
X109028469Y-75407326D01*
X109027962Y-75417032D01*
X109025998Y-75476177D01*
X109023500Y-75594544D01*
X109020587Y-75764158D01*
X109017376Y-75977049D01*
X109013986Y-76225245D01*
X109010536Y-76500772D01*
X109007144Y-76795660D01*
X109006233Y-76879476D01*
X109002963Y-77174988D01*
X108999723Y-77450513D01*
X108996615Y-77698578D01*
X108993742Y-77911713D01*
X108991205Y-78082446D01*
X108989108Y-78203304D01*
X108987551Y-78266818D01*
X108987185Y-78273788D01*
X108987147Y-78328062D01*
X108990904Y-78431488D01*
X108997728Y-78566176D01*
X109002096Y-78640190D01*
X109008621Y-78819136D01*
X109002836Y-78940668D01*
X108985365Y-78999896D01*
X108967883Y-79061522D01*
X108977188Y-79087065D01*
X108996947Y-79152046D01*
X109007140Y-79253534D01*
X109007514Y-79364883D01*
X108997812Y-79459445D01*
X108981205Y-79507038D01*
X108966627Y-79566344D01*
X108974549Y-79588746D01*
X108990361Y-79650213D01*
X109000957Y-79766848D01*
X109006603Y-79926848D01*
X109007564Y-80118409D01*
X109004107Y-80329728D01*
X108996498Y-80549002D01*
X108985002Y-80764427D01*
X108969887Y-80964200D01*
X108951416Y-81136517D01*
X108937582Y-81229108D01*
X108930069Y-81306251D01*
X108923089Y-81444497D01*
X108916658Y-81637754D01*
X108910796Y-81879932D01*
X108905520Y-82164940D01*
X108900850Y-82486686D01*
X108896804Y-82839080D01*
X108893399Y-83216030D01*
X108890655Y-83611445D01*
X108888589Y-84019235D01*
X108887220Y-84433308D01*
X108886567Y-84847574D01*
X108886647Y-85255940D01*
X108887480Y-85652317D01*
X108889083Y-86030613D01*
X108891474Y-86384737D01*
X108894673Y-86708598D01*
X108898698Y-86996105D01*
X108903566Y-87241167D01*
X108909297Y-87437693D01*
X108915908Y-87579591D01*
X108918334Y-87614000D01*
X108926008Y-87750359D01*
X108931611Y-87934902D01*
X108935247Y-88157887D01*
X108937025Y-88409573D01*
X108937049Y-88680220D01*
X108935427Y-88960088D01*
X108932263Y-89239435D01*
X108927665Y-89508520D01*
X108921738Y-89757604D01*
X108914588Y-89976945D01*
X108906322Y-90156803D01*
X108897045Y-90287437D01*
X108888503Y-90352227D01*
X108875441Y-90446029D01*
X108864488Y-90583577D01*
X108857307Y-90741426D01*
X108855731Y-90814198D01*
X108851387Y-91141777D01*
X89779062Y-91141777D01*
X89686851Y-91106090D01*
X89661298Y-91097092D01*
X89509736Y-91043740D01*
X89352933Y-90987180D01*
X89233399Y-90942866D01*
X89123318Y-90904646D01*
X89032479Y-90879267D01*
X88992614Y-90872994D01*
X88937707Y-90860134D01*
X88924944Y-90847796D01*
X88885995Y-90814648D01*
X88806710Y-90772610D01*
X88709189Y-90730735D01*
X88615532Y-90698079D01*
X88547838Y-90683697D01*
X88530593Y-90686213D01*
X88489331Y-90680874D01*
X88473140Y-90656738D01*
X88437195Y-90610896D01*
X88417227Y-90604211D01*
X88366020Y-90583592D01*
X88323788Y-90552010D01*
X88243248Y-90507745D01*
X88186750Y-90495749D01*
X88101606Y-90475641D01*
X88056999Y-90451131D01*
X87983136Y-90407903D01*
X87931664Y-90387743D01*
X87864271Y-90358786D01*
X87763372Y-90306094D01*
X87664857Y-90249378D01*
X87558756Y-90189894D01*
X87469940Y-90147922D01*
X87420616Y-90133094D01*
X87358225Y-90112910D01*
X87284248Y-90066645D01*
X87212002Y-90019942D01*
X87156789Y-90000196D01*
X87104941Y-89978382D01*
X87034212Y-89925791D01*
X87022741Y-89915455D01*
X86951802Y-89859730D01*
X86895386Y-89832111D01*
X86889360Y-89831460D01*
X86821946Y-89812633D01*
X86709542Y-89760039D01*
X86561447Y-89679505D01*
X86386962Y-89576860D01*
X86195384Y-89457933D01*
X85996015Y-89328552D01*
X85798154Y-89194545D01*
X85611100Y-89061741D01*
X85444153Y-88935968D01*
X85383720Y-88887822D01*
X85225310Y-88751176D01*
X85043418Y-88581546D01*
X84852375Y-88393468D01*
X84666513Y-88201474D01*
X84500165Y-88020101D01*
X84367664Y-87863883D01*
X84342981Y-87832386D01*
X84259104Y-87730041D01*
X84182123Y-87647991D01*
X84127412Y-87602485D01*
X84123539Y-87600466D01*
X84070760Y-87549432D01*
X84058851Y-87508072D01*
X84044050Y-87456323D01*
X84025936Y-87446010D01*
X83990925Y-87419145D01*
X83942304Y-87351717D01*
X83923836Y-87320018D01*
X83811155Y-87117530D01*
X83722173Y-86964708D01*
X83650330Y-86851223D01*
X83589063Y-86766743D01*
X83531813Y-86700940D01*
X83528337Y-86697334D01*
X83463527Y-86622305D01*
X83442451Y-86589264D01*
X90476046Y-86589264D01*
X90492845Y-86606063D01*
X90509644Y-86589264D01*
X90492845Y-86572465D01*
X90476046Y-86589264D01*
X83442451Y-86589264D01*
X83425068Y-86562012D01*
X83420491Y-86545667D01*
X83401934Y-86507754D01*
X83392184Y-86505269D01*
X83359804Y-86478460D01*
X83314090Y-86411711D01*
X83300549Y-86387677D01*
X83255487Y-86313289D01*
X83221144Y-86272649D01*
X83215190Y-86270084D01*
X83187634Y-86243234D01*
X83139500Y-86174446D01*
X83081278Y-86081363D01*
X83023459Y-85981629D01*
X82976534Y-85892887D01*
X82950994Y-85832780D01*
X82949052Y-85822504D01*
X82929367Y-85766517D01*
X82898655Y-85717697D01*
X82859294Y-85640984D01*
X82849327Y-85590651D01*
X82825318Y-85528824D01*
X82798930Y-85509483D01*
X82756437Y-85463665D01*
X82748533Y-85426543D01*
X82736056Y-85373896D01*
X82720218Y-85362941D01*
X82683053Y-85331063D01*
X82629288Y-85237462D01*
X82560194Y-85085194D01*
X82477042Y-84877312D01*
X82381105Y-84616868D01*
X82273654Y-84306918D01*
X82245460Y-84223007D01*
X82203823Y-84103426D01*
X82166040Y-84003527D01*
X82142008Y-83948535D01*
X82130589Y-83892207D01*
X82152439Y-83873104D01*
X82175284Y-83848409D01*
X82156684Y-83828396D01*
X82102391Y-83762465D01*
X82047157Y-83656247D01*
X82001873Y-83535601D01*
X81977426Y-83426386D01*
X81975782Y-83398804D01*
X81968246Y-83320537D01*
X81949690Y-83281029D01*
X81945471Y-83279873D01*
X81915277Y-83251834D01*
X81883790Y-83187565D01*
X81865922Y-83128682D01*
X81942184Y-83128682D01*
X81958983Y-83145481D01*
X81975782Y-83128682D01*
X81958983Y-83111883D01*
X81942184Y-83128682D01*
X81865922Y-83128682D01*
X81862328Y-83116837D01*
X81862210Y-83069421D01*
X81864356Y-83066519D01*
X81865155Y-83027250D01*
X81847977Y-82946126D01*
X81831003Y-82887274D01*
X81800895Y-82783148D01*
X81781582Y-82700558D01*
X81778087Y-82675111D01*
X81770847Y-82579935D01*
X81757981Y-82456724D01*
X81807792Y-82456724D01*
X81824591Y-82473523D01*
X81841390Y-82456724D01*
X81824591Y-82439926D01*
X81807792Y-82456724D01*
X81757981Y-82456724D01*
X81756042Y-82438156D01*
X81735939Y-82269644D01*
X81712809Y-82094268D01*
X81707086Y-82053550D01*
X81694129Y-81916124D01*
X81686750Y-81739462D01*
X81685802Y-81551354D01*
X81688503Y-81448788D01*
X81695129Y-81279167D01*
X81703135Y-81065842D01*
X81711658Y-80832268D01*
X81719834Y-80601899D01*
X81722507Y-80524846D01*
X81739789Y-80143280D01*
X81764725Y-79762392D01*
X81795637Y-79404474D01*
X81830177Y-79096936D01*
X81838797Y-79012941D01*
X81908586Y-79012941D01*
X81920879Y-79040596D01*
X81930985Y-79035340D01*
X81935006Y-78995467D01*
X81930985Y-78990543D01*
X81911011Y-78995155D01*
X81908586Y-79012941D01*
X81838797Y-79012941D01*
X81841282Y-78988730D01*
X81845815Y-78928947D01*
X81908586Y-78928947D01*
X81925385Y-78945746D01*
X81942184Y-78928947D01*
X81925385Y-78912148D01*
X81908586Y-78928947D01*
X81845815Y-78928947D01*
X81851886Y-78848870D01*
X81857852Y-78744158D01*
X81882937Y-78450750D01*
X81931959Y-78181154D01*
X81941936Y-78139396D01*
X81961419Y-78046664D01*
X81984990Y-77915353D01*
X82007630Y-77773461D01*
X82008171Y-77769820D01*
X82046428Y-77551045D01*
X82093820Y-77364901D01*
X82144311Y-77215455D01*
X82184545Y-77078302D01*
X82223715Y-76893730D01*
X82257981Y-76681457D01*
X82275198Y-76543497D01*
X82296314Y-76388010D01*
X82323822Y-76233377D01*
X82351961Y-76111780D01*
X82353402Y-76106724D01*
X82376523Y-75993434D01*
X82389992Y-75841356D01*
X82394448Y-75640086D01*
X82392628Y-75468365D01*
X82382065Y-75179867D01*
X82361979Y-74948144D01*
X82330663Y-74763233D01*
X82286410Y-74615168D01*
X82227531Y-74494026D01*
X82311761Y-74494026D01*
X82328560Y-74510825D01*
X82345359Y-74494026D01*
X82328560Y-74477227D01*
X82311761Y-74494026D01*
X82227531Y-74494026D01*
X82227511Y-74493984D01*
X82224879Y-74489641D01*
X82165904Y-74386094D01*
X82117072Y-74288746D01*
X82107738Y-74267240D01*
X82071788Y-74201453D01*
X82039691Y-74174846D01*
X82012784Y-74147585D01*
X82009380Y-74124449D01*
X81993320Y-74079708D01*
X81979700Y-74074053D01*
X81945274Y-74046776D01*
X81929751Y-74015256D01*
X81877491Y-73902190D01*
X81792995Y-73759982D01*
X81689751Y-73608731D01*
X81581245Y-73468535D01*
X81507022Y-73385296D01*
X81908586Y-73385296D01*
X81925385Y-73402095D01*
X81942184Y-73385296D01*
X81925385Y-73368497D01*
X81908586Y-73385296D01*
X81507022Y-73385296D01*
X81446812Y-73312489D01*
X81363489Y-73197846D01*
X81307960Y-73116513D01*
X81706999Y-73116513D01*
X81723798Y-73133312D01*
X81740597Y-73116513D01*
X81723798Y-73099714D01*
X81706999Y-73116513D01*
X81307960Y-73116513D01*
X81267742Y-73057606D01*
X81196661Y-72948523D01*
X81270226Y-72948523D01*
X81287025Y-72965322D01*
X81303824Y-72948523D01*
X81287025Y-72931724D01*
X81270226Y-72948523D01*
X81196661Y-72948523D01*
X81170260Y-72908007D01*
X81081734Y-72765287D01*
X81012853Y-72645685D01*
X80987264Y-72595746D01*
X80930892Y-72484568D01*
X80873664Y-72383381D01*
X80855022Y-72353914D01*
X80809704Y-72277186D01*
X80785624Y-72219660D01*
X80785595Y-72219522D01*
X80755181Y-72094767D01*
X80722214Y-72000478D01*
X80693629Y-71955243D01*
X80676084Y-71913991D01*
X80659955Y-71826445D01*
X80650803Y-71736856D01*
X80637786Y-71585106D01*
X80620621Y-71423998D01*
X80611679Y-71352624D01*
X80596840Y-71191723D01*
X80590463Y-71004780D01*
X80591856Y-70807187D01*
X80600330Y-70614334D01*
X80615193Y-70441611D01*
X80635756Y-70304408D01*
X80661327Y-70218118D01*
X80662702Y-70215458D01*
X80690757Y-70142589D01*
X80695149Y-70100723D01*
X80700535Y-70033119D01*
X80707948Y-70008709D01*
X80725707Y-69948982D01*
X80750490Y-69849435D01*
X80767711Y-69773523D01*
X80806636Y-69634073D01*
X80859087Y-69492548D01*
X80884314Y-69437545D01*
X80939462Y-69322577D01*
X80988170Y-69211689D01*
X81001916Y-69177161D01*
X81014069Y-69151963D01*
X85234777Y-69151963D01*
X85251576Y-69168762D01*
X85268375Y-69151963D01*
X85251576Y-69135164D01*
X85234777Y-69151963D01*
X81014069Y-69151963D01*
X81037116Y-69104177D01*
X81069200Y-69068635D01*
X81072715Y-69067968D01*
X81099744Y-69041111D01*
X81102237Y-69023124D01*
X81103618Y-69017571D01*
X81572607Y-69017571D01*
X81589406Y-69034370D01*
X81606205Y-69017571D01*
X81589406Y-69000772D01*
X81572607Y-69017571D01*
X81103618Y-69017571D01*
X81120131Y-68951160D01*
X81167597Y-68841317D01*
X81235315Y-68710511D01*
X81313963Y-68575658D01*
X81394220Y-68453674D01*
X81426373Y-68412809D01*
X85369168Y-68412809D01*
X85385967Y-68429608D01*
X85402766Y-68412809D01*
X85385967Y-68396010D01*
X85369168Y-68412809D01*
X81426373Y-68412809D01*
X81466763Y-68361476D01*
X81466952Y-68361270D01*
X81539970Y-68277854D01*
X81590165Y-68213429D01*
X81605307Y-68186023D01*
X81631905Y-68161316D01*
X81638203Y-68160825D01*
X81676537Y-68138642D01*
X81746176Y-68080509D01*
X81831391Y-67999647D01*
X81922388Y-67913814D01*
X82002394Y-67847292D01*
X82051377Y-67815913D01*
X82100877Y-67780914D01*
X82110173Y-67758705D01*
X82137370Y-67727968D01*
X82160570Y-67724053D01*
X82201426Y-67707254D01*
X82311761Y-67707254D01*
X82328560Y-67724053D01*
X82345359Y-67707254D01*
X82328560Y-67690455D01*
X82311761Y-67707254D01*
X82201426Y-67707254D01*
X82205278Y-67705670D01*
X82210967Y-67689999D01*
X82240765Y-67655781D01*
X82320666Y-67608463D01*
X82436433Y-67554322D01*
X82573827Y-67499633D01*
X82718610Y-67450673D01*
X82815729Y-67423422D01*
X82974478Y-67393287D01*
X83165593Y-67371953D01*
X83369942Y-67360012D01*
X83568390Y-67358054D01*
X83741805Y-67366671D01*
X83871051Y-67386454D01*
X83885314Y-67390381D01*
X83998873Y-67414508D01*
X84099415Y-67405425D01*
X84163325Y-67386859D01*
X84257806Y-67360925D01*
X84321997Y-67363327D01*
X84387183Y-67395501D01*
X84390016Y-67397278D01*
X84485648Y-67453984D01*
X84562819Y-67495849D01*
X84644029Y-67547572D01*
X84734326Y-67619186D01*
X84747607Y-67631119D01*
X84819095Y-67689734D01*
X84873218Y-67721837D01*
X84882519Y-67723897D01*
X84937905Y-67749961D01*
X85020637Y-67819940D01*
X85120492Y-67922036D01*
X85227246Y-68044451D01*
X85330676Y-68175389D01*
X85420559Y-68303051D01*
X85486670Y-68415640D01*
X85492779Y-68428120D01*
X85542213Y-68506191D01*
X85602511Y-68570154D01*
X85652636Y-68597836D01*
X85653818Y-68597875D01*
X85687638Y-68626514D01*
X85742103Y-68703454D01*
X85810243Y-68815737D01*
X85885087Y-68950404D01*
X85959663Y-69094497D01*
X86027002Y-69235057D01*
X86080133Y-69359128D01*
X86110030Y-69445944D01*
X86139466Y-69526247D01*
X86169850Y-69569514D01*
X86176812Y-69571936D01*
X86199706Y-69601082D01*
X86209115Y-69670330D01*
X86224155Y-69757950D01*
X86255167Y-69814776D01*
X86288590Y-69870639D01*
X86328075Y-69968287D01*
X86357476Y-70060760D01*
X86400287Y-70200484D01*
X86448864Y-70341294D01*
X86476092Y-70411883D01*
X86520168Y-70536558D01*
X86554306Y-70663809D01*
X86560846Y-70697465D01*
X86606070Y-70951998D01*
X86647959Y-71151015D01*
X86678007Y-71268629D01*
X86705117Y-71366241D01*
X86725489Y-71441371D01*
X86728634Y-71453418D01*
X86743996Y-71508412D01*
X86748089Y-71520613D01*
X86751421Y-71560328D01*
X86761044Y-71603899D01*
X86788861Y-71680999D01*
X86794460Y-71694720D01*
X86824284Y-71797470D01*
X86849472Y-71952767D01*
X86870446Y-72164557D01*
X86887626Y-72436789D01*
X86897526Y-72662941D01*
X86904210Y-72830406D01*
X86913138Y-73040551D01*
X86923243Y-73268942D01*
X86933461Y-73491144D01*
X86935604Y-73536486D01*
X86945734Y-73811742D01*
X86952668Y-74131705D01*
X86956236Y-74473954D01*
X86956267Y-74816069D01*
X86952590Y-75135629D01*
X86948973Y-75291976D01*
X86940809Y-75385053D01*
X86925110Y-75442563D01*
X86915184Y-75451566D01*
X86896140Y-75481954D01*
X86876885Y-75560668D01*
X86864731Y-75644754D01*
X86843038Y-75764296D01*
X86803042Y-75919713D01*
X86751838Y-76084669D01*
X86727922Y-76152572D01*
X86678733Y-76290468D01*
X86639949Y-76406916D01*
X86616681Y-76486126D01*
X86612290Y-76509636D01*
X86588750Y-76565033D01*
X86561893Y-76593894D01*
X86518862Y-76658105D01*
X86511496Y-76694961D01*
X86496440Y-76767066D01*
X86463758Y-76846218D01*
X86435080Y-76926089D01*
X86433986Y-76985053D01*
X86435671Y-77048746D01*
X86416173Y-77123664D01*
X86391193Y-77213058D01*
X86369785Y-77331853D01*
X86363494Y-77383444D01*
X86344886Y-77516483D01*
X86318539Y-77648223D01*
X86308895Y-77685825D01*
X86279711Y-77813013D01*
X86258981Y-77943344D01*
X86257778Y-77954608D01*
X86240079Y-78089576D01*
X86212123Y-78254836D01*
X86177298Y-78434697D01*
X86138992Y-78613468D01*
X86100592Y-78775460D01*
X86065488Y-78904982D01*
X86037066Y-78986343D01*
X86033378Y-78993820D01*
X86013505Y-79045028D01*
X85997249Y-79121238D01*
X85984302Y-79228433D01*
X85974360Y-79372597D01*
X85967115Y-79559713D01*
X85962263Y-79795763D01*
X85959496Y-80086732D01*
X85958508Y-80438602D01*
X85958500Y-80457650D01*
X85959355Y-80779375D01*
X85962344Y-81041197D01*
X85967758Y-81250383D01*
X85975889Y-81414200D01*
X85987027Y-81539917D01*
X86001463Y-81634799D01*
X86006581Y-81658775D01*
X86035618Y-81766661D01*
X86063968Y-81842432D01*
X86084118Y-81868762D01*
X86102454Y-81895380D01*
X86099968Y-81927558D01*
X86109638Y-82005758D01*
X86161660Y-82130091D01*
X86239742Y-82271936D01*
X86265042Y-82329799D01*
X86300262Y-82428696D01*
X86330595Y-82523920D01*
X86372324Y-82646702D01*
X86416942Y-82754816D01*
X86445644Y-82809502D01*
X86496854Y-82901536D01*
X86544731Y-83006092D01*
X86545254Y-83007399D01*
X86597216Y-83103608D01*
X86673203Y-83208845D01*
X86702392Y-83242584D01*
X86772883Y-83328338D01*
X86822570Y-83405532D01*
X86833428Y-83431063D01*
X86870890Y-83537249D01*
X86915889Y-83632751D01*
X86958372Y-83698429D01*
X86983443Y-83716645D01*
X87014481Y-83742318D01*
X87015464Y-83750676D01*
X87038162Y-83796367D01*
X87094740Y-83866984D01*
X87167925Y-83944626D01*
X87240444Y-84011392D01*
X87295025Y-84049382D01*
X87306776Y-84052569D01*
X87340554Y-84081670D01*
X87367895Y-84151911D01*
X87368564Y-84154885D01*
X87416511Y-84250435D01*
X87521375Y-84338149D01*
X87530824Y-84344115D01*
X87627036Y-84413441D01*
X87743359Y-84510601D01*
X87851371Y-84611431D01*
X87943324Y-84698111D01*
X88020788Y-84762004D01*
X88069043Y-84791141D01*
X88073131Y-84791777D01*
X88118819Y-84816343D01*
X88178944Y-84876918D01*
X88190713Y-84891687D01*
X88257173Y-84963282D01*
X88319657Y-85007747D01*
X88326789Y-85010483D01*
X88380157Y-85055126D01*
X88407077Y-85112161D01*
X88446672Y-85179448D01*
X88505354Y-85194952D01*
X88581342Y-85218601D01*
X88658773Y-85275823D01*
X88661761Y-85278947D01*
X88723861Y-85335908D01*
X88769931Y-85362654D01*
X88772870Y-85362941D01*
X88818432Y-85385386D01*
X88859407Y-85422604D01*
X88942285Y-85496346D01*
X89038836Y-85558875D01*
X89123646Y-85594719D01*
X89147748Y-85598127D01*
X89193217Y-85615573D01*
X89199327Y-85631084D01*
X89228082Y-85661698D01*
X89291721Y-85685811D01*
X89381458Y-85714917D01*
X89490151Y-85760330D01*
X89518507Y-85773842D01*
X89627289Y-85827501D01*
X89728621Y-85877523D01*
X89748015Y-85887105D01*
X89833762Y-85920900D01*
X89899703Y-85934105D01*
X89964711Y-85949369D01*
X90054428Y-85987169D01*
X90075966Y-85998257D01*
X90160323Y-86031084D01*
X90290506Y-86067522D01*
X90445753Y-86102172D01*
X90545839Y-86120447D01*
X90700773Y-86147750D01*
X90838517Y-86174957D01*
X90940645Y-86198274D01*
X90980015Y-86209849D01*
X91047999Y-86229570D01*
X91080808Y-86230449D01*
X91095073Y-86189436D01*
X91098069Y-86112576D01*
X91091160Y-86030019D01*
X91075709Y-85971915D01*
X91068716Y-85963061D01*
X91046199Y-85918207D01*
X91029349Y-85835178D01*
X91027410Y-85816882D01*
X91011387Y-85723530D01*
X90986687Y-85657344D01*
X90982630Y-85651674D01*
X90955321Y-85594157D01*
X90920102Y-85484685D01*
X90880360Y-85337543D01*
X90839482Y-85167014D01*
X90800855Y-84987384D01*
X90767866Y-84812936D01*
X90743902Y-84657955D01*
X90740488Y-84630530D01*
X90723360Y-84453922D01*
X90710561Y-84262201D01*
X90704647Y-84094394D01*
X90704539Y-84081654D01*
X90700463Y-83952371D01*
X90690989Y-83846836D01*
X90678040Y-83785260D01*
X90675929Y-83781083D01*
X90667448Y-83717475D01*
X90680133Y-83678378D01*
X90691554Y-83589898D01*
X90676453Y-83542176D01*
X90666039Y-83479561D01*
X90663012Y-83365187D01*
X90666568Y-83213988D01*
X90675902Y-83040901D01*
X90690211Y-82860861D01*
X90708691Y-82688803D01*
X90730354Y-82540719D01*
X90744555Y-82423857D01*
X90751400Y-82298112D01*
X90751487Y-82288735D01*
X90756433Y-82201934D01*
X90769056Y-82078954D01*
X90786849Y-81937412D01*
X90807307Y-81794926D01*
X90827924Y-81669114D01*
X90846196Y-81577594D01*
X90857977Y-81539975D01*
X90869627Y-81495370D01*
X90883930Y-81405566D01*
X90894598Y-81318312D01*
X90915321Y-81192879D01*
X90950415Y-81044195D01*
X90994030Y-80891746D01*
X91040315Y-80755016D01*
X91083423Y-80653490D01*
X91104742Y-80618315D01*
X91130470Y-80566496D01*
X91166903Y-80469689D01*
X91206689Y-80347631D01*
X91211508Y-80331658D01*
X91249442Y-80215349D01*
X91283546Y-80129251D01*
X91307414Y-80089180D01*
X91310211Y-80088074D01*
X91336844Y-80059646D01*
X91371412Y-79988808D01*
X91381501Y-79962498D01*
X91419860Y-79879687D01*
X91485407Y-79760893D01*
X91567174Y-79625442D01*
X91615037Y-79550924D01*
X91704030Y-79411561D01*
X91786235Y-79275673D01*
X91849320Y-79163951D01*
X91870359Y-79122520D01*
X91918410Y-79038044D01*
X91963349Y-78986791D01*
X91979552Y-78979729D01*
X92018641Y-78962051D01*
X92021549Y-78952081D01*
X92041693Y-78908832D01*
X92080345Y-78858422D01*
X92153641Y-78768838D01*
X92221523Y-78674691D01*
X92271311Y-78594723D01*
X92290332Y-78548013D01*
X92314283Y-78512884D01*
X92377579Y-78448341D01*
X92467382Y-78367306D01*
X92483520Y-78353532D01*
X92577987Y-78271566D01*
X92650169Y-78205245D01*
X92686394Y-78167207D01*
X92687907Y-78164662D01*
X92726503Y-78140082D01*
X92735133Y-78139396D01*
X92782693Y-78120454D01*
X92857086Y-78073229D01*
X92881282Y-78055402D01*
X92962467Y-78002049D01*
X93028357Y-77973119D01*
X93040448Y-77971407D01*
X93094337Y-77944266D01*
X93108831Y-77921010D01*
X93149050Y-77876351D01*
X93171222Y-77870538D01*
X93198811Y-77842737D01*
X93214108Y-77756270D01*
X93215763Y-77719423D01*
X93768639Y-77719423D01*
X93785438Y-77736222D01*
X93802237Y-77719423D01*
X93785438Y-77702624D01*
X93768639Y-77719423D01*
X93215763Y-77719423D01*
X93217897Y-77671923D01*
X93229240Y-77530719D01*
X93261119Y-77431777D01*
X93293492Y-77381885D01*
X93354102Y-77252717D01*
X93365464Y-77144902D01*
X93377215Y-77014830D01*
X93406220Y-76879353D01*
X93413637Y-76855452D01*
X93441903Y-76745877D01*
X93442048Y-76745084D01*
X93835835Y-76745084D01*
X93852634Y-76761883D01*
X93869433Y-76745084D01*
X93852634Y-76728285D01*
X93835835Y-76745084D01*
X93442048Y-76745084D01*
X93468111Y-76602056D01*
X93485116Y-76468491D01*
X93495241Y-76339383D01*
X93493823Y-76261966D01*
X93479172Y-76221461D01*
X93455005Y-76204997D01*
X93420619Y-76183261D01*
X93428791Y-76145266D01*
X93451615Y-76108150D01*
X93483917Y-76019059D01*
X93469681Y-75947738D01*
X93455689Y-75828971D01*
X93471810Y-75733217D01*
X93497738Y-75618989D01*
X93516014Y-75512382D01*
X93517282Y-75501963D01*
X93534088Y-75374083D01*
X93558002Y-75219203D01*
X93586515Y-75050734D01*
X93617113Y-74882087D01*
X93647285Y-74726674D01*
X93674518Y-74597907D01*
X93696302Y-74509197D01*
X93709787Y-74474148D01*
X93730017Y-74431132D01*
X93728483Y-74423751D01*
X93736488Y-74379262D01*
X93767521Y-74294698D01*
X93805612Y-74208444D01*
X93874897Y-74047048D01*
X93953856Y-73839183D01*
X94035971Y-73603597D01*
X94114719Y-73359036D01*
X94126725Y-73318100D01*
X100017845Y-73318100D01*
X100034644Y-73334899D01*
X100051443Y-73318100D01*
X100034644Y-73301301D01*
X100017845Y-73318100D01*
X94126725Y-73318100D01*
X94183580Y-73124247D01*
X94186775Y-73112632D01*
X94222539Y-73002448D01*
X94276354Y-72861661D01*
X94342849Y-72701838D01*
X94416649Y-72534549D01*
X94492381Y-72371362D01*
X94564671Y-72223846D01*
X94628147Y-72103571D01*
X94677435Y-72022105D01*
X94707161Y-71991017D01*
X94707744Y-71990984D01*
X94736510Y-71962730D01*
X94754834Y-71914720D01*
X94791387Y-71835876D01*
X94850871Y-71755919D01*
X94903528Y-71695084D01*
X94928832Y-71657414D01*
X94929174Y-71655793D01*
X94946881Y-71608393D01*
X94985599Y-71535399D01*
X95029918Y-71463247D01*
X95064428Y-71418374D01*
X95069850Y-71414456D01*
X95099265Y-71380401D01*
X95145832Y-71306034D01*
X95175828Y-71251830D01*
X95235768Y-71145148D01*
X95242283Y-71134238D01*
X97665994Y-71134238D01*
X97682792Y-71151037D01*
X97699591Y-71134238D01*
X97682792Y-71117439D01*
X97665994Y-71134238D01*
X95242283Y-71134238D01*
X95315479Y-71011655D01*
X95396434Y-70882254D01*
X95484728Y-70742885D01*
X95576660Y-70594381D01*
X95646246Y-70479079D01*
X95733776Y-70346801D01*
X95773813Y-70294291D01*
X97464406Y-70294291D01*
X97481205Y-70311090D01*
X97498004Y-70294291D01*
X97481205Y-70277492D01*
X97464406Y-70294291D01*
X95773813Y-70294291D01*
X95840112Y-70207336D01*
X95897250Y-70140913D01*
X97539840Y-70140913D01*
X97544435Y-70143100D01*
X97575096Y-70119448D01*
X97581999Y-70109502D01*
X97590560Y-70078092D01*
X97585965Y-70075904D01*
X97555304Y-70099557D01*
X97548401Y-70109502D01*
X97539840Y-70140913D01*
X95897250Y-70140913D01*
X95904410Y-70132590D01*
X95980754Y-70045528D01*
X96034456Y-69976368D01*
X96053295Y-69941776D01*
X96075036Y-69905817D01*
X96133080Y-69834772D01*
X96216663Y-69741509D01*
X96254882Y-69700815D01*
X96345582Y-69602800D01*
X96415115Y-69522520D01*
X96452750Y-69472587D01*
X96456470Y-69463884D01*
X96479277Y-69427141D01*
X96538451Y-69359437D01*
X96549487Y-69347950D01*
X97878780Y-69347950D01*
X97883392Y-69367924D01*
X97901179Y-69370349D01*
X97928834Y-69358056D01*
X97923577Y-69347950D01*
X97883704Y-69343929D01*
X97878780Y-69347950D01*
X96549487Y-69347950D01*
X96614045Y-69280754D01*
X97912378Y-69280754D01*
X97916990Y-69300728D01*
X97934777Y-69303153D01*
X97962431Y-69290860D01*
X97957175Y-69280754D01*
X97917302Y-69276733D01*
X97912378Y-69280754D01*
X96614045Y-69280754D01*
X96620117Y-69274434D01*
X96710403Y-69185795D01*
X96795433Y-69107183D01*
X96861336Y-69052259D01*
X96892618Y-69034370D01*
X96922948Y-69007155D01*
X96926840Y-68983807D01*
X96950466Y-68934631D01*
X97011002Y-68858838D01*
X97092933Y-68771848D01*
X97153042Y-68715190D01*
X98169962Y-68715190D01*
X98186761Y-68731989D01*
X98203560Y-68715190D01*
X98186761Y-68698391D01*
X98169962Y-68715190D01*
X97153042Y-68715190D01*
X97180744Y-68689079D01*
X97231624Y-68647994D01*
X98237158Y-68647994D01*
X98253957Y-68664793D01*
X98270755Y-68647994D01*
X98253957Y-68631195D01*
X98237158Y-68647994D01*
X97231624Y-68647994D01*
X97258922Y-68625951D01*
X97311952Y-68597883D01*
X97315437Y-68597598D01*
X97366102Y-68571012D01*
X97397210Y-68530402D01*
X97446315Y-68476845D01*
X97484556Y-68463206D01*
X97537329Y-68439175D01*
X97605418Y-68379335D01*
X97624733Y-68357681D01*
X97669161Y-68312016D01*
X98337951Y-68312016D01*
X98354750Y-68328814D01*
X98371549Y-68312016D01*
X98354750Y-68295217D01*
X98337951Y-68312016D01*
X97669161Y-68312016D01*
X97706341Y-68273801D01*
X97790946Y-68205423D01*
X97802372Y-68198091D01*
X97839228Y-68172024D01*
X98483542Y-68172024D01*
X98488154Y-68191998D01*
X98505941Y-68194423D01*
X98533596Y-68182130D01*
X98528339Y-68172024D01*
X98488466Y-68168003D01*
X98483542Y-68172024D01*
X97839228Y-68172024D01*
X97884408Y-68140069D01*
X98003091Y-68045446D01*
X98146661Y-67924230D01*
X98303361Y-67786429D01*
X98461432Y-67642051D01*
X98516668Y-67590145D01*
X98615065Y-67497058D01*
X98698654Y-67418257D01*
X98752046Y-67368245D01*
X98757853Y-67362875D01*
X98817736Y-67326573D01*
X98844442Y-67320878D01*
X98901316Y-67301052D01*
X98989964Y-67250403D01*
X99091431Y-67182171D01*
X99186762Y-67109600D01*
X99257001Y-67045931D01*
X99279531Y-67016928D01*
X99333542Y-66963968D01*
X99377073Y-66951301D01*
X99441270Y-66926388D01*
X99465122Y-66869803D01*
X99440614Y-66808783D01*
X99423312Y-66794142D01*
X99348084Y-66735321D01*
X99305467Y-66696643D01*
X99219879Y-66655453D01*
X99164359Y-66656520D01*
X99088474Y-66652350D01*
X99062226Y-66625011D01*
X99029029Y-66593994D01*
X99010841Y-66597948D01*
X98956477Y-66597923D01*
X98876897Y-66563742D01*
X98796459Y-66506609D01*
X98781417Y-66492423D01*
X98717274Y-66453575D01*
X98685114Y-66447333D01*
X98619134Y-66432365D01*
X98544722Y-66400533D01*
X98462520Y-66358555D01*
X98351571Y-66303295D01*
X98287554Y-66271899D01*
X98147851Y-66203453D01*
X98048704Y-66153595D01*
X97970026Y-66111971D01*
X97891731Y-66068225D01*
X97884380Y-66064037D01*
X97788478Y-66012659D01*
X97673168Y-65955159D01*
X97640795Y-65939789D01*
X97556423Y-65894109D01*
X97505169Y-65854345D01*
X97498004Y-65840999D01*
X97471032Y-65812008D01*
X97451202Y-65808973D01*
X97400109Y-65781733D01*
X97383723Y-65755090D01*
X97345431Y-65717187D01*
X97319582Y-65717887D01*
X97268759Y-65707398D01*
X97203877Y-65659377D01*
X97198746Y-65654177D01*
X97165392Y-65624185D01*
X108988480Y-65624185D01*
X109005279Y-65640984D01*
X109022078Y-65624185D01*
X109005279Y-65607386D01*
X108988480Y-65624185D01*
X97165392Y-65624185D01*
X97137364Y-65598982D01*
X97093192Y-65573925D01*
X97091303Y-65573788D01*
X97064453Y-65546597D01*
X97061232Y-65524446D01*
X97038634Y-65490071D01*
X97017157Y-65492016D01*
X96957839Y-65485586D01*
X96861578Y-65444110D01*
X96742878Y-65375764D01*
X96616247Y-65288724D01*
X96519285Y-65211390D01*
X96418014Y-65130892D01*
X96319256Y-65062513D01*
X96272702Y-65035627D01*
X96184688Y-64984603D01*
X96118654Y-64935428D01*
X96046556Y-64875677D01*
X95991641Y-64835617D01*
X95936161Y-64775996D01*
X95918904Y-64724441D01*
X95904601Y-64682904D01*
X95885110Y-64683565D01*
X95824227Y-64689990D01*
X95742301Y-64665910D01*
X95665540Y-64623471D01*
X95620151Y-64574817D01*
X95616523Y-64559102D01*
X95591585Y-64503815D01*
X95517397Y-64493736D01*
X95503871Y-64495830D01*
X95461394Y-64477898D01*
X95419403Y-64441012D01*
X95351185Y-64378477D01*
X95308255Y-64347465D01*
X95255018Y-64311103D01*
X95166974Y-64247015D01*
X95062472Y-64168579D01*
X95054727Y-64162677D01*
X94941440Y-64077154D01*
X94835372Y-63998595D01*
X94759886Y-63944291D01*
X94669269Y-63873658D01*
X94546074Y-63766615D01*
X94397547Y-63630451D01*
X94374200Y-63608312D01*
X94877369Y-63608312D01*
X94894168Y-63625111D01*
X94910967Y-63608312D01*
X94894168Y-63591513D01*
X94877369Y-63608312D01*
X94374200Y-63608312D01*
X94285624Y-63524317D01*
X94810173Y-63524317D01*
X94822466Y-63551972D01*
X94832572Y-63546716D01*
X94836593Y-63506843D01*
X94832572Y-63501918D01*
X94812598Y-63506530D01*
X94810173Y-63524317D01*
X94285624Y-63524317D01*
X94230935Y-63472456D01*
X94128777Y-63373127D01*
X108014142Y-63373127D01*
X108030941Y-63389926D01*
X108047740Y-63373127D01*
X108030941Y-63356328D01*
X108014142Y-63373127D01*
X94128777Y-63373127D01*
X94053483Y-63299918D01*
X93872440Y-63120128D01*
X93695051Y-62940375D01*
X93528561Y-62767947D01*
X93380219Y-62610136D01*
X93257270Y-62474229D01*
X93166960Y-62367517D01*
X93116537Y-62297289D01*
X93110558Y-62285169D01*
X93076629Y-62237575D01*
X93006093Y-62160552D01*
X92912816Y-62069031D01*
X92891125Y-62048898D01*
X92693132Y-61866997D01*
X91710581Y-61907910D01*
X91233906Y-61927402D01*
X90820547Y-61943498D01*
X90466714Y-61956292D01*
X90168620Y-61965874D01*
X89922473Y-61972336D01*
X89724486Y-61975770D01*
X89570869Y-61976268D01*
X89457832Y-61973921D01*
X89381587Y-61968822D01*
X89354470Y-61964974D01*
X89275149Y-61946137D01*
X89250800Y-61923607D01*
X89269635Y-61886034D01*
X89270835Y-61884435D01*
X89297015Y-61847006D01*
X89279884Y-61857919D01*
X89266582Y-61869621D01*
X89194054Y-61905361D01*
X89150610Y-61911826D01*
X89072112Y-61927321D01*
X88983604Y-61963206D01*
X88898863Y-61992969D01*
X88853820Y-61982725D01*
X88836865Y-61931234D01*
X88875169Y-61877171D01*
X88957271Y-61825937D01*
X89071708Y-61782932D01*
X89207019Y-61753556D01*
X89351743Y-61743210D01*
X89361920Y-61743337D01*
X89492395Y-61742816D01*
X89687564Y-61737722D01*
X89945087Y-61728158D01*
X90262628Y-61714229D01*
X90637845Y-61696040D01*
X91068402Y-61673695D01*
X91551959Y-61647297D01*
X91690340Y-61639542D01*
X92451061Y-61596697D01*
X92423569Y-61558841D01*
X92559115Y-61558841D01*
X92575914Y-61575640D01*
X92592713Y-61558841D01*
X92575914Y-61542042D01*
X92559115Y-61558841D01*
X92423569Y-61558841D01*
X92379096Y-61497604D01*
X92286855Y-61384667D01*
X92166901Y-61256118D01*
X92044252Y-61137999D01*
X91984165Y-61086478D01*
X91914307Y-61021115D01*
X91833205Y-60932188D01*
X91754127Y-60836118D01*
X91690340Y-60749324D01*
X91655112Y-60688226D01*
X91651972Y-60675341D01*
X91627445Y-60628379D01*
X91590964Y-60594807D01*
X91530484Y-60536646D01*
X91506599Y-60500508D01*
X91472954Y-60438345D01*
X91422832Y-60355542D01*
X91418873Y-60349317D01*
X91374639Y-60269035D01*
X91352496Y-60207477D01*
X91352047Y-60203207D01*
X91327536Y-60153055D01*
X91269528Y-60084017D01*
X91248798Y-60063735D01*
X91184316Y-59987077D01*
X91149818Y-59914069D01*
X91148004Y-59899065D01*
X91137671Y-59842648D01*
X91122292Y-59828550D01*
X91097695Y-59799670D01*
X91062004Y-59725460D01*
X91036644Y-59659794D01*
X90980989Y-59526894D01*
X90911926Y-59392287D01*
X90885967Y-59349014D01*
X90804824Y-59221126D01*
X90746956Y-59125942D01*
X90699102Y-59039770D01*
X90648001Y-58938920D01*
X90592411Y-58824594D01*
X90533032Y-58694829D01*
X90484536Y-58576298D01*
X90455862Y-58491137D01*
X90453324Y-58480216D01*
X90429871Y-58411506D01*
X90401733Y-58383841D01*
X90357520Y-58379977D01*
X90260750Y-58369448D01*
X90125555Y-58353847D01*
X89966065Y-58334767D01*
X89960761Y-58334122D01*
X89822278Y-58318729D01*
X89629268Y-58299360D01*
X89394202Y-58277160D01*
X89129554Y-58253270D01*
X88847795Y-58228833D01*
X88561400Y-58204994D01*
X88476972Y-58198171D01*
X88137588Y-58170311D01*
X87859345Y-58145843D01*
X87636322Y-58123946D01*
X87462596Y-58103795D01*
X87332247Y-58084569D01*
X87239351Y-58065444D01*
X87177988Y-58045599D01*
X87142236Y-58024208D01*
X87131145Y-58011171D01*
X87122294Y-57956859D01*
X87129466Y-57870922D01*
X87131199Y-57861164D01*
X87172731Y-57766638D01*
X87242678Y-57719905D01*
X87324436Y-57727758D01*
X87373020Y-57762258D01*
X87437166Y-57800420D01*
X87530875Y-57802784D01*
X87558802Y-57798852D01*
X87647330Y-57792685D01*
X87686570Y-57808106D01*
X87687422Y-57812597D01*
X87717304Y-57832269D01*
X87792806Y-57840878D01*
X87830213Y-57840338D01*
X87904369Y-57841516D01*
X88034611Y-57848363D01*
X88210152Y-57859979D01*
X88420205Y-57875464D01*
X88653981Y-57893918D01*
X88900693Y-57914441D01*
X89149554Y-57936133D01*
X89389777Y-57958094D01*
X89610573Y-57979423D01*
X89801155Y-57999221D01*
X89950737Y-58016588D01*
X89965837Y-58018520D01*
X90126147Y-58035044D01*
X90231342Y-58036417D01*
X90278133Y-58023004D01*
X90263230Y-57995169D01*
X90250952Y-57986902D01*
X90214791Y-57938959D01*
X90189832Y-57872515D01*
X90155935Y-57790042D01*
X90119214Y-57742116D01*
X90087783Y-57679423D01*
X90091176Y-57639944D01*
X90093434Y-57589330D01*
X90077805Y-57577492D01*
X90048205Y-57548508D01*
X90022898Y-57478598D01*
X90022475Y-57476698D01*
X89997315Y-57406139D01*
X89967373Y-57375922D01*
X89966739Y-57375904D01*
X89948497Y-57347486D01*
X89954577Y-57278309D01*
X89958947Y-57196267D01*
X89938480Y-57157518D01*
X89916651Y-57109329D01*
X89920343Y-57056724D01*
X90442449Y-57056724D01*
X90459248Y-57073523D01*
X90476046Y-57056724D01*
X90459248Y-57039926D01*
X90442449Y-57056724D01*
X89920343Y-57056724D01*
X89921448Y-57040987D01*
X89924057Y-56960791D01*
X89894022Y-56929261D01*
X89852859Y-56885628D01*
X89826597Y-56815808D01*
X89774231Y-56568724D01*
X89727970Y-56366929D01*
X89709168Y-56291487D01*
X89693816Y-56186461D01*
X89689089Y-56050709D01*
X89692974Y-55957353D01*
X89699226Y-55837346D01*
X89691697Y-55764938D01*
X89667013Y-55721346D01*
X89647638Y-55704816D01*
X89614730Y-55668200D01*
X89595187Y-55607366D01*
X89585668Y-55506554D01*
X89583149Y-55400590D01*
X89577061Y-55265811D01*
X89563365Y-55149959D01*
X89544865Y-55075728D01*
X89542334Y-55070467D01*
X89518123Y-55010682D01*
X89518363Y-54984999D01*
X89525831Y-54944242D01*
X89530630Y-54845696D01*
X89532580Y-54698720D01*
X89531498Y-54512675D01*
X89529655Y-54402492D01*
X89532076Y-54288570D01*
X89541570Y-54186359D01*
X89543304Y-54175706D01*
X89543695Y-54103924D01*
X89519942Y-54083312D01*
X89495125Y-54050200D01*
X89481252Y-53951034D01*
X89478168Y-53856526D01*
X89473520Y-53726600D01*
X95823854Y-53726600D01*
X95827850Y-53881539D01*
X95836330Y-54031388D01*
X95849120Y-54161731D01*
X95866049Y-54258155D01*
X95867165Y-54262444D01*
X95892473Y-54370619D01*
X95904967Y-54452158D01*
X95903267Y-54484605D01*
X95904443Y-54530248D01*
X95926068Y-54614904D01*
X95960425Y-54716582D01*
X95999796Y-54813288D01*
X96036463Y-54883028D01*
X96048408Y-54898213D01*
X96083148Y-54958818D01*
X96086893Y-54981998D01*
X96100748Y-55038502D01*
X96135540Y-55126489D01*
X96152151Y-55162368D01*
X96188192Y-55255116D01*
X96201502Y-55328294D01*
X96198954Y-55345533D01*
X96199112Y-55387387D01*
X96212372Y-55393629D01*
X96240801Y-55422662D01*
X96273788Y-55495417D01*
X96284511Y-55528021D01*
X96315498Y-55611160D01*
X96344872Y-55658355D01*
X96352949Y-55662412D01*
X96383790Y-55690138D01*
X96420444Y-55757455D01*
X96422872Y-55763206D01*
X96463914Y-55832745D01*
X96506481Y-55863880D01*
X96508679Y-55864000D01*
X96553080Y-55891953D01*
X96574349Y-55932100D01*
X96607760Y-55984638D01*
X96681765Y-56073002D01*
X96787074Y-56188001D01*
X96914394Y-56320440D01*
X97054436Y-56461128D01*
X97197908Y-56600871D01*
X97335519Y-56730477D01*
X97457978Y-56840753D01*
X97555995Y-56922506D01*
X97619389Y-56966095D01*
X97721712Y-57030176D01*
X97835813Y-57118719D01*
X97894159Y-57171399D01*
X97981602Y-57246194D01*
X98059777Y-57296065D01*
X98099486Y-57308709D01*
X98159811Y-57337362D01*
X98223746Y-57411800D01*
X98232706Y-57426301D01*
X98287551Y-57500668D01*
X98338859Y-57541317D01*
X98350438Y-57543894D01*
X98402186Y-57564224D01*
X98482012Y-57616278D01*
X98535913Y-57658458D01*
X98642456Y-57732878D01*
X98722434Y-57758164D01*
X98736888Y-57756324D01*
X98799712Y-57758607D01*
X98823312Y-57776152D01*
X98869452Y-57801134D01*
X98951191Y-57812597D01*
X98958695Y-57812677D01*
X99038185Y-57819487D01*
X99081390Y-57836094D01*
X99082704Y-57838209D01*
X99118209Y-57857393D01*
X99203514Y-57886863D01*
X99323021Y-57921466D01*
X99379486Y-57936246D01*
X99555438Y-57981281D01*
X99749081Y-58031401D01*
X99920290Y-58076216D01*
X99929706Y-58078703D01*
X100067400Y-58112057D01*
X100191364Y-58136769D01*
X100278390Y-58148322D01*
X100288900Y-58148656D01*
X100364892Y-58159460D01*
X100404221Y-58182254D01*
X100449737Y-58206654D01*
X100521814Y-58215851D01*
X100596680Y-58223692D01*
X100634187Y-58241050D01*
X100675518Y-58254379D01*
X100768358Y-58260529D01*
X100897432Y-58259724D01*
X101047462Y-58252187D01*
X101203172Y-58238142D01*
X101254337Y-58231969D01*
X101386805Y-58218388D01*
X101551208Y-58206463D01*
X101712294Y-58198747D01*
X101714539Y-58198675D01*
X101893398Y-58190203D01*
X102060283Y-58177239D01*
X102202700Y-58161292D01*
X102308156Y-58143868D01*
X102364157Y-58126475D01*
X102369925Y-58119586D01*
X102400519Y-58106764D01*
X102479502Y-58095512D01*
X102563113Y-58089676D01*
X102760616Y-58062362D01*
X102993336Y-57995267D01*
X103267858Y-57886369D01*
X103360835Y-57844563D01*
X103487555Y-57787095D01*
X103608655Y-57733586D01*
X103680015Y-57703122D01*
X103773892Y-57654485D01*
X103887894Y-57582181D01*
X103957488Y-57531988D01*
X104065049Y-57454853D01*
X104143081Y-57418906D01*
X104212092Y-57420483D01*
X104292589Y-57455918D01*
X104314416Y-57468204D01*
X104416697Y-57526905D01*
X104605278Y-57342211D01*
X104794582Y-57155790D01*
X104942135Y-57007527D01*
X105055029Y-56889439D01*
X105140359Y-56793537D01*
X105205217Y-56711837D01*
X105256698Y-56636352D01*
X105301895Y-56559097D01*
X105303562Y-56556059D01*
X105446449Y-56250719D01*
X105574135Y-55886240D01*
X105684517Y-55469391D01*
X105763954Y-55074449D01*
X105797210Y-54890652D01*
X105833576Y-54699542D01*
X105867539Y-54529707D01*
X105883817Y-54452889D01*
X105907333Y-54290685D01*
X105920307Y-54081028D01*
X105923216Y-53842751D01*
X105916538Y-53594687D01*
X105900751Y-53355668D01*
X105876334Y-53144528D01*
X105846731Y-52991381D01*
X105812900Y-52856055D01*
X105781127Y-52723851D01*
X105765437Y-52655402D01*
X105722466Y-52502454D01*
X105652644Y-52303121D01*
X105561353Y-52069978D01*
X105453972Y-51815602D01*
X105335882Y-51552569D01*
X105212462Y-51293454D01*
X105089092Y-51050834D01*
X105039589Y-50958709D01*
X104993096Y-50873981D01*
X104935946Y-50770097D01*
X104923165Y-50746901D01*
X104837015Y-50608758D01*
X104721628Y-50448177D01*
X104595451Y-50290062D01*
X104526590Y-50211480D01*
X104457933Y-50145234D01*
X104358181Y-50059768D01*
X104240179Y-49964839D01*
X104116775Y-49870203D01*
X104000814Y-49785616D01*
X103905144Y-49720836D01*
X103842610Y-49685618D01*
X103829411Y-49681989D01*
X103783471Y-49662938D01*
X103701650Y-49612754D01*
X103600846Y-49541888D01*
X103590950Y-49534500D01*
X103468238Y-49452767D01*
X103340735Y-49384145D01*
X103243242Y-49345875D01*
X103140972Y-49317290D01*
X103061054Y-49293633D01*
X103041655Y-49287359D01*
X102970910Y-49269938D01*
X102897864Y-49257771D01*
X102821196Y-49242126D01*
X102703739Y-49211904D01*
X102568664Y-49173134D01*
X102545087Y-49165965D01*
X102307692Y-49099059D01*
X102063535Y-49040486D01*
X101843596Y-48997528D01*
X101798533Y-48990451D01*
X101727154Y-48978667D01*
X101611267Y-48958245D01*
X101472399Y-48933000D01*
X101428957Y-48924960D01*
X101266090Y-48898437D01*
X101140313Y-48889230D01*
X101024000Y-48896574D01*
X100933092Y-48911213D01*
X100806831Y-48929609D01*
X100694707Y-48937038D01*
X100634243Y-48933625D01*
X100538373Y-48940563D01*
X100400895Y-48986766D01*
X100340557Y-49013733D01*
X100217081Y-49064514D01*
X100100804Y-49099649D01*
X100026950Y-49110799D01*
X99923813Y-49123424D01*
X99771802Y-49158896D01*
X99583834Y-49213659D01*
X99372828Y-49284159D01*
X99295491Y-49312053D01*
X99170007Y-49356756D01*
X99046972Y-49398363D01*
X99002994Y-49412428D01*
X98918080Y-49445005D01*
X98794640Y-49500020D01*
X98653323Y-49568067D01*
X98583020Y-49603725D01*
X98443665Y-49675688D01*
X98315797Y-49741625D01*
X98218583Y-49791658D01*
X98186761Y-49807981D01*
X98092372Y-49863048D01*
X97988075Y-49933138D01*
X97968979Y-49947156D01*
X97860144Y-50026539D01*
X97744942Y-50107598D01*
X97728639Y-50118762D01*
X97582945Y-50224318D01*
X97429458Y-50346376D01*
X97276454Y-50477047D01*
X97132208Y-50608446D01*
X97004994Y-50732686D01*
X96903088Y-50841880D01*
X96834764Y-50928143D01*
X96808298Y-50983587D01*
X96810297Y-50994004D01*
X96804144Y-51028639D01*
X96798950Y-51031434D01*
X96754246Y-51070802D01*
X96687168Y-51154034D01*
X96607509Y-51265998D01*
X96525058Y-51391559D01*
X96449608Y-51515584D01*
X96390949Y-51622939D01*
X96358871Y-51698492D01*
X96355676Y-51716581D01*
X96336912Y-51760046D01*
X96322078Y-51765058D01*
X96291560Y-51791949D01*
X96288480Y-51811184D01*
X96272563Y-51881393D01*
X96231428Y-51987366D01*
X96175003Y-52107595D01*
X96113216Y-52220571D01*
X96067391Y-52290214D01*
X96020263Y-52366845D01*
X96000274Y-52447744D01*
X96000995Y-52561714D01*
X96002361Y-52581647D01*
X96004033Y-52712632D01*
X95984645Y-52788484D01*
X95970104Y-52805925D01*
X95943361Y-52858531D01*
X95918839Y-52960750D01*
X95900848Y-53094055D01*
X95887005Y-53213881D01*
X95871798Y-53302412D01*
X95858160Y-53343223D01*
X95856160Y-53344234D01*
X95840494Y-53375388D01*
X95830003Y-53459110D01*
X95824514Y-53580986D01*
X95823854Y-53726600D01*
X89473520Y-53726600D01*
X89473121Y-53715442D01*
X89461503Y-53539448D01*
X89445521Y-53360256D01*
X89440031Y-53309059D01*
X89427396Y-53192968D01*
X89904882Y-53192968D01*
X89921681Y-53209767D01*
X89938480Y-53192968D01*
X89921681Y-53176169D01*
X89904882Y-53192968D01*
X89427396Y-53192968D01*
X89423653Y-53158574D01*
X89412580Y-53036560D01*
X89406294Y-52925185D01*
X89404276Y-52806618D01*
X89406008Y-52663025D01*
X89410973Y-52476574D01*
X89413467Y-52395018D01*
X89415478Y-52244266D01*
X89414698Y-52218629D01*
X89871285Y-52218629D01*
X89888083Y-52235428D01*
X89904882Y-52218629D01*
X89888083Y-52201830D01*
X89871285Y-52218629D01*
X89414698Y-52218629D01*
X89411869Y-52125718D01*
X89410305Y-52112236D01*
X89882484Y-52112236D01*
X89887096Y-52132210D01*
X89904882Y-52134635D01*
X89932537Y-52122342D01*
X89927281Y-52112236D01*
X89887408Y-52108215D01*
X89882484Y-52112236D01*
X89410305Y-52112236D01*
X89403321Y-52052038D01*
X89394015Y-52033841D01*
X89380802Y-52012131D01*
X89389681Y-51991844D01*
X89415018Y-51926370D01*
X89427166Y-51868614D01*
X89447897Y-51781988D01*
X89483534Y-51679353D01*
X89487584Y-51669478D01*
X89513485Y-51582973D01*
X89510840Y-51526811D01*
X89507394Y-51522119D01*
X89497500Y-51474138D01*
X89504886Y-51380852D01*
X89519276Y-51301282D01*
X89546265Y-51165972D01*
X89575910Y-51001702D01*
X89599582Y-50857915D01*
X89624502Y-50709091D01*
X89652028Y-50563360D01*
X89675630Y-50454740D01*
X89703006Y-50328333D01*
X89729761Y-50181825D01*
X89739669Y-50118762D01*
X89765393Y-49983868D01*
X89800035Y-49851529D01*
X89817482Y-49799582D01*
X89850487Y-49693839D01*
X89868690Y-49599804D01*
X89869810Y-49582488D01*
X89878027Y-49516244D01*
X89899059Y-49402501D01*
X89929437Y-49258952D01*
X89955470Y-49145716D01*
X89997621Y-48967995D01*
X90040971Y-48784492D01*
X90078885Y-48623316D01*
X90094531Y-48556460D01*
X90132619Y-48403189D01*
X90175754Y-48244203D01*
X90207664Y-48136486D01*
X90242937Y-48024172D01*
X90246340Y-48013294D01*
X109234865Y-48013294D01*
X109239477Y-48033268D01*
X109257263Y-48035693D01*
X109284918Y-48023400D01*
X109279662Y-48013294D01*
X109239789Y-48009273D01*
X109234865Y-48013294D01*
X90246340Y-48013294D01*
X90290717Y-47871454D01*
X90343575Y-47702099D01*
X90375715Y-47598920D01*
X90427017Y-47440960D01*
X90478291Y-47294776D01*
X90522496Y-47179880D01*
X90545447Y-47128550D01*
X90591040Y-47025254D01*
X90622944Y-46928826D01*
X90625054Y-46919749D01*
X90653286Y-46855299D01*
X90687707Y-46845036D01*
X90722052Y-46827375D01*
X90760685Y-46768960D01*
X90792454Y-46694436D01*
X90806210Y-46628447D01*
X90798602Y-46599959D01*
X90797638Y-46560521D01*
X90807696Y-46543678D01*
X90832581Y-46493346D01*
X90867410Y-46400905D01*
X90895872Y-46314203D01*
X90935345Y-46203956D01*
X90975907Y-46118219D01*
X91001287Y-46083303D01*
X91028100Y-46036619D01*
X91248798Y-46036619D01*
X91265597Y-46053418D01*
X91282396Y-46036619D01*
X91265597Y-46019820D01*
X91248798Y-46036619D01*
X91028100Y-46036619D01*
X91035914Y-46023013D01*
X91047210Y-45953717D01*
X91070125Y-45862865D01*
X91110939Y-45804572D01*
X91159113Y-45736046D01*
X91201543Y-45635433D01*
X91211034Y-45602470D01*
X91244207Y-45504084D01*
X91283553Y-45431374D01*
X91296337Y-45417429D01*
X91339747Y-45355440D01*
X91366135Y-45281829D01*
X91404543Y-45189342D01*
X91451497Y-45128469D01*
X91493045Y-45074181D01*
X91496347Y-45038306D01*
X91505420Y-44998012D01*
X91547536Y-44956896D01*
X91601624Y-44901747D01*
X91618375Y-44858788D01*
X91640552Y-44800687D01*
X91672438Y-44759899D01*
X109425253Y-44759899D01*
X109442052Y-44776698D01*
X109458851Y-44759899D01*
X109442052Y-44743100D01*
X109425253Y-44759899D01*
X91672438Y-44759899D01*
X91685570Y-44743100D01*
X91735406Y-44676584D01*
X91752766Y-44625508D01*
X91767768Y-44580753D01*
X91780464Y-44575111D01*
X91807221Y-44546870D01*
X91851091Y-44472720D01*
X91902723Y-44368517D01*
X91904280Y-44365124D01*
X91974229Y-44225032D01*
X92054951Y-44081559D01*
X92110162Y-43994111D01*
X92179732Y-43874348D01*
X92197695Y-43790978D01*
X92164341Y-43737712D01*
X92122852Y-43718526D01*
X92068612Y-43675842D01*
X92020897Y-43599138D01*
X92019552Y-43595951D01*
X91953778Y-43503637D01*
X91883266Y-43459990D01*
X91793375Y-43394915D01*
X91756119Y-43320902D01*
X91709361Y-43130200D01*
X91671935Y-42889548D01*
X91646219Y-42615832D01*
X91639348Y-42492042D01*
X91626368Y-42319521D01*
X91604254Y-42142095D01*
X91577137Y-41991119D01*
X91568660Y-41955732D01*
X91541725Y-41829297D01*
X91528062Y-41716614D01*
X91529738Y-41650107D01*
X91531944Y-41572535D01*
X91520514Y-41455569D01*
X91498909Y-41329677D01*
X91472302Y-41177636D01*
X91448007Y-40996092D01*
X91431019Y-40822685D01*
X91430255Y-40812154D01*
X91419126Y-40678695D01*
X91406951Y-40571119D01*
X91395831Y-40506940D01*
X91392556Y-40497937D01*
X91387138Y-40457702D01*
X91381213Y-40359758D01*
X91375133Y-40213587D01*
X91369255Y-40028669D01*
X91363931Y-39814487D01*
X91360531Y-39641191D01*
X91354281Y-39350200D01*
X91346441Y-39118151D01*
X91336457Y-38936801D01*
X91323773Y-38797906D01*
X91307833Y-38693219D01*
X91292284Y-38628285D01*
X91272920Y-38525535D01*
X91257305Y-38371804D01*
X91251392Y-38275508D01*
X95918904Y-38275508D01*
X95935703Y-38292307D01*
X95952501Y-38275508D01*
X95935703Y-38258709D01*
X95918904Y-38275508D01*
X91251392Y-38275508D01*
X91245551Y-38180377D01*
X91240498Y-38040322D01*
X96389274Y-38040322D01*
X96406073Y-38057121D01*
X96422872Y-38040322D01*
X96406073Y-38023523D01*
X96389274Y-38040322D01*
X91240498Y-38040322D01*
X91237764Y-37964538D01*
X91235159Y-37805137D01*
X93533454Y-37805137D01*
X93550253Y-37821936D01*
X93567052Y-37805137D01*
X93550253Y-37788338D01*
X93533454Y-37805137D01*
X91235159Y-37805137D01*
X91234055Y-37737568D01*
X91234534Y-37512753D01*
X91235528Y-37469158D01*
X93399062Y-37469158D01*
X93415861Y-37485957D01*
X93432660Y-37469158D01*
X93415861Y-37452359D01*
X93399062Y-37469158D01*
X91235528Y-37469158D01*
X91239308Y-37303374D01*
X91248487Y-37122716D01*
X91262181Y-36984063D01*
X91278133Y-36907105D01*
X91301349Y-36780402D01*
X93533454Y-36780402D01*
X93545747Y-36808057D01*
X93555852Y-36802800D01*
X93556417Y-36797201D01*
X93701443Y-36797201D01*
X93718242Y-36814000D01*
X93735041Y-36797201D01*
X93802237Y-36797201D01*
X93819036Y-36814000D01*
X93835835Y-36797201D01*
X93819036Y-36780402D01*
X93802237Y-36797201D01*
X93735041Y-36797201D01*
X93718242Y-36780402D01*
X93701443Y-36797201D01*
X93556417Y-36797201D01*
X93559873Y-36762928D01*
X93555852Y-36758003D01*
X93535879Y-36762615D01*
X93533454Y-36780402D01*
X91301349Y-36780402D01*
X91303552Y-36768379D01*
X91302962Y-36629211D01*
X93936628Y-36629211D01*
X93953427Y-36646010D01*
X93970226Y-36629211D01*
X93953427Y-36612412D01*
X93936628Y-36629211D01*
X91302962Y-36629211D01*
X91302734Y-36575342D01*
X91298713Y-36520729D01*
X91292374Y-36334239D01*
X91301304Y-36144894D01*
X91314451Y-36041248D01*
X91317163Y-36024449D01*
X94541390Y-36024449D01*
X94558189Y-36041248D01*
X94574988Y-36024449D01*
X94558189Y-36007650D01*
X94541390Y-36024449D01*
X91317163Y-36024449D01*
X91333432Y-35923656D01*
X96120491Y-35923656D01*
X96137290Y-35940455D01*
X96154089Y-35923656D01*
X96137290Y-35906857D01*
X96120491Y-35923656D01*
X91333432Y-35923656D01*
X91338855Y-35890058D01*
X96322078Y-35890058D01*
X96338877Y-35906857D01*
X96355676Y-35890058D01*
X96338877Y-35873259D01*
X96322078Y-35890058D01*
X91338855Y-35890058D01*
X91348151Y-35832471D01*
X91371637Y-35647145D01*
X91388972Y-35449992D01*
X91397653Y-35318894D01*
X91410671Y-35183246D01*
X91430547Y-35060485D01*
X91451133Y-34982915D01*
X91465657Y-34914582D01*
X91479550Y-34793621D01*
X91491589Y-34634598D01*
X91500549Y-34452077D01*
X91503372Y-34361354D01*
X91510379Y-34171012D01*
X91520900Y-33995545D01*
X91533732Y-33850082D01*
X91547674Y-33749750D01*
X91550067Y-33739793D01*
X95952501Y-33739793D01*
X95969300Y-33756592D01*
X95986099Y-33739793D01*
X95969300Y-33722994D01*
X95952501Y-33739793D01*
X91550067Y-33739793D01*
X91554104Y-33722994D01*
X91568243Y-33648121D01*
X91581795Y-33521337D01*
X91593535Y-33357923D01*
X91602237Y-33173160D01*
X91604729Y-33091435D01*
X91609261Y-32967042D01*
X99614671Y-32967042D01*
X99631470Y-32983841D01*
X99648269Y-32967042D01*
X99631470Y-32950243D01*
X99614671Y-32967042D01*
X91609261Y-32967042D01*
X91611416Y-32907878D01*
X91621180Y-32744620D01*
X91632927Y-32615130D01*
X91645563Y-32532874D01*
X91651646Y-32514080D01*
X91669432Y-32448203D01*
X91681715Y-32340307D01*
X91685570Y-32232294D01*
X91691220Y-32127095D01*
X99211496Y-32127095D01*
X99228295Y-32143894D01*
X99245094Y-32127095D01*
X99228295Y-32110296D01*
X99211496Y-32127095D01*
X91691220Y-32127095D01*
X91693689Y-32081115D01*
X91714818Y-31906508D01*
X91739927Y-31768114D01*
X91742112Y-31757518D01*
X99009909Y-31757518D01*
X99026708Y-31774317D01*
X99043507Y-31757518D01*
X99026708Y-31740719D01*
X99009909Y-31757518D01*
X91742112Y-31757518D01*
X91766287Y-31640263D01*
X91776102Y-31583929D01*
X91864759Y-31583929D01*
X91869371Y-31603903D01*
X91887158Y-31606328D01*
X91914812Y-31594035D01*
X91909556Y-31583929D01*
X91869683Y-31579908D01*
X91864759Y-31583929D01*
X91776102Y-31583929D01*
X91785024Y-31532720D01*
X91792436Y-31466967D01*
X91792412Y-31463537D01*
X91806561Y-31413746D01*
X91824033Y-31404740D01*
X91841805Y-31383874D01*
X91836002Y-31369916D01*
X91832500Y-31315864D01*
X91851113Y-31222019D01*
X91885110Y-31109277D01*
X91927757Y-30998532D01*
X91972322Y-30910679D01*
X91993273Y-30881808D01*
X92040694Y-30799415D01*
X92055334Y-30730617D01*
X92064426Y-30640818D01*
X92086172Y-30535780D01*
X92087399Y-30531195D01*
X92113064Y-30415649D01*
X92133514Y-30289209D01*
X92135155Y-30275666D01*
X92160088Y-30155693D01*
X92202859Y-30025168D01*
X92217582Y-29990084D01*
X92262111Y-29882418D01*
X92295524Y-29785962D01*
X92302865Y-29758444D01*
X92320539Y-29682046D01*
X92347826Y-29567116D01*
X92374578Y-29456063D01*
X92402755Y-29339782D01*
X92424776Y-29248670D01*
X92435484Y-29204079D01*
X92459691Y-29143920D01*
X92463715Y-29136883D01*
X92483310Y-29083104D01*
X92504171Y-28996444D01*
X92506261Y-28985693D01*
X92541489Y-28811581D01*
X92578780Y-28647524D01*
X92614513Y-28507747D01*
X92645065Y-28406472D01*
X92665801Y-28359120D01*
X92689109Y-28301326D01*
X92705786Y-28211439D01*
X92706903Y-28200242D01*
X92725677Y-28104485D01*
X92756870Y-28033051D01*
X92759951Y-28029058D01*
X92786885Y-27958162D01*
X92786256Y-27894695D01*
X92789319Y-27823313D01*
X92833187Y-27791289D01*
X92876357Y-27762608D01*
X92877410Y-27741139D01*
X92878680Y-27693478D01*
X92906864Y-27618074D01*
X92910520Y-27610835D01*
X92947674Y-27516500D01*
X92963358Y-27433459D01*
X92984619Y-27343665D01*
X93012966Y-27292057D01*
X93046576Y-27230142D01*
X93088057Y-27129560D01*
X93131631Y-27008050D01*
X93171521Y-26883353D01*
X93201948Y-26773212D01*
X93217135Y-26695366D01*
X93215660Y-26669681D01*
X93227255Y-26639338D01*
X93256649Y-26626067D01*
X93304546Y-26582358D01*
X93349414Y-26484686D01*
X93361418Y-26445858D01*
X93445668Y-26166010D01*
X93524833Y-25945187D01*
X93601733Y-25775686D01*
X93617336Y-25746824D01*
X93665696Y-25653091D01*
X93696106Y-25580471D01*
X93701443Y-25557323D01*
X93709103Y-25541910D01*
X94071020Y-25541910D01*
X94087819Y-25558709D01*
X94104618Y-25541910D01*
X94087819Y-25525111D01*
X94071020Y-25541910D01*
X93709103Y-25541910D01*
X93724180Y-25511574D01*
X93780862Y-25445169D01*
X93802237Y-25424317D01*
X93882601Y-25320081D01*
X93903031Y-25227630D01*
X93926890Y-25082135D01*
X93988515Y-24937546D01*
X94022522Y-24886751D01*
X94056327Y-24827112D01*
X94099203Y-24730546D01*
X94123289Y-24668365D01*
X94165374Y-24567571D01*
X94440597Y-24567571D01*
X94457396Y-24584370D01*
X94474195Y-24567571D01*
X94457396Y-24550772D01*
X94440597Y-24567571D01*
X94165374Y-24567571D01*
X94176585Y-24540721D01*
X94239114Y-24415253D01*
X94263489Y-24373133D01*
X94307046Y-24289460D01*
X94324678Y-24227486D01*
X94322232Y-24213543D01*
X94332679Y-24187612D01*
X94367776Y-24181195D01*
X94429349Y-24150879D01*
X94454621Y-24096296D01*
X94492241Y-24000862D01*
X94557889Y-23879498D01*
X94637009Y-23755424D01*
X94715050Y-23651862D01*
X94765232Y-23600718D01*
X94834311Y-23538996D01*
X94919496Y-23454589D01*
X94951026Y-23421359D01*
X95068426Y-23297068D01*
X95074780Y-23290851D01*
X97094830Y-23290851D01*
X97111628Y-23307650D01*
X97128427Y-23290851D01*
X97111628Y-23274053D01*
X97094830Y-23290851D01*
X95074780Y-23290851D01*
X95152181Y-23215125D01*
X95212727Y-23167161D01*
X95235593Y-23156460D01*
X95918904Y-23156460D01*
X95935703Y-23173259D01*
X95952501Y-23156460D01*
X95935703Y-23139661D01*
X95918904Y-23156460D01*
X95235593Y-23156460D01*
X95260498Y-23144805D01*
X95302249Y-23139661D01*
X95363025Y-23128977D01*
X95381337Y-23110139D01*
X95409040Y-23078111D01*
X95475989Y-23041425D01*
X95478932Y-23040192D01*
X95553803Y-22991170D01*
X95594097Y-22932578D01*
X95617663Y-22889290D01*
X95670693Y-22873339D01*
X95748100Y-22875240D01*
X95844690Y-22872107D01*
X95914872Y-22852030D01*
X95925236Y-22844386D01*
X95993581Y-22806468D01*
X96053314Y-22822289D01*
X96074743Y-22854079D01*
X96112253Y-22895590D01*
X96159660Y-22901073D01*
X96187130Y-22868754D01*
X96187687Y-22860799D01*
X96209565Y-22798917D01*
X96224168Y-22780639D01*
X96279170Y-22768026D01*
X96369396Y-22787110D01*
G37*
%TD.AperFunction*%
%TD*%
M02*
